G04 #@! TF.GenerationSoftware,KiCad,Pcbnew,(5.1.8)-1*
G04 #@! TF.CreationDate,2021-05-16T02:31:53+02:00*
G04 #@! TF.ProjectId,gtimer,6774696d-6572-42e6-9b69-6361645f7063,rev?*
G04 #@! TF.SameCoordinates,Original*
G04 #@! TF.FileFunction,Copper,L1,Top*
G04 #@! TF.FilePolarity,Positive*
%FSLAX46Y46*%
G04 Gerber Fmt 4.6, Leading zero omitted, Abs format (unit mm)*
G04 Created by KiCad (PCBNEW (5.1.8)-1) date 2021-05-16 02:31:53*
%MOMM*%
%LPD*%
G01*
G04 APERTURE LIST*
G04 #@! TA.AperFunction,ComponentPad*
%ADD10R,1.700000X1.700000*%
G04 #@! TD*
G04 #@! TA.AperFunction,ComponentPad*
%ADD11O,1.700000X1.700000*%
G04 #@! TD*
G04 #@! TA.AperFunction,SMDPad,CuDef*
%ADD12R,0.600000X1.300000*%
G04 #@! TD*
G04 #@! TA.AperFunction,ComponentPad*
%ADD13R,3.000000X3.000000*%
G04 #@! TD*
G04 #@! TA.AperFunction,ComponentPad*
%ADD14C,3.000000*%
G04 #@! TD*
G04 #@! TA.AperFunction,SMDPad,CuDef*
%ADD15R,3.800000X2.200000*%
G04 #@! TD*
G04 #@! TA.AperFunction,SMDPad,CuDef*
%ADD16R,1.500000X2.200000*%
G04 #@! TD*
G04 #@! TA.AperFunction,SMDPad,CuDef*
%ADD17R,0.600000X1.200000*%
G04 #@! TD*
G04 #@! TA.AperFunction,SMDPad,CuDef*
%ADD18R,1.200000X0.600000*%
G04 #@! TD*
G04 #@! TA.AperFunction,SMDPad,CuDef*
%ADD19R,1.300000X1.500000*%
G04 #@! TD*
G04 #@! TA.AperFunction,SMDPad,CuDef*
%ADD20R,1.500000X1.300000*%
G04 #@! TD*
G04 #@! TA.AperFunction,SMDPad,CuDef*
%ADD21R,2.700000X3.750000*%
G04 #@! TD*
G04 #@! TA.AperFunction,SMDPad,CuDef*
%ADD22R,1.500000X1.250000*%
G04 #@! TD*
G04 #@! TA.AperFunction,ViaPad*
%ADD23C,0.800000*%
G04 #@! TD*
G04 #@! TA.AperFunction,Conductor*
%ADD24C,0.500000*%
G04 #@! TD*
G04 #@! TA.AperFunction,Conductor*
%ADD25C,2.000000*%
G04 #@! TD*
G04 #@! TA.AperFunction,Conductor*
%ADD26C,0.250000*%
G04 #@! TD*
G04 #@! TA.AperFunction,Conductor*
%ADD27C,0.254000*%
G04 #@! TD*
G04 #@! TA.AperFunction,Conductor*
%ADD28C,0.100000*%
G04 #@! TD*
G04 APERTURE END LIST*
D10*
X26000000Y-91000000D03*
D11*
X26000000Y-93540000D03*
X26000000Y-96080000D03*
X26000000Y-98620000D03*
X26000000Y-101160000D03*
D10*
X26000000Y-24000000D03*
D11*
X26000000Y-26540000D03*
X26000000Y-29080000D03*
X26000000Y-31620000D03*
X26000000Y-34160000D03*
D12*
X25050000Y-53050000D03*
X26950000Y-53050000D03*
X26000000Y-50950000D03*
D10*
X46000000Y-24000000D03*
D11*
X48540000Y-24000000D03*
X51080000Y-24000000D03*
X53620000Y-24000000D03*
X56160000Y-24000000D03*
D13*
X97500000Y-43500000D03*
D14*
X97500000Y-38420000D03*
D13*
X97500000Y-86500000D03*
D14*
X97500000Y-81420000D03*
D15*
X75000000Y-80850000D03*
D16*
X72700000Y-87150000D03*
X75000000Y-87150000D03*
X77300000Y-87150000D03*
D17*
X39200000Y-87750000D03*
X40000000Y-87750000D03*
X40800000Y-87750000D03*
X41600000Y-87750000D03*
X42400000Y-87750000D03*
X43200000Y-87750000D03*
X44000000Y-87750000D03*
X44800000Y-87750000D03*
D18*
X46250000Y-86300000D03*
X46250000Y-85500000D03*
X46250000Y-84700000D03*
X46250000Y-83900000D03*
X46250000Y-83100000D03*
X46250000Y-82300000D03*
X46250000Y-81500000D03*
X46250000Y-80700000D03*
D17*
X44800000Y-79250000D03*
X44000000Y-79250000D03*
X43200000Y-79250000D03*
X42400000Y-79250000D03*
X41600000Y-79250000D03*
X40800000Y-79250000D03*
X40000000Y-79250000D03*
X39200000Y-79250000D03*
D18*
X37750000Y-80700000D03*
X37750000Y-81500000D03*
X37750000Y-82300000D03*
X37750000Y-83100000D03*
X37750000Y-83900000D03*
X37750000Y-84700000D03*
X37750000Y-85500000D03*
X37750000Y-86300000D03*
D13*
X25000000Y-66000000D03*
D14*
X25000000Y-58500000D03*
X45000000Y-66000000D03*
X50000000Y-66000000D03*
X40000000Y-66000000D03*
X45000000Y-58500000D03*
X50000000Y-58500000D03*
X40000000Y-58500000D03*
D19*
X48500000Y-36850000D03*
X48500000Y-34150000D03*
X51000000Y-36850000D03*
X51000000Y-34150000D03*
X31000000Y-74850000D03*
X31000000Y-72150000D03*
D20*
X30150000Y-80000000D03*
X32850000Y-80000000D03*
D12*
X26950000Y-71950000D03*
X25050000Y-71950000D03*
X26000000Y-74050000D03*
D10*
X55000000Y-85000000D03*
D11*
X55000000Y-82460000D03*
D10*
X54000000Y-99000000D03*
D11*
X54000000Y-101540000D03*
X51460000Y-99000000D03*
X51460000Y-101540000D03*
X48920000Y-99000000D03*
X48920000Y-101540000D03*
D10*
X35500000Y-101000000D03*
D11*
X38040000Y-101000000D03*
X40580000Y-101000000D03*
D10*
X40000000Y-24000000D03*
D11*
X37460000Y-24000000D03*
X34920000Y-24000000D03*
X32380000Y-24000000D03*
D21*
X63000000Y-87775000D03*
X63000000Y-80225000D03*
D22*
X32750000Y-84000000D03*
X30250000Y-84000000D03*
D21*
X87000000Y-87775000D03*
X87000000Y-80225000D03*
D22*
X40750000Y-91500000D03*
X43250000Y-91500000D03*
X40750000Y-74000000D03*
X43250000Y-74000000D03*
D23*
X40750000Y-70750000D03*
X40000000Y-84000000D03*
X33500000Y-40500000D03*
X34500000Y-43000000D03*
X36500000Y-75000000D03*
X36500000Y-77000000D03*
X43500000Y-84000000D03*
X31000000Y-70000000D03*
D24*
X63000000Y-80225000D02*
X65775000Y-80225000D01*
X83775000Y-80225000D02*
X87000000Y-80225000D01*
X81550000Y-78000000D02*
X83775000Y-80225000D01*
X68000000Y-78000000D02*
X81550000Y-78000000D01*
X65775000Y-80225000D02*
X68000000Y-78000000D01*
X40750000Y-77050000D02*
X41600000Y-77900000D01*
X40750000Y-74000000D02*
X40750000Y-77050000D01*
X41600000Y-79250000D02*
X41600000Y-77900000D01*
X60765000Y-82460000D02*
X63000000Y-80225000D01*
X55000000Y-82460000D02*
X60765000Y-82460000D01*
X42400000Y-87750000D02*
X42400000Y-85900000D01*
X41600000Y-85100000D02*
X41600000Y-79250000D01*
X42400000Y-85900000D02*
X41600000Y-85100000D01*
X43250000Y-90250000D02*
X43250000Y-91500000D01*
X42400000Y-89400000D02*
X43250000Y-90250000D01*
X42400000Y-87750000D02*
X42400000Y-89400000D01*
D25*
X96305000Y-80225000D02*
X97500000Y-81420000D01*
X87000000Y-80225000D02*
X96305000Y-80225000D01*
D24*
X65775000Y-82775000D02*
X65775000Y-80225000D01*
X65775000Y-85275000D02*
X65775000Y-82775000D01*
X67650000Y-87150000D02*
X65775000Y-85275000D01*
X72700000Y-87150000D02*
X67650000Y-87150000D01*
X25050000Y-58450000D02*
X25000000Y-58500000D01*
X25050000Y-53050000D02*
X25050000Y-58450000D01*
D25*
X87000000Y-58500000D02*
X87000000Y-80225000D01*
X82500000Y-54000000D02*
X87000000Y-58500000D01*
X46500000Y-54000000D02*
X82500000Y-54000000D01*
X45000000Y-55500000D02*
X46500000Y-54000000D01*
X45000000Y-58500000D02*
X45000000Y-55500000D01*
D26*
X42400000Y-74850000D02*
X43250000Y-74000000D01*
X42400000Y-79250000D02*
X42400000Y-74850000D01*
D24*
X75000000Y-87150000D02*
X75000000Y-80850000D01*
X40000000Y-24000000D02*
X46000000Y-24000000D01*
X46850000Y-36850000D02*
X48500000Y-36850000D01*
X48500000Y-36850000D02*
X51000000Y-36850000D01*
X56000000Y-101540000D02*
X61460000Y-101540000D01*
X24500000Y-80000000D02*
X23500000Y-81000000D01*
X30150000Y-80000000D02*
X24500000Y-80000000D01*
X23500000Y-76550000D02*
X23500000Y-81000000D01*
X63000000Y-87775000D02*
X63000000Y-100000000D01*
X61460000Y-101540000D02*
X63000000Y-100000000D01*
X60225000Y-85000000D02*
X63000000Y-87775000D01*
X55000000Y-85000000D02*
X60225000Y-85000000D01*
X63000000Y-101500000D02*
X63000000Y-100000000D01*
X60500000Y-104000000D02*
X63000000Y-101500000D01*
X23500000Y-102500000D02*
X25000000Y-104000000D01*
X23500000Y-81000000D02*
X23500000Y-102500000D01*
X26000000Y-74050000D02*
X23950000Y-74050000D01*
X23500000Y-74500000D02*
X23500000Y-76550000D01*
X23950000Y-74050000D02*
X23500000Y-74500000D01*
X75000000Y-89000000D02*
X75000000Y-87150000D01*
X74112500Y-89887500D02*
X75000000Y-89000000D01*
X65112500Y-89887500D02*
X74112500Y-89887500D01*
X63000000Y-87775000D02*
X65112500Y-89887500D01*
X40750000Y-91500000D02*
X40750000Y-95750000D01*
X44650000Y-36850000D02*
X46850000Y-36850000D01*
X43467501Y-38032499D02*
X44650000Y-36850000D01*
X43467501Y-26532499D02*
X46000000Y-24000000D01*
X52500000Y-84000000D02*
X52500000Y-79500000D01*
X53500000Y-85000000D02*
X52500000Y-84000000D01*
X55000000Y-85000000D02*
X53500000Y-85000000D01*
X44000000Y-77000000D02*
X47000000Y-74000000D01*
X44000000Y-79250000D02*
X44000000Y-77000000D01*
X52500000Y-79500000D02*
X47000000Y-74000000D01*
X40750000Y-91500000D02*
X40750000Y-90250000D01*
X41600000Y-89400000D02*
X40750000Y-90250000D01*
X41600000Y-87750000D02*
X41600000Y-89400000D01*
X46500000Y-104000000D02*
X60500000Y-104000000D01*
X45500000Y-104000000D02*
X46500000Y-104000000D01*
X56000000Y-101540000D02*
X54000000Y-101540000D01*
X45000000Y-104000000D02*
X45500000Y-104000000D01*
X25000000Y-104000000D02*
X45000000Y-104000000D01*
X40750000Y-95750000D02*
X44500000Y-99500000D01*
X44500000Y-103000000D02*
X45500000Y-104000000D01*
X44500000Y-99500000D02*
X44500000Y-103000000D01*
X42849999Y-38650001D02*
X43467501Y-38032499D01*
X42849999Y-27150001D02*
X43467501Y-26532499D01*
X42500000Y-39000000D02*
X42849999Y-38650001D01*
X42500000Y-69500000D02*
X42500000Y-39000000D01*
X47000000Y-74000000D02*
X42500000Y-69500000D01*
X42500000Y-27500000D02*
X42849999Y-27150001D01*
X42500000Y-39000000D02*
X42500000Y-27500000D01*
D25*
X77925000Y-87775000D02*
X77300000Y-87150000D01*
X87000000Y-87775000D02*
X77925000Y-87775000D01*
X96225000Y-87775000D02*
X97500000Y-86500000D01*
X87000000Y-87775000D02*
X96225000Y-87775000D01*
D26*
X37750000Y-83900000D02*
X32850000Y-83900000D01*
X32850000Y-80000000D02*
X32850000Y-83900000D01*
X37750000Y-83900000D02*
X39900000Y-83900000D01*
X39900000Y-83900000D02*
X40000000Y-84000000D01*
X25050000Y-66050000D02*
X25000000Y-66000000D01*
X25050000Y-71950000D02*
X25050000Y-66050000D01*
X25000000Y-66000000D02*
X25000000Y-65500000D01*
X27950000Y-62550000D02*
X27950000Y-54050000D01*
X25000000Y-65500000D02*
X27950000Y-62550000D01*
X26950000Y-53050000D02*
X27950000Y-54050000D01*
X27500000Y-24000000D02*
X26000000Y-24000000D01*
X28500000Y-25000000D02*
X27500000Y-24000000D01*
X28500000Y-28150002D02*
X28500000Y-25000000D01*
X37424999Y-37075001D02*
X28500000Y-28150002D01*
X37424999Y-72635001D02*
X37424999Y-37075001D01*
X40000000Y-75210002D02*
X37424999Y-72635001D01*
X40000000Y-79250000D02*
X40000000Y-75210002D01*
X36480000Y-37020000D02*
X26000000Y-26540000D01*
X36480000Y-72980000D02*
X36480000Y-37020000D01*
X39200000Y-75700000D02*
X36480000Y-72980000D01*
X39200000Y-79250000D02*
X39200000Y-75700000D01*
X51000000Y-24080000D02*
X51080000Y-24000000D01*
X51000000Y-34150000D02*
X51000000Y-24080000D01*
X51080000Y-24000000D02*
X51080000Y-22080000D01*
X51080000Y-22080000D02*
X50000000Y-21000000D01*
X50000000Y-21000000D02*
X36000000Y-21000000D01*
X34920000Y-22080000D02*
X34920000Y-24000000D01*
X36000000Y-21000000D02*
X34920000Y-22080000D01*
X34500000Y-82000000D02*
X35600000Y-83100000D01*
X34500000Y-78500000D02*
X34500000Y-82000000D01*
X35600000Y-83100000D02*
X37750000Y-83100000D01*
X33500000Y-77500000D02*
X34500000Y-78500000D01*
X33500000Y-40500000D02*
X33500000Y-77500000D01*
X48500000Y-24040000D02*
X48540000Y-24000000D01*
X48500000Y-34150000D02*
X48500000Y-24040000D01*
X36300000Y-82300000D02*
X37750000Y-82300000D01*
X35500000Y-78500000D02*
X35500000Y-81500000D01*
X34500000Y-77500000D02*
X35500000Y-78500000D01*
X35500000Y-81500000D02*
X36300000Y-82300000D01*
X34500000Y-43000000D02*
X34500000Y-77500000D01*
X37750000Y-80700000D02*
X37700000Y-80700000D01*
X37500000Y-80500000D02*
X37500000Y-76000000D01*
X37700000Y-80700000D02*
X37500000Y-80500000D01*
X37500000Y-76000000D02*
X36500000Y-75000000D01*
X37750000Y-81500000D02*
X36900000Y-81500000D01*
X36450000Y-77050000D02*
X36500000Y-77000000D01*
X36450000Y-81050000D02*
X36450000Y-77050000D01*
X36900000Y-81500000D02*
X36450000Y-81050000D01*
X35000000Y-100500000D02*
X35500000Y-101000000D01*
X35000000Y-86000000D02*
X35000000Y-100500000D01*
X36300000Y-84700000D02*
X35000000Y-86000000D01*
X37750000Y-84700000D02*
X36300000Y-84700000D01*
X38040000Y-99540000D02*
X38040000Y-101000000D01*
X36000000Y-97500000D02*
X38040000Y-99540000D01*
X36000000Y-86000000D02*
X36000000Y-97500000D01*
X36500000Y-85500000D02*
X36000000Y-86000000D01*
X37750000Y-85500000D02*
X36500000Y-85500000D01*
X49949296Y-82949296D02*
X49949296Y-85949296D01*
X47700000Y-80700000D02*
X49949296Y-82949296D01*
X46250000Y-80700000D02*
X47700000Y-80700000D01*
X54000000Y-99000000D02*
X54000000Y-90000000D01*
X49949296Y-85949296D02*
X54000000Y-90000000D01*
X47250000Y-79250000D02*
X44800000Y-79250000D01*
X51017501Y-83017501D02*
X47250000Y-79250000D01*
X51017501Y-86017501D02*
X51017501Y-83017501D01*
X56500000Y-91500000D02*
X51017501Y-86017501D01*
X56500000Y-99500000D02*
X56500000Y-91500000D01*
X55700000Y-100300000D02*
X56500000Y-99500000D01*
X52300000Y-100300000D02*
X55700000Y-100300000D01*
X51460000Y-99460000D02*
X52300000Y-100300000D01*
X51460000Y-99000000D02*
X51460000Y-99460000D01*
X49000000Y-83000000D02*
X49000000Y-86000000D01*
X47500000Y-81500000D02*
X49000000Y-83000000D01*
X46250000Y-81500000D02*
X47500000Y-81500000D01*
X51460000Y-101540000D02*
X50200000Y-100280000D01*
X50200000Y-87200000D02*
X50150000Y-87150000D01*
X50200000Y-100280000D02*
X50200000Y-87200000D01*
X49000000Y-86000000D02*
X50150000Y-87150000D01*
X26950000Y-71950000D02*
X28450000Y-71950000D01*
X31000000Y-74850000D02*
X29850000Y-74850000D01*
X29850000Y-74850000D02*
X29000000Y-74000000D01*
X29000000Y-72500000D02*
X28450000Y-71950000D01*
X29000000Y-74000000D02*
X29000000Y-72500000D01*
X43600000Y-83900000D02*
X43500000Y-84000000D01*
X46250000Y-83900000D02*
X43600000Y-83900000D01*
X31000000Y-72150000D02*
X31000000Y-70000000D01*
D27*
X158259659Y-20688625D02*
X158509429Y-20764035D01*
X158739792Y-20886522D01*
X158941980Y-21051422D01*
X159108286Y-21252450D01*
X159232378Y-21481954D01*
X159309531Y-21731195D01*
X159340000Y-22021088D01*
X159340001Y-102967711D01*
X159311375Y-103259660D01*
X159235965Y-103509429D01*
X159113477Y-103739794D01*
X158948579Y-103941979D01*
X158747546Y-104108288D01*
X158518046Y-104232378D01*
X158268805Y-104309531D01*
X157978911Y-104340000D01*
X61411578Y-104340000D01*
X63595050Y-102156529D01*
X63628817Y-102128817D01*
X63657244Y-102094180D01*
X63739411Y-101994059D01*
X63764761Y-101946632D01*
X63821589Y-101840313D01*
X63872195Y-101673490D01*
X63885000Y-101543477D01*
X63885000Y-101543469D01*
X63889281Y-101500000D01*
X63885000Y-101456531D01*
X63885000Y-100043469D01*
X63889281Y-100000000D01*
X63885000Y-99956531D01*
X63885000Y-97779872D01*
X153265000Y-97779872D01*
X153265000Y-98220128D01*
X153350890Y-98651925D01*
X153519369Y-99058669D01*
X153763962Y-99424729D01*
X154075271Y-99736038D01*
X154441331Y-99980631D01*
X154848075Y-100149110D01*
X155279872Y-100235000D01*
X155720128Y-100235000D01*
X156151925Y-100149110D01*
X156558669Y-99980631D01*
X156924729Y-99736038D01*
X157236038Y-99424729D01*
X157480631Y-99058669D01*
X157649110Y-98651925D01*
X157735000Y-98220128D01*
X157735000Y-97779872D01*
X157649110Y-97348075D01*
X157480631Y-96941331D01*
X157236038Y-96575271D01*
X156924729Y-96263962D01*
X156558669Y-96019369D01*
X156151925Y-95850890D01*
X155720128Y-95765000D01*
X155279872Y-95765000D01*
X154848075Y-95850890D01*
X154441331Y-96019369D01*
X154075271Y-96263962D01*
X153763962Y-96575271D01*
X153519369Y-96941331D01*
X153350890Y-97348075D01*
X153265000Y-97779872D01*
X63885000Y-97779872D01*
X63885000Y-92725701D01*
X132215000Y-92725701D01*
X132215000Y-93274299D01*
X132322026Y-93812354D01*
X132531965Y-94319192D01*
X132836750Y-94775334D01*
X133224666Y-95163250D01*
X133680808Y-95468035D01*
X134187646Y-95677974D01*
X134725701Y-95785000D01*
X135274299Y-95785000D01*
X135812354Y-95677974D01*
X136319192Y-95468035D01*
X136775334Y-95163250D01*
X137163250Y-94775334D01*
X137468035Y-94319192D01*
X137677974Y-93812354D01*
X137785000Y-93274299D01*
X137785000Y-92725701D01*
X137677974Y-92187646D01*
X137468035Y-91680808D01*
X137163250Y-91224666D01*
X136775334Y-90836750D01*
X136319192Y-90531965D01*
X135812354Y-90322026D01*
X135274299Y-90215000D01*
X134725701Y-90215000D01*
X134187646Y-90322026D01*
X133680808Y-90531965D01*
X133224666Y-90836750D01*
X132836750Y-91224666D01*
X132531965Y-91680808D01*
X132322026Y-92187646D01*
X132215000Y-92725701D01*
X63885000Y-92725701D01*
X63885000Y-90288072D01*
X64261493Y-90288072D01*
X64455970Y-90482549D01*
X64483683Y-90516317D01*
X64517451Y-90544030D01*
X64517453Y-90544032D01*
X64588952Y-90602710D01*
X64618441Y-90626911D01*
X64772187Y-90709089D01*
X64939010Y-90759695D01*
X65069023Y-90772500D01*
X65069033Y-90772500D01*
X65112499Y-90776781D01*
X65155965Y-90772500D01*
X74069031Y-90772500D01*
X74112500Y-90776781D01*
X74155969Y-90772500D01*
X74155977Y-90772500D01*
X74285990Y-90759695D01*
X74452813Y-90709089D01*
X74606559Y-90626911D01*
X74741317Y-90516317D01*
X74769034Y-90482544D01*
X75595050Y-89656529D01*
X75628817Y-89628817D01*
X75684886Y-89560498D01*
X75739411Y-89494059D01*
X75821589Y-89340314D01*
X75872195Y-89173490D01*
X75883403Y-89059687D01*
X75885000Y-89043477D01*
X75885000Y-89043469D01*
X75889281Y-89000000D01*
X75885000Y-88956531D01*
X75885000Y-88872621D01*
X75994180Y-88839502D01*
X76104494Y-88780537D01*
X76150000Y-88743191D01*
X76195506Y-88780537D01*
X76305820Y-88839502D01*
X76425518Y-88875812D01*
X76550000Y-88888072D01*
X76723367Y-88888072D01*
X76763286Y-88936714D01*
X77012248Y-89141031D01*
X77296285Y-89292852D01*
X77604484Y-89386343D01*
X77844678Y-89410000D01*
X77844680Y-89410000D01*
X77924999Y-89417911D01*
X78005319Y-89410000D01*
X85011928Y-89410000D01*
X85011928Y-89650000D01*
X85024188Y-89774482D01*
X85060498Y-89894180D01*
X85119463Y-90004494D01*
X85198815Y-90101185D01*
X85295506Y-90180537D01*
X85405820Y-90239502D01*
X85525518Y-90275812D01*
X85650000Y-90288072D01*
X88350000Y-90288072D01*
X88474482Y-90275812D01*
X88594180Y-90239502D01*
X88704494Y-90180537D01*
X88801185Y-90101185D01*
X88880537Y-90004494D01*
X88939502Y-89894180D01*
X88975812Y-89774482D01*
X88988072Y-89650000D01*
X88988072Y-89410000D01*
X96144681Y-89410000D01*
X96225000Y-89417911D01*
X96305319Y-89410000D01*
X96305322Y-89410000D01*
X96545516Y-89386343D01*
X96853715Y-89292852D01*
X97137752Y-89141031D01*
X97386714Y-88936714D01*
X97437924Y-88874314D01*
X97674166Y-88638072D01*
X99000000Y-88638072D01*
X99124482Y-88625812D01*
X99244180Y-88589502D01*
X99354494Y-88530537D01*
X99451185Y-88451185D01*
X99530537Y-88354494D01*
X99589502Y-88244180D01*
X99625812Y-88124482D01*
X99638072Y-88000000D01*
X99638072Y-85000000D01*
X99625812Y-84875518D01*
X99589502Y-84755820D01*
X99530537Y-84645506D01*
X99451185Y-84548815D01*
X99354494Y-84469463D01*
X99244180Y-84410498D01*
X99124482Y-84374188D01*
X99000000Y-84361928D01*
X96000000Y-84361928D01*
X95875518Y-84374188D01*
X95755820Y-84410498D01*
X95645506Y-84469463D01*
X95548815Y-84548815D01*
X95469463Y-84645506D01*
X95410498Y-84755820D01*
X95374188Y-84875518D01*
X95361928Y-85000000D01*
X95361928Y-86140000D01*
X88988072Y-86140000D01*
X88988072Y-85900000D01*
X88975812Y-85775518D01*
X88939502Y-85655820D01*
X88880537Y-85545506D01*
X88801185Y-85448815D01*
X88704494Y-85369463D01*
X88594180Y-85310498D01*
X88474482Y-85274188D01*
X88350000Y-85261928D01*
X85650000Y-85261928D01*
X85525518Y-85274188D01*
X85405820Y-85310498D01*
X85295506Y-85369463D01*
X85198815Y-85448815D01*
X85119463Y-85545506D01*
X85060498Y-85655820D01*
X85024188Y-85775518D01*
X85011928Y-85900000D01*
X85011928Y-86140000D01*
X78688072Y-86140000D01*
X78688072Y-86050000D01*
X78675812Y-85925518D01*
X78639502Y-85805820D01*
X78580537Y-85695506D01*
X78501185Y-85598815D01*
X78404494Y-85519463D01*
X78294180Y-85460498D01*
X78174482Y-85424188D01*
X78050000Y-85411928D01*
X76550000Y-85411928D01*
X76425518Y-85424188D01*
X76305820Y-85460498D01*
X76195506Y-85519463D01*
X76150000Y-85556809D01*
X76104494Y-85519463D01*
X75994180Y-85460498D01*
X75885000Y-85427379D01*
X75885000Y-82911653D01*
X96187952Y-82911653D01*
X96343962Y-83227214D01*
X96718745Y-83418020D01*
X97123551Y-83532044D01*
X97542824Y-83564902D01*
X97960451Y-83515334D01*
X98360383Y-83385243D01*
X98656038Y-83227214D01*
X98812048Y-82911653D01*
X97500000Y-81599605D01*
X96187952Y-82911653D01*
X75885000Y-82911653D01*
X75885000Y-82588072D01*
X76900000Y-82588072D01*
X77024482Y-82575812D01*
X77144180Y-82539502D01*
X77254494Y-82480537D01*
X77351185Y-82401185D01*
X77430537Y-82304494D01*
X77489502Y-82194180D01*
X77518071Y-82100000D01*
X85011928Y-82100000D01*
X85024188Y-82224482D01*
X85060498Y-82344180D01*
X85119463Y-82454494D01*
X85198815Y-82551185D01*
X85295506Y-82630537D01*
X85405820Y-82689502D01*
X85525518Y-82725812D01*
X85650000Y-82738072D01*
X86714250Y-82735000D01*
X86873000Y-82576250D01*
X86873000Y-80352000D01*
X87127000Y-80352000D01*
X87127000Y-82576250D01*
X87285750Y-82735000D01*
X88350000Y-82738072D01*
X88474482Y-82725812D01*
X88594180Y-82689502D01*
X88704494Y-82630537D01*
X88801185Y-82551185D01*
X88880537Y-82454494D01*
X88939502Y-82344180D01*
X88975812Y-82224482D01*
X88988072Y-82100000D01*
X88986841Y-81462824D01*
X95355098Y-81462824D01*
X95404666Y-81880451D01*
X95534757Y-82280383D01*
X95692786Y-82576038D01*
X96008347Y-82732048D01*
X97320395Y-81420000D01*
X97679605Y-81420000D01*
X98991653Y-82732048D01*
X99307214Y-82576038D01*
X99498020Y-82201255D01*
X99612044Y-81796449D01*
X99644902Y-81377176D01*
X99595334Y-80959549D01*
X99465243Y-80559617D01*
X99307214Y-80263962D01*
X98991653Y-80107952D01*
X97679605Y-81420000D01*
X97320395Y-81420000D01*
X96008347Y-80107952D01*
X95692786Y-80263962D01*
X95501980Y-80638745D01*
X95387956Y-81043551D01*
X95355098Y-81462824D01*
X88986841Y-81462824D01*
X88985000Y-80510750D01*
X88826250Y-80352000D01*
X87127000Y-80352000D01*
X86873000Y-80352000D01*
X85173750Y-80352000D01*
X85015000Y-80510750D01*
X85011928Y-82100000D01*
X77518071Y-82100000D01*
X77525812Y-82074482D01*
X77538072Y-81950000D01*
X77538072Y-79750000D01*
X77525812Y-79625518D01*
X77489502Y-79505820D01*
X77430537Y-79395506D01*
X77351185Y-79298815D01*
X77254494Y-79219463D01*
X77144180Y-79160498D01*
X77024482Y-79124188D01*
X76900000Y-79111928D01*
X73100000Y-79111928D01*
X72975518Y-79124188D01*
X72855820Y-79160498D01*
X72745506Y-79219463D01*
X72648815Y-79298815D01*
X72569463Y-79395506D01*
X72510498Y-79505820D01*
X72474188Y-79625518D01*
X72461928Y-79750000D01*
X72461928Y-81950000D01*
X72474188Y-82074482D01*
X72510498Y-82194180D01*
X72569463Y-82304494D01*
X72648815Y-82401185D01*
X72745506Y-82480537D01*
X72855820Y-82539502D01*
X72975518Y-82575812D01*
X73100000Y-82588072D01*
X74115001Y-82588072D01*
X74115000Y-85427379D01*
X74005820Y-85460498D01*
X73895506Y-85519463D01*
X73850000Y-85556809D01*
X73804494Y-85519463D01*
X73694180Y-85460498D01*
X73574482Y-85424188D01*
X73450000Y-85411928D01*
X72985750Y-85415000D01*
X72827000Y-85573750D01*
X72827000Y-87023000D01*
X72847000Y-87023000D01*
X72847000Y-87277000D01*
X72827000Y-87277000D01*
X72827000Y-88726250D01*
X72985750Y-88885000D01*
X73450000Y-88888072D01*
X73574482Y-88875812D01*
X73694180Y-88839502D01*
X73804494Y-88780537D01*
X73850000Y-88743191D01*
X73895506Y-88780537D01*
X73942673Y-88805749D01*
X73745922Y-89002500D01*
X65479079Y-89002500D01*
X64988072Y-88511493D01*
X64988072Y-88250000D01*
X71311928Y-88250000D01*
X71324188Y-88374482D01*
X71360498Y-88494180D01*
X71419463Y-88604494D01*
X71498815Y-88701185D01*
X71595506Y-88780537D01*
X71705820Y-88839502D01*
X71825518Y-88875812D01*
X71950000Y-88888072D01*
X72414250Y-88885000D01*
X72573000Y-88726250D01*
X72573000Y-87277000D01*
X71473750Y-87277000D01*
X71315000Y-87435750D01*
X71311928Y-88250000D01*
X64988072Y-88250000D01*
X64988072Y-86050000D01*
X71311928Y-86050000D01*
X71315000Y-86864250D01*
X71473750Y-87023000D01*
X72573000Y-87023000D01*
X72573000Y-85573750D01*
X72414250Y-85415000D01*
X71950000Y-85411928D01*
X71825518Y-85424188D01*
X71705820Y-85460498D01*
X71595506Y-85519463D01*
X71498815Y-85598815D01*
X71419463Y-85695506D01*
X71360498Y-85805820D01*
X71324188Y-85925518D01*
X71311928Y-86050000D01*
X64988072Y-86050000D01*
X64988072Y-85900000D01*
X64975812Y-85775518D01*
X64939502Y-85655820D01*
X64880537Y-85545506D01*
X64801185Y-85448815D01*
X64704494Y-85369463D01*
X64594180Y-85310498D01*
X64474482Y-85274188D01*
X64350000Y-85261928D01*
X61738506Y-85261928D01*
X60881534Y-84404956D01*
X60853817Y-84371183D01*
X60719059Y-84260589D01*
X60565313Y-84178411D01*
X60398490Y-84127805D01*
X60268477Y-84115000D01*
X60268469Y-84115000D01*
X60225000Y-84110719D01*
X60181531Y-84115000D01*
X56484625Y-84115000D01*
X56475812Y-84025518D01*
X56439502Y-83905820D01*
X56380537Y-83795506D01*
X56301185Y-83698815D01*
X56204494Y-83619463D01*
X56094180Y-83560498D01*
X56013534Y-83536034D01*
X56097588Y-83460269D01*
X56271641Y-83226920D01*
X56396825Y-82964099D01*
X56441476Y-82816890D01*
X56320155Y-82587000D01*
X55127000Y-82587000D01*
X55127000Y-82607000D01*
X54873000Y-82607000D01*
X54873000Y-82587000D01*
X53679845Y-82587000D01*
X53558524Y-82816890D01*
X53603175Y-82964099D01*
X53728359Y-83226920D01*
X53902412Y-83460269D01*
X53986466Y-83536034D01*
X53905820Y-83560498D01*
X53795506Y-83619463D01*
X53698815Y-83698815D01*
X53619463Y-83795506D01*
X53594251Y-83842673D01*
X53385000Y-83633422D01*
X53385000Y-82103110D01*
X53558524Y-82103110D01*
X53679845Y-82333000D01*
X54873000Y-82333000D01*
X54873000Y-81139186D01*
X55127000Y-81139186D01*
X55127000Y-82333000D01*
X56320155Y-82333000D01*
X56441476Y-82103110D01*
X56440533Y-82100000D01*
X61011928Y-82100000D01*
X61024188Y-82224482D01*
X61060498Y-82344180D01*
X61119463Y-82454494D01*
X61198815Y-82551185D01*
X61295506Y-82630537D01*
X61405820Y-82689502D01*
X61525518Y-82725812D01*
X61650000Y-82738072D01*
X62714250Y-82735000D01*
X62873000Y-82576250D01*
X62873000Y-80352000D01*
X63127000Y-80352000D01*
X63127000Y-82576250D01*
X63285750Y-82735000D01*
X64350000Y-82738072D01*
X64474482Y-82725812D01*
X64594180Y-82689502D01*
X64704494Y-82630537D01*
X64801185Y-82551185D01*
X64880537Y-82454494D01*
X64939502Y-82344180D01*
X64975812Y-82224482D01*
X64988072Y-82100000D01*
X64985000Y-80510750D01*
X64826250Y-80352000D01*
X63127000Y-80352000D01*
X62873000Y-80352000D01*
X61173750Y-80352000D01*
X61015000Y-80510750D01*
X61011928Y-82100000D01*
X56440533Y-82100000D01*
X56396825Y-81955901D01*
X56271641Y-81693080D01*
X56097588Y-81459731D01*
X55881355Y-81264822D01*
X55631252Y-81115843D01*
X55356891Y-81018519D01*
X55127000Y-81139186D01*
X54873000Y-81139186D01*
X54643109Y-81018519D01*
X54368748Y-81115843D01*
X54118645Y-81264822D01*
X53902412Y-81459731D01*
X53728359Y-81693080D01*
X53603175Y-81955901D01*
X53558524Y-82103110D01*
X53385000Y-82103110D01*
X53385000Y-79543469D01*
X53389281Y-79500000D01*
X53385000Y-79456531D01*
X53385000Y-79456523D01*
X53372195Y-79326510D01*
X53339722Y-79219463D01*
X53321589Y-79159686D01*
X53239411Y-79005941D01*
X53156532Y-78904953D01*
X53156530Y-78904951D01*
X53128817Y-78871183D01*
X53095049Y-78843470D01*
X52601579Y-78350000D01*
X61011928Y-78350000D01*
X61015000Y-79939250D01*
X61173750Y-80098000D01*
X62873000Y-80098000D01*
X62873000Y-77873750D01*
X63127000Y-77873750D01*
X63127000Y-80098000D01*
X64826250Y-80098000D01*
X64985000Y-79939250D01*
X64988072Y-78350000D01*
X85011928Y-78350000D01*
X85015000Y-79939250D01*
X85173750Y-80098000D01*
X86873000Y-80098000D01*
X86873000Y-77873750D01*
X87127000Y-77873750D01*
X87127000Y-80098000D01*
X88826250Y-80098000D01*
X88985000Y-79939250D01*
X88985021Y-79928347D01*
X96187952Y-79928347D01*
X97500000Y-81240395D01*
X98812048Y-79928347D01*
X98656038Y-79612786D01*
X98281255Y-79421980D01*
X97876449Y-79307956D01*
X97457176Y-79275098D01*
X97039549Y-79324666D01*
X96639617Y-79454757D01*
X96343962Y-79612786D01*
X96187952Y-79928347D01*
X88985021Y-79928347D01*
X88988072Y-78350000D01*
X88975812Y-78225518D01*
X88939502Y-78105820D01*
X88880537Y-77995506D01*
X88801185Y-77898815D01*
X88704494Y-77819463D01*
X88594180Y-77760498D01*
X88474482Y-77724188D01*
X88350000Y-77711928D01*
X87285750Y-77715000D01*
X87127000Y-77873750D01*
X86873000Y-77873750D01*
X86714250Y-77715000D01*
X85650000Y-77711928D01*
X85525518Y-77724188D01*
X85405820Y-77760498D01*
X85295506Y-77819463D01*
X85198815Y-77898815D01*
X85119463Y-77995506D01*
X85060498Y-78105820D01*
X85024188Y-78225518D01*
X85011928Y-78350000D01*
X64988072Y-78350000D01*
X64975812Y-78225518D01*
X64939502Y-78105820D01*
X64880537Y-77995506D01*
X64801185Y-77898815D01*
X64704494Y-77819463D01*
X64594180Y-77760498D01*
X64474482Y-77724188D01*
X64350000Y-77711928D01*
X63285750Y-77715000D01*
X63127000Y-77873750D01*
X62873000Y-77873750D01*
X62714250Y-77715000D01*
X61650000Y-77711928D01*
X61525518Y-77724188D01*
X61405820Y-77760498D01*
X61295506Y-77819463D01*
X61198815Y-77898815D01*
X61119463Y-77995506D01*
X61060498Y-78105820D01*
X61024188Y-78225518D01*
X61011928Y-78350000D01*
X52601579Y-78350000D01*
X47656537Y-73404959D01*
X47656532Y-73404953D01*
X47656530Y-73404951D01*
X47628817Y-73371183D01*
X47595049Y-73343470D01*
X43385000Y-69133422D01*
X43385000Y-67404346D01*
X43639017Y-67658363D01*
X43988698Y-67892012D01*
X44377244Y-68052953D01*
X44789721Y-68135000D01*
X45210279Y-68135000D01*
X45622756Y-68052953D01*
X46011302Y-67892012D01*
X46360983Y-67658363D01*
X46658363Y-67360983D01*
X46892012Y-67011302D01*
X47052953Y-66622756D01*
X47135000Y-66210279D01*
X47135000Y-65789721D01*
X47865000Y-65789721D01*
X47865000Y-66210279D01*
X47947047Y-66622756D01*
X48107988Y-67011302D01*
X48341637Y-67360983D01*
X48639017Y-67658363D01*
X48988698Y-67892012D01*
X49377244Y-68052953D01*
X49789721Y-68135000D01*
X50210279Y-68135000D01*
X50622756Y-68052953D01*
X51011302Y-67892012D01*
X51360983Y-67658363D01*
X51658363Y-67360983D01*
X51892012Y-67011302D01*
X52052953Y-66622756D01*
X52135000Y-66210279D01*
X52135000Y-65789721D01*
X52052953Y-65377244D01*
X51892012Y-64988698D01*
X51658363Y-64639017D01*
X51360983Y-64341637D01*
X51011302Y-64107988D01*
X50622756Y-63947047D01*
X50210279Y-63865000D01*
X49789721Y-63865000D01*
X49377244Y-63947047D01*
X48988698Y-64107988D01*
X48639017Y-64341637D01*
X48341637Y-64639017D01*
X48107988Y-64988698D01*
X47947047Y-65377244D01*
X47865000Y-65789721D01*
X47135000Y-65789721D01*
X47052953Y-65377244D01*
X46892012Y-64988698D01*
X46658363Y-64639017D01*
X46360983Y-64341637D01*
X46011302Y-64107988D01*
X45622756Y-63947047D01*
X45210279Y-63865000D01*
X44789721Y-63865000D01*
X44377244Y-63947047D01*
X43988698Y-64107988D01*
X43639017Y-64341637D01*
X43385000Y-64595654D01*
X43385000Y-62225701D01*
X55215000Y-62225701D01*
X55215000Y-62774299D01*
X55322026Y-63312354D01*
X55531965Y-63819192D01*
X55836750Y-64275334D01*
X56224666Y-64663250D01*
X56680808Y-64968035D01*
X57187646Y-65177974D01*
X57725701Y-65285000D01*
X58274299Y-65285000D01*
X58812354Y-65177974D01*
X59319192Y-64968035D01*
X59775334Y-64663250D01*
X60163250Y-64275334D01*
X60468035Y-63819192D01*
X60677974Y-63312354D01*
X60785000Y-62774299D01*
X60785000Y-62225701D01*
X60677974Y-61687646D01*
X60468035Y-61180808D01*
X60163250Y-60724666D01*
X59775334Y-60336750D01*
X59319192Y-60031965D01*
X58812354Y-59822026D01*
X58274299Y-59715000D01*
X57725701Y-59715000D01*
X57187646Y-59822026D01*
X56680808Y-60031965D01*
X56224666Y-60336750D01*
X55836750Y-60724666D01*
X55531965Y-61180808D01*
X55322026Y-61687646D01*
X55215000Y-62225701D01*
X43385000Y-62225701D01*
X43385000Y-59991653D01*
X43687952Y-59991653D01*
X43843962Y-60307214D01*
X44218745Y-60498020D01*
X44623551Y-60612044D01*
X45042824Y-60644902D01*
X45460451Y-60595334D01*
X45860383Y-60465243D01*
X46156038Y-60307214D01*
X46312048Y-59991653D01*
X45000000Y-58679605D01*
X43687952Y-59991653D01*
X43385000Y-59991653D01*
X43385000Y-59751067D01*
X43508347Y-59812048D01*
X44820395Y-58500000D01*
X45179605Y-58500000D01*
X46491653Y-59812048D01*
X46807214Y-59656038D01*
X46998020Y-59281255D01*
X47112044Y-58876449D01*
X47144902Y-58457176D01*
X47125027Y-58289721D01*
X47865000Y-58289721D01*
X47865000Y-58710279D01*
X47947047Y-59122756D01*
X48107988Y-59511302D01*
X48341637Y-59860983D01*
X48639017Y-60158363D01*
X48988698Y-60392012D01*
X49377244Y-60552953D01*
X49789721Y-60635000D01*
X50210279Y-60635000D01*
X50622756Y-60552953D01*
X51011302Y-60392012D01*
X51360983Y-60158363D01*
X51658363Y-59860983D01*
X51892012Y-59511302D01*
X52052953Y-59122756D01*
X52135000Y-58710279D01*
X52135000Y-58289721D01*
X52052953Y-57877244D01*
X51892012Y-57488698D01*
X51658363Y-57139017D01*
X51360983Y-56841637D01*
X51011302Y-56607988D01*
X50622756Y-56447047D01*
X50210279Y-56365000D01*
X49789721Y-56365000D01*
X49377244Y-56447047D01*
X48988698Y-56607988D01*
X48639017Y-56841637D01*
X48341637Y-57139017D01*
X48107988Y-57488698D01*
X47947047Y-57877244D01*
X47865000Y-58289721D01*
X47125027Y-58289721D01*
X47095334Y-58039549D01*
X46965243Y-57639617D01*
X46807214Y-57343962D01*
X46491653Y-57187952D01*
X45179605Y-58500000D01*
X44820395Y-58500000D01*
X43508347Y-57187952D01*
X43385000Y-57248933D01*
X43385000Y-57008347D01*
X43687952Y-57008347D01*
X45000000Y-58320395D01*
X46312048Y-57008347D01*
X46156038Y-56692786D01*
X45781255Y-56501980D01*
X45376449Y-56387956D01*
X44957176Y-56355098D01*
X44539549Y-56404666D01*
X44139617Y-56534757D01*
X43843962Y-56692786D01*
X43687952Y-57008347D01*
X43385000Y-57008347D01*
X43385000Y-42000000D01*
X95361928Y-42000000D01*
X95361928Y-45000000D01*
X95374188Y-45124482D01*
X95410498Y-45244180D01*
X95469463Y-45354494D01*
X95548815Y-45451185D01*
X95645506Y-45530537D01*
X95755820Y-45589502D01*
X95875518Y-45625812D01*
X96000000Y-45638072D01*
X99000000Y-45638072D01*
X99124482Y-45625812D01*
X99244180Y-45589502D01*
X99354494Y-45530537D01*
X99451185Y-45451185D01*
X99530537Y-45354494D01*
X99589502Y-45244180D01*
X99625812Y-45124482D01*
X99638072Y-45000000D01*
X99638072Y-42000000D01*
X99625812Y-41875518D01*
X99589502Y-41755820D01*
X99530537Y-41645506D01*
X99451185Y-41548815D01*
X99354494Y-41469463D01*
X99244180Y-41410498D01*
X99124482Y-41374188D01*
X99000000Y-41361928D01*
X96000000Y-41361928D01*
X95875518Y-41374188D01*
X95755820Y-41410498D01*
X95645506Y-41469463D01*
X95548815Y-41548815D01*
X95469463Y-41645506D01*
X95410498Y-41755820D01*
X95374188Y-41875518D01*
X95361928Y-42000000D01*
X43385000Y-42000000D01*
X43385000Y-39366578D01*
X43506531Y-39245047D01*
X44124033Y-38627546D01*
X44124037Y-38627541D01*
X45016579Y-37735000D01*
X47227379Y-37735000D01*
X47260498Y-37844180D01*
X47319463Y-37954494D01*
X47398815Y-38051185D01*
X47495506Y-38130537D01*
X47605820Y-38189502D01*
X47725518Y-38225812D01*
X47850000Y-38238072D01*
X49150000Y-38238072D01*
X49274482Y-38225812D01*
X49394180Y-38189502D01*
X49504494Y-38130537D01*
X49601185Y-38051185D01*
X49680537Y-37954494D01*
X49739502Y-37844180D01*
X49750000Y-37809573D01*
X49760498Y-37844180D01*
X49819463Y-37954494D01*
X49898815Y-38051185D01*
X49995506Y-38130537D01*
X50105820Y-38189502D01*
X50225518Y-38225812D01*
X50350000Y-38238072D01*
X51650000Y-38238072D01*
X51774482Y-38225812D01*
X51827526Y-38209721D01*
X95365000Y-38209721D01*
X95365000Y-38630279D01*
X95447047Y-39042756D01*
X95607988Y-39431302D01*
X95841637Y-39780983D01*
X96139017Y-40078363D01*
X96488698Y-40312012D01*
X96877244Y-40472953D01*
X97289721Y-40555000D01*
X97710279Y-40555000D01*
X98122756Y-40472953D01*
X98511302Y-40312012D01*
X98860983Y-40078363D01*
X99158363Y-39780983D01*
X99392012Y-39431302D01*
X99552953Y-39042756D01*
X99635000Y-38630279D01*
X99635000Y-38209721D01*
X99552953Y-37797244D01*
X99392012Y-37408698D01*
X99158363Y-37059017D01*
X98860983Y-36761637D01*
X98511302Y-36527988D01*
X98122756Y-36367047D01*
X97710279Y-36285000D01*
X97289721Y-36285000D01*
X96877244Y-36367047D01*
X96488698Y-36527988D01*
X96139017Y-36761637D01*
X95841637Y-37059017D01*
X95607988Y-37408698D01*
X95447047Y-37797244D01*
X95365000Y-38209721D01*
X51827526Y-38209721D01*
X51894180Y-38189502D01*
X52004494Y-38130537D01*
X52101185Y-38051185D01*
X52180537Y-37954494D01*
X52239502Y-37844180D01*
X52275812Y-37724482D01*
X52288072Y-37600000D01*
X52288072Y-36100000D01*
X52275812Y-35975518D01*
X52239502Y-35855820D01*
X52180537Y-35745506D01*
X52101185Y-35648815D01*
X52004494Y-35569463D01*
X51894180Y-35510498D01*
X51859573Y-35500000D01*
X51894180Y-35489502D01*
X52004494Y-35430537D01*
X52101185Y-35351185D01*
X52180537Y-35254494D01*
X52239502Y-35144180D01*
X52275812Y-35024482D01*
X52288072Y-34900000D01*
X52288072Y-33400000D01*
X52275812Y-33275518D01*
X52239502Y-33155820D01*
X52180537Y-33045506D01*
X52101185Y-32948815D01*
X52004494Y-32869463D01*
X51894180Y-32810498D01*
X51774482Y-32774188D01*
X51760000Y-32772762D01*
X51760000Y-31725701D01*
X132215000Y-31725701D01*
X132215000Y-32274299D01*
X132322026Y-32812354D01*
X132531965Y-33319192D01*
X132836750Y-33775334D01*
X133224666Y-34163250D01*
X133680808Y-34468035D01*
X134187646Y-34677974D01*
X134725701Y-34785000D01*
X135274299Y-34785000D01*
X135812354Y-34677974D01*
X136319192Y-34468035D01*
X136775334Y-34163250D01*
X137163250Y-33775334D01*
X137468035Y-33319192D01*
X137677974Y-32812354D01*
X137785000Y-32274299D01*
X137785000Y-31725701D01*
X137677974Y-31187646D01*
X137468035Y-30680808D01*
X137163250Y-30224666D01*
X136775334Y-29836750D01*
X136319192Y-29531965D01*
X135812354Y-29322026D01*
X135274299Y-29215000D01*
X134725701Y-29215000D01*
X134187646Y-29322026D01*
X133680808Y-29531965D01*
X133224666Y-29836750D01*
X132836750Y-30224666D01*
X132531965Y-30680808D01*
X132322026Y-31187646D01*
X132215000Y-31725701D01*
X51760000Y-31725701D01*
X51760000Y-27779872D01*
X60765000Y-27779872D01*
X60765000Y-28220128D01*
X60850890Y-28651925D01*
X61019369Y-29058669D01*
X61263962Y-29424729D01*
X61575271Y-29736038D01*
X61941331Y-29980631D01*
X62348075Y-30149110D01*
X62779872Y-30235000D01*
X63220128Y-30235000D01*
X63651925Y-30149110D01*
X64058669Y-29980631D01*
X64424729Y-29736038D01*
X64736038Y-29424729D01*
X64980631Y-29058669D01*
X65149110Y-28651925D01*
X65235000Y-28220128D01*
X65235000Y-27779872D01*
X65149110Y-27348075D01*
X64980631Y-26941331D01*
X64736038Y-26575271D01*
X64424729Y-26263962D01*
X64058669Y-26019369D01*
X63651925Y-25850890D01*
X63220128Y-25765000D01*
X62779872Y-25765000D01*
X62348075Y-25850890D01*
X61941331Y-26019369D01*
X61575271Y-26263962D01*
X61263962Y-26575271D01*
X61019369Y-26941331D01*
X60850890Y-27348075D01*
X60765000Y-27779872D01*
X51760000Y-27779872D01*
X51760000Y-25325687D01*
X51783411Y-25315990D01*
X52026632Y-25153475D01*
X52233475Y-24946632D01*
X52350000Y-24772240D01*
X52466525Y-24946632D01*
X52673368Y-25153475D01*
X52916589Y-25315990D01*
X53186842Y-25427932D01*
X53473740Y-25485000D01*
X53766260Y-25485000D01*
X54053158Y-25427932D01*
X54323411Y-25315990D01*
X54566632Y-25153475D01*
X54773475Y-24946632D01*
X54895195Y-24764466D01*
X54964822Y-24881355D01*
X55159731Y-25097588D01*
X55393080Y-25271641D01*
X55655901Y-25396825D01*
X55803110Y-25441476D01*
X56033000Y-25320155D01*
X56033000Y-24127000D01*
X56287000Y-24127000D01*
X56287000Y-25320155D01*
X56516890Y-25441476D01*
X56664099Y-25396825D01*
X56926920Y-25271641D01*
X57160269Y-25097588D01*
X57355178Y-24881355D01*
X57504157Y-24631252D01*
X57601481Y-24356891D01*
X57480814Y-24127000D01*
X56287000Y-24127000D01*
X56033000Y-24127000D01*
X56013000Y-24127000D01*
X56013000Y-23873000D01*
X56033000Y-23873000D01*
X56033000Y-22679845D01*
X56287000Y-22679845D01*
X56287000Y-23873000D01*
X57480814Y-23873000D01*
X57601481Y-23643109D01*
X57504157Y-23368748D01*
X57355178Y-23118645D01*
X57160269Y-22902412D01*
X56926920Y-22728359D01*
X56664099Y-22603175D01*
X56516890Y-22558524D01*
X56287000Y-22679845D01*
X56033000Y-22679845D01*
X55803110Y-22558524D01*
X55655901Y-22603175D01*
X55393080Y-22728359D01*
X55159731Y-22902412D01*
X54964822Y-23118645D01*
X54895195Y-23235534D01*
X54773475Y-23053368D01*
X54566632Y-22846525D01*
X54323411Y-22684010D01*
X54053158Y-22572068D01*
X53766260Y-22515000D01*
X53473740Y-22515000D01*
X53186842Y-22572068D01*
X52916589Y-22684010D01*
X52673368Y-22846525D01*
X52466525Y-23053368D01*
X52350000Y-23227760D01*
X52233475Y-23053368D01*
X52026632Y-22846525D01*
X51840000Y-22721822D01*
X51840000Y-22117325D01*
X51843676Y-22080000D01*
X51840000Y-22042675D01*
X51840000Y-22042667D01*
X51829003Y-21931014D01*
X51785546Y-21787753D01*
X51714974Y-21655724D01*
X51620001Y-21539999D01*
X51591003Y-21516201D01*
X50734801Y-20660000D01*
X157967721Y-20660000D01*
X158259659Y-20688625D01*
G04 #@! TA.AperFunction,Conductor*
D28*
G36*
X158259659Y-20688625D02*
G01*
X158509429Y-20764035D01*
X158739792Y-20886522D01*
X158941980Y-21051422D01*
X159108286Y-21252450D01*
X159232378Y-21481954D01*
X159309531Y-21731195D01*
X159340000Y-22021088D01*
X159340001Y-102967711D01*
X159311375Y-103259660D01*
X159235965Y-103509429D01*
X159113477Y-103739794D01*
X158948579Y-103941979D01*
X158747546Y-104108288D01*
X158518046Y-104232378D01*
X158268805Y-104309531D01*
X157978911Y-104340000D01*
X61411578Y-104340000D01*
X63595050Y-102156529D01*
X63628817Y-102128817D01*
X63657244Y-102094180D01*
X63739411Y-101994059D01*
X63764761Y-101946632D01*
X63821589Y-101840313D01*
X63872195Y-101673490D01*
X63885000Y-101543477D01*
X63885000Y-101543469D01*
X63889281Y-101500000D01*
X63885000Y-101456531D01*
X63885000Y-100043469D01*
X63889281Y-100000000D01*
X63885000Y-99956531D01*
X63885000Y-97779872D01*
X153265000Y-97779872D01*
X153265000Y-98220128D01*
X153350890Y-98651925D01*
X153519369Y-99058669D01*
X153763962Y-99424729D01*
X154075271Y-99736038D01*
X154441331Y-99980631D01*
X154848075Y-100149110D01*
X155279872Y-100235000D01*
X155720128Y-100235000D01*
X156151925Y-100149110D01*
X156558669Y-99980631D01*
X156924729Y-99736038D01*
X157236038Y-99424729D01*
X157480631Y-99058669D01*
X157649110Y-98651925D01*
X157735000Y-98220128D01*
X157735000Y-97779872D01*
X157649110Y-97348075D01*
X157480631Y-96941331D01*
X157236038Y-96575271D01*
X156924729Y-96263962D01*
X156558669Y-96019369D01*
X156151925Y-95850890D01*
X155720128Y-95765000D01*
X155279872Y-95765000D01*
X154848075Y-95850890D01*
X154441331Y-96019369D01*
X154075271Y-96263962D01*
X153763962Y-96575271D01*
X153519369Y-96941331D01*
X153350890Y-97348075D01*
X153265000Y-97779872D01*
X63885000Y-97779872D01*
X63885000Y-92725701D01*
X132215000Y-92725701D01*
X132215000Y-93274299D01*
X132322026Y-93812354D01*
X132531965Y-94319192D01*
X132836750Y-94775334D01*
X133224666Y-95163250D01*
X133680808Y-95468035D01*
X134187646Y-95677974D01*
X134725701Y-95785000D01*
X135274299Y-95785000D01*
X135812354Y-95677974D01*
X136319192Y-95468035D01*
X136775334Y-95163250D01*
X137163250Y-94775334D01*
X137468035Y-94319192D01*
X137677974Y-93812354D01*
X137785000Y-93274299D01*
X137785000Y-92725701D01*
X137677974Y-92187646D01*
X137468035Y-91680808D01*
X137163250Y-91224666D01*
X136775334Y-90836750D01*
X136319192Y-90531965D01*
X135812354Y-90322026D01*
X135274299Y-90215000D01*
X134725701Y-90215000D01*
X134187646Y-90322026D01*
X133680808Y-90531965D01*
X133224666Y-90836750D01*
X132836750Y-91224666D01*
X132531965Y-91680808D01*
X132322026Y-92187646D01*
X132215000Y-92725701D01*
X63885000Y-92725701D01*
X63885000Y-90288072D01*
X64261493Y-90288072D01*
X64455970Y-90482549D01*
X64483683Y-90516317D01*
X64517451Y-90544030D01*
X64517453Y-90544032D01*
X64588952Y-90602710D01*
X64618441Y-90626911D01*
X64772187Y-90709089D01*
X64939010Y-90759695D01*
X65069023Y-90772500D01*
X65069033Y-90772500D01*
X65112499Y-90776781D01*
X65155965Y-90772500D01*
X74069031Y-90772500D01*
X74112500Y-90776781D01*
X74155969Y-90772500D01*
X74155977Y-90772500D01*
X74285990Y-90759695D01*
X74452813Y-90709089D01*
X74606559Y-90626911D01*
X74741317Y-90516317D01*
X74769034Y-90482544D01*
X75595050Y-89656529D01*
X75628817Y-89628817D01*
X75684886Y-89560498D01*
X75739411Y-89494059D01*
X75821589Y-89340314D01*
X75872195Y-89173490D01*
X75883403Y-89059687D01*
X75885000Y-89043477D01*
X75885000Y-89043469D01*
X75889281Y-89000000D01*
X75885000Y-88956531D01*
X75885000Y-88872621D01*
X75994180Y-88839502D01*
X76104494Y-88780537D01*
X76150000Y-88743191D01*
X76195506Y-88780537D01*
X76305820Y-88839502D01*
X76425518Y-88875812D01*
X76550000Y-88888072D01*
X76723367Y-88888072D01*
X76763286Y-88936714D01*
X77012248Y-89141031D01*
X77296285Y-89292852D01*
X77604484Y-89386343D01*
X77844678Y-89410000D01*
X77844680Y-89410000D01*
X77924999Y-89417911D01*
X78005319Y-89410000D01*
X85011928Y-89410000D01*
X85011928Y-89650000D01*
X85024188Y-89774482D01*
X85060498Y-89894180D01*
X85119463Y-90004494D01*
X85198815Y-90101185D01*
X85295506Y-90180537D01*
X85405820Y-90239502D01*
X85525518Y-90275812D01*
X85650000Y-90288072D01*
X88350000Y-90288072D01*
X88474482Y-90275812D01*
X88594180Y-90239502D01*
X88704494Y-90180537D01*
X88801185Y-90101185D01*
X88880537Y-90004494D01*
X88939502Y-89894180D01*
X88975812Y-89774482D01*
X88988072Y-89650000D01*
X88988072Y-89410000D01*
X96144681Y-89410000D01*
X96225000Y-89417911D01*
X96305319Y-89410000D01*
X96305322Y-89410000D01*
X96545516Y-89386343D01*
X96853715Y-89292852D01*
X97137752Y-89141031D01*
X97386714Y-88936714D01*
X97437924Y-88874314D01*
X97674166Y-88638072D01*
X99000000Y-88638072D01*
X99124482Y-88625812D01*
X99244180Y-88589502D01*
X99354494Y-88530537D01*
X99451185Y-88451185D01*
X99530537Y-88354494D01*
X99589502Y-88244180D01*
X99625812Y-88124482D01*
X99638072Y-88000000D01*
X99638072Y-85000000D01*
X99625812Y-84875518D01*
X99589502Y-84755820D01*
X99530537Y-84645506D01*
X99451185Y-84548815D01*
X99354494Y-84469463D01*
X99244180Y-84410498D01*
X99124482Y-84374188D01*
X99000000Y-84361928D01*
X96000000Y-84361928D01*
X95875518Y-84374188D01*
X95755820Y-84410498D01*
X95645506Y-84469463D01*
X95548815Y-84548815D01*
X95469463Y-84645506D01*
X95410498Y-84755820D01*
X95374188Y-84875518D01*
X95361928Y-85000000D01*
X95361928Y-86140000D01*
X88988072Y-86140000D01*
X88988072Y-85900000D01*
X88975812Y-85775518D01*
X88939502Y-85655820D01*
X88880537Y-85545506D01*
X88801185Y-85448815D01*
X88704494Y-85369463D01*
X88594180Y-85310498D01*
X88474482Y-85274188D01*
X88350000Y-85261928D01*
X85650000Y-85261928D01*
X85525518Y-85274188D01*
X85405820Y-85310498D01*
X85295506Y-85369463D01*
X85198815Y-85448815D01*
X85119463Y-85545506D01*
X85060498Y-85655820D01*
X85024188Y-85775518D01*
X85011928Y-85900000D01*
X85011928Y-86140000D01*
X78688072Y-86140000D01*
X78688072Y-86050000D01*
X78675812Y-85925518D01*
X78639502Y-85805820D01*
X78580537Y-85695506D01*
X78501185Y-85598815D01*
X78404494Y-85519463D01*
X78294180Y-85460498D01*
X78174482Y-85424188D01*
X78050000Y-85411928D01*
X76550000Y-85411928D01*
X76425518Y-85424188D01*
X76305820Y-85460498D01*
X76195506Y-85519463D01*
X76150000Y-85556809D01*
X76104494Y-85519463D01*
X75994180Y-85460498D01*
X75885000Y-85427379D01*
X75885000Y-82911653D01*
X96187952Y-82911653D01*
X96343962Y-83227214D01*
X96718745Y-83418020D01*
X97123551Y-83532044D01*
X97542824Y-83564902D01*
X97960451Y-83515334D01*
X98360383Y-83385243D01*
X98656038Y-83227214D01*
X98812048Y-82911653D01*
X97500000Y-81599605D01*
X96187952Y-82911653D01*
X75885000Y-82911653D01*
X75885000Y-82588072D01*
X76900000Y-82588072D01*
X77024482Y-82575812D01*
X77144180Y-82539502D01*
X77254494Y-82480537D01*
X77351185Y-82401185D01*
X77430537Y-82304494D01*
X77489502Y-82194180D01*
X77518071Y-82100000D01*
X85011928Y-82100000D01*
X85024188Y-82224482D01*
X85060498Y-82344180D01*
X85119463Y-82454494D01*
X85198815Y-82551185D01*
X85295506Y-82630537D01*
X85405820Y-82689502D01*
X85525518Y-82725812D01*
X85650000Y-82738072D01*
X86714250Y-82735000D01*
X86873000Y-82576250D01*
X86873000Y-80352000D01*
X87127000Y-80352000D01*
X87127000Y-82576250D01*
X87285750Y-82735000D01*
X88350000Y-82738072D01*
X88474482Y-82725812D01*
X88594180Y-82689502D01*
X88704494Y-82630537D01*
X88801185Y-82551185D01*
X88880537Y-82454494D01*
X88939502Y-82344180D01*
X88975812Y-82224482D01*
X88988072Y-82100000D01*
X88986841Y-81462824D01*
X95355098Y-81462824D01*
X95404666Y-81880451D01*
X95534757Y-82280383D01*
X95692786Y-82576038D01*
X96008347Y-82732048D01*
X97320395Y-81420000D01*
X97679605Y-81420000D01*
X98991653Y-82732048D01*
X99307214Y-82576038D01*
X99498020Y-82201255D01*
X99612044Y-81796449D01*
X99644902Y-81377176D01*
X99595334Y-80959549D01*
X99465243Y-80559617D01*
X99307214Y-80263962D01*
X98991653Y-80107952D01*
X97679605Y-81420000D01*
X97320395Y-81420000D01*
X96008347Y-80107952D01*
X95692786Y-80263962D01*
X95501980Y-80638745D01*
X95387956Y-81043551D01*
X95355098Y-81462824D01*
X88986841Y-81462824D01*
X88985000Y-80510750D01*
X88826250Y-80352000D01*
X87127000Y-80352000D01*
X86873000Y-80352000D01*
X85173750Y-80352000D01*
X85015000Y-80510750D01*
X85011928Y-82100000D01*
X77518071Y-82100000D01*
X77525812Y-82074482D01*
X77538072Y-81950000D01*
X77538072Y-79750000D01*
X77525812Y-79625518D01*
X77489502Y-79505820D01*
X77430537Y-79395506D01*
X77351185Y-79298815D01*
X77254494Y-79219463D01*
X77144180Y-79160498D01*
X77024482Y-79124188D01*
X76900000Y-79111928D01*
X73100000Y-79111928D01*
X72975518Y-79124188D01*
X72855820Y-79160498D01*
X72745506Y-79219463D01*
X72648815Y-79298815D01*
X72569463Y-79395506D01*
X72510498Y-79505820D01*
X72474188Y-79625518D01*
X72461928Y-79750000D01*
X72461928Y-81950000D01*
X72474188Y-82074482D01*
X72510498Y-82194180D01*
X72569463Y-82304494D01*
X72648815Y-82401185D01*
X72745506Y-82480537D01*
X72855820Y-82539502D01*
X72975518Y-82575812D01*
X73100000Y-82588072D01*
X74115001Y-82588072D01*
X74115000Y-85427379D01*
X74005820Y-85460498D01*
X73895506Y-85519463D01*
X73850000Y-85556809D01*
X73804494Y-85519463D01*
X73694180Y-85460498D01*
X73574482Y-85424188D01*
X73450000Y-85411928D01*
X72985750Y-85415000D01*
X72827000Y-85573750D01*
X72827000Y-87023000D01*
X72847000Y-87023000D01*
X72847000Y-87277000D01*
X72827000Y-87277000D01*
X72827000Y-88726250D01*
X72985750Y-88885000D01*
X73450000Y-88888072D01*
X73574482Y-88875812D01*
X73694180Y-88839502D01*
X73804494Y-88780537D01*
X73850000Y-88743191D01*
X73895506Y-88780537D01*
X73942673Y-88805749D01*
X73745922Y-89002500D01*
X65479079Y-89002500D01*
X64988072Y-88511493D01*
X64988072Y-88250000D01*
X71311928Y-88250000D01*
X71324188Y-88374482D01*
X71360498Y-88494180D01*
X71419463Y-88604494D01*
X71498815Y-88701185D01*
X71595506Y-88780537D01*
X71705820Y-88839502D01*
X71825518Y-88875812D01*
X71950000Y-88888072D01*
X72414250Y-88885000D01*
X72573000Y-88726250D01*
X72573000Y-87277000D01*
X71473750Y-87277000D01*
X71315000Y-87435750D01*
X71311928Y-88250000D01*
X64988072Y-88250000D01*
X64988072Y-86050000D01*
X71311928Y-86050000D01*
X71315000Y-86864250D01*
X71473750Y-87023000D01*
X72573000Y-87023000D01*
X72573000Y-85573750D01*
X72414250Y-85415000D01*
X71950000Y-85411928D01*
X71825518Y-85424188D01*
X71705820Y-85460498D01*
X71595506Y-85519463D01*
X71498815Y-85598815D01*
X71419463Y-85695506D01*
X71360498Y-85805820D01*
X71324188Y-85925518D01*
X71311928Y-86050000D01*
X64988072Y-86050000D01*
X64988072Y-85900000D01*
X64975812Y-85775518D01*
X64939502Y-85655820D01*
X64880537Y-85545506D01*
X64801185Y-85448815D01*
X64704494Y-85369463D01*
X64594180Y-85310498D01*
X64474482Y-85274188D01*
X64350000Y-85261928D01*
X61738506Y-85261928D01*
X60881534Y-84404956D01*
X60853817Y-84371183D01*
X60719059Y-84260589D01*
X60565313Y-84178411D01*
X60398490Y-84127805D01*
X60268477Y-84115000D01*
X60268469Y-84115000D01*
X60225000Y-84110719D01*
X60181531Y-84115000D01*
X56484625Y-84115000D01*
X56475812Y-84025518D01*
X56439502Y-83905820D01*
X56380537Y-83795506D01*
X56301185Y-83698815D01*
X56204494Y-83619463D01*
X56094180Y-83560498D01*
X56013534Y-83536034D01*
X56097588Y-83460269D01*
X56271641Y-83226920D01*
X56396825Y-82964099D01*
X56441476Y-82816890D01*
X56320155Y-82587000D01*
X55127000Y-82587000D01*
X55127000Y-82607000D01*
X54873000Y-82607000D01*
X54873000Y-82587000D01*
X53679845Y-82587000D01*
X53558524Y-82816890D01*
X53603175Y-82964099D01*
X53728359Y-83226920D01*
X53902412Y-83460269D01*
X53986466Y-83536034D01*
X53905820Y-83560498D01*
X53795506Y-83619463D01*
X53698815Y-83698815D01*
X53619463Y-83795506D01*
X53594251Y-83842673D01*
X53385000Y-83633422D01*
X53385000Y-82103110D01*
X53558524Y-82103110D01*
X53679845Y-82333000D01*
X54873000Y-82333000D01*
X54873000Y-81139186D01*
X55127000Y-81139186D01*
X55127000Y-82333000D01*
X56320155Y-82333000D01*
X56441476Y-82103110D01*
X56440533Y-82100000D01*
X61011928Y-82100000D01*
X61024188Y-82224482D01*
X61060498Y-82344180D01*
X61119463Y-82454494D01*
X61198815Y-82551185D01*
X61295506Y-82630537D01*
X61405820Y-82689502D01*
X61525518Y-82725812D01*
X61650000Y-82738072D01*
X62714250Y-82735000D01*
X62873000Y-82576250D01*
X62873000Y-80352000D01*
X63127000Y-80352000D01*
X63127000Y-82576250D01*
X63285750Y-82735000D01*
X64350000Y-82738072D01*
X64474482Y-82725812D01*
X64594180Y-82689502D01*
X64704494Y-82630537D01*
X64801185Y-82551185D01*
X64880537Y-82454494D01*
X64939502Y-82344180D01*
X64975812Y-82224482D01*
X64988072Y-82100000D01*
X64985000Y-80510750D01*
X64826250Y-80352000D01*
X63127000Y-80352000D01*
X62873000Y-80352000D01*
X61173750Y-80352000D01*
X61015000Y-80510750D01*
X61011928Y-82100000D01*
X56440533Y-82100000D01*
X56396825Y-81955901D01*
X56271641Y-81693080D01*
X56097588Y-81459731D01*
X55881355Y-81264822D01*
X55631252Y-81115843D01*
X55356891Y-81018519D01*
X55127000Y-81139186D01*
X54873000Y-81139186D01*
X54643109Y-81018519D01*
X54368748Y-81115843D01*
X54118645Y-81264822D01*
X53902412Y-81459731D01*
X53728359Y-81693080D01*
X53603175Y-81955901D01*
X53558524Y-82103110D01*
X53385000Y-82103110D01*
X53385000Y-79543469D01*
X53389281Y-79500000D01*
X53385000Y-79456531D01*
X53385000Y-79456523D01*
X53372195Y-79326510D01*
X53339722Y-79219463D01*
X53321589Y-79159686D01*
X53239411Y-79005941D01*
X53156532Y-78904953D01*
X53156530Y-78904951D01*
X53128817Y-78871183D01*
X53095049Y-78843470D01*
X52601579Y-78350000D01*
X61011928Y-78350000D01*
X61015000Y-79939250D01*
X61173750Y-80098000D01*
X62873000Y-80098000D01*
X62873000Y-77873750D01*
X63127000Y-77873750D01*
X63127000Y-80098000D01*
X64826250Y-80098000D01*
X64985000Y-79939250D01*
X64988072Y-78350000D01*
X85011928Y-78350000D01*
X85015000Y-79939250D01*
X85173750Y-80098000D01*
X86873000Y-80098000D01*
X86873000Y-77873750D01*
X87127000Y-77873750D01*
X87127000Y-80098000D01*
X88826250Y-80098000D01*
X88985000Y-79939250D01*
X88985021Y-79928347D01*
X96187952Y-79928347D01*
X97500000Y-81240395D01*
X98812048Y-79928347D01*
X98656038Y-79612786D01*
X98281255Y-79421980D01*
X97876449Y-79307956D01*
X97457176Y-79275098D01*
X97039549Y-79324666D01*
X96639617Y-79454757D01*
X96343962Y-79612786D01*
X96187952Y-79928347D01*
X88985021Y-79928347D01*
X88988072Y-78350000D01*
X88975812Y-78225518D01*
X88939502Y-78105820D01*
X88880537Y-77995506D01*
X88801185Y-77898815D01*
X88704494Y-77819463D01*
X88594180Y-77760498D01*
X88474482Y-77724188D01*
X88350000Y-77711928D01*
X87285750Y-77715000D01*
X87127000Y-77873750D01*
X86873000Y-77873750D01*
X86714250Y-77715000D01*
X85650000Y-77711928D01*
X85525518Y-77724188D01*
X85405820Y-77760498D01*
X85295506Y-77819463D01*
X85198815Y-77898815D01*
X85119463Y-77995506D01*
X85060498Y-78105820D01*
X85024188Y-78225518D01*
X85011928Y-78350000D01*
X64988072Y-78350000D01*
X64975812Y-78225518D01*
X64939502Y-78105820D01*
X64880537Y-77995506D01*
X64801185Y-77898815D01*
X64704494Y-77819463D01*
X64594180Y-77760498D01*
X64474482Y-77724188D01*
X64350000Y-77711928D01*
X63285750Y-77715000D01*
X63127000Y-77873750D01*
X62873000Y-77873750D01*
X62714250Y-77715000D01*
X61650000Y-77711928D01*
X61525518Y-77724188D01*
X61405820Y-77760498D01*
X61295506Y-77819463D01*
X61198815Y-77898815D01*
X61119463Y-77995506D01*
X61060498Y-78105820D01*
X61024188Y-78225518D01*
X61011928Y-78350000D01*
X52601579Y-78350000D01*
X47656537Y-73404959D01*
X47656532Y-73404953D01*
X47656530Y-73404951D01*
X47628817Y-73371183D01*
X47595049Y-73343470D01*
X43385000Y-69133422D01*
X43385000Y-67404346D01*
X43639017Y-67658363D01*
X43988698Y-67892012D01*
X44377244Y-68052953D01*
X44789721Y-68135000D01*
X45210279Y-68135000D01*
X45622756Y-68052953D01*
X46011302Y-67892012D01*
X46360983Y-67658363D01*
X46658363Y-67360983D01*
X46892012Y-67011302D01*
X47052953Y-66622756D01*
X47135000Y-66210279D01*
X47135000Y-65789721D01*
X47865000Y-65789721D01*
X47865000Y-66210279D01*
X47947047Y-66622756D01*
X48107988Y-67011302D01*
X48341637Y-67360983D01*
X48639017Y-67658363D01*
X48988698Y-67892012D01*
X49377244Y-68052953D01*
X49789721Y-68135000D01*
X50210279Y-68135000D01*
X50622756Y-68052953D01*
X51011302Y-67892012D01*
X51360983Y-67658363D01*
X51658363Y-67360983D01*
X51892012Y-67011302D01*
X52052953Y-66622756D01*
X52135000Y-66210279D01*
X52135000Y-65789721D01*
X52052953Y-65377244D01*
X51892012Y-64988698D01*
X51658363Y-64639017D01*
X51360983Y-64341637D01*
X51011302Y-64107988D01*
X50622756Y-63947047D01*
X50210279Y-63865000D01*
X49789721Y-63865000D01*
X49377244Y-63947047D01*
X48988698Y-64107988D01*
X48639017Y-64341637D01*
X48341637Y-64639017D01*
X48107988Y-64988698D01*
X47947047Y-65377244D01*
X47865000Y-65789721D01*
X47135000Y-65789721D01*
X47052953Y-65377244D01*
X46892012Y-64988698D01*
X46658363Y-64639017D01*
X46360983Y-64341637D01*
X46011302Y-64107988D01*
X45622756Y-63947047D01*
X45210279Y-63865000D01*
X44789721Y-63865000D01*
X44377244Y-63947047D01*
X43988698Y-64107988D01*
X43639017Y-64341637D01*
X43385000Y-64595654D01*
X43385000Y-62225701D01*
X55215000Y-62225701D01*
X55215000Y-62774299D01*
X55322026Y-63312354D01*
X55531965Y-63819192D01*
X55836750Y-64275334D01*
X56224666Y-64663250D01*
X56680808Y-64968035D01*
X57187646Y-65177974D01*
X57725701Y-65285000D01*
X58274299Y-65285000D01*
X58812354Y-65177974D01*
X59319192Y-64968035D01*
X59775334Y-64663250D01*
X60163250Y-64275334D01*
X60468035Y-63819192D01*
X60677974Y-63312354D01*
X60785000Y-62774299D01*
X60785000Y-62225701D01*
X60677974Y-61687646D01*
X60468035Y-61180808D01*
X60163250Y-60724666D01*
X59775334Y-60336750D01*
X59319192Y-60031965D01*
X58812354Y-59822026D01*
X58274299Y-59715000D01*
X57725701Y-59715000D01*
X57187646Y-59822026D01*
X56680808Y-60031965D01*
X56224666Y-60336750D01*
X55836750Y-60724666D01*
X55531965Y-61180808D01*
X55322026Y-61687646D01*
X55215000Y-62225701D01*
X43385000Y-62225701D01*
X43385000Y-59991653D01*
X43687952Y-59991653D01*
X43843962Y-60307214D01*
X44218745Y-60498020D01*
X44623551Y-60612044D01*
X45042824Y-60644902D01*
X45460451Y-60595334D01*
X45860383Y-60465243D01*
X46156038Y-60307214D01*
X46312048Y-59991653D01*
X45000000Y-58679605D01*
X43687952Y-59991653D01*
X43385000Y-59991653D01*
X43385000Y-59751067D01*
X43508347Y-59812048D01*
X44820395Y-58500000D01*
X45179605Y-58500000D01*
X46491653Y-59812048D01*
X46807214Y-59656038D01*
X46998020Y-59281255D01*
X47112044Y-58876449D01*
X47144902Y-58457176D01*
X47125027Y-58289721D01*
X47865000Y-58289721D01*
X47865000Y-58710279D01*
X47947047Y-59122756D01*
X48107988Y-59511302D01*
X48341637Y-59860983D01*
X48639017Y-60158363D01*
X48988698Y-60392012D01*
X49377244Y-60552953D01*
X49789721Y-60635000D01*
X50210279Y-60635000D01*
X50622756Y-60552953D01*
X51011302Y-60392012D01*
X51360983Y-60158363D01*
X51658363Y-59860983D01*
X51892012Y-59511302D01*
X52052953Y-59122756D01*
X52135000Y-58710279D01*
X52135000Y-58289721D01*
X52052953Y-57877244D01*
X51892012Y-57488698D01*
X51658363Y-57139017D01*
X51360983Y-56841637D01*
X51011302Y-56607988D01*
X50622756Y-56447047D01*
X50210279Y-56365000D01*
X49789721Y-56365000D01*
X49377244Y-56447047D01*
X48988698Y-56607988D01*
X48639017Y-56841637D01*
X48341637Y-57139017D01*
X48107988Y-57488698D01*
X47947047Y-57877244D01*
X47865000Y-58289721D01*
X47125027Y-58289721D01*
X47095334Y-58039549D01*
X46965243Y-57639617D01*
X46807214Y-57343962D01*
X46491653Y-57187952D01*
X45179605Y-58500000D01*
X44820395Y-58500000D01*
X43508347Y-57187952D01*
X43385000Y-57248933D01*
X43385000Y-57008347D01*
X43687952Y-57008347D01*
X45000000Y-58320395D01*
X46312048Y-57008347D01*
X46156038Y-56692786D01*
X45781255Y-56501980D01*
X45376449Y-56387956D01*
X44957176Y-56355098D01*
X44539549Y-56404666D01*
X44139617Y-56534757D01*
X43843962Y-56692786D01*
X43687952Y-57008347D01*
X43385000Y-57008347D01*
X43385000Y-42000000D01*
X95361928Y-42000000D01*
X95361928Y-45000000D01*
X95374188Y-45124482D01*
X95410498Y-45244180D01*
X95469463Y-45354494D01*
X95548815Y-45451185D01*
X95645506Y-45530537D01*
X95755820Y-45589502D01*
X95875518Y-45625812D01*
X96000000Y-45638072D01*
X99000000Y-45638072D01*
X99124482Y-45625812D01*
X99244180Y-45589502D01*
X99354494Y-45530537D01*
X99451185Y-45451185D01*
X99530537Y-45354494D01*
X99589502Y-45244180D01*
X99625812Y-45124482D01*
X99638072Y-45000000D01*
X99638072Y-42000000D01*
X99625812Y-41875518D01*
X99589502Y-41755820D01*
X99530537Y-41645506D01*
X99451185Y-41548815D01*
X99354494Y-41469463D01*
X99244180Y-41410498D01*
X99124482Y-41374188D01*
X99000000Y-41361928D01*
X96000000Y-41361928D01*
X95875518Y-41374188D01*
X95755820Y-41410498D01*
X95645506Y-41469463D01*
X95548815Y-41548815D01*
X95469463Y-41645506D01*
X95410498Y-41755820D01*
X95374188Y-41875518D01*
X95361928Y-42000000D01*
X43385000Y-42000000D01*
X43385000Y-39366578D01*
X43506531Y-39245047D01*
X44124033Y-38627546D01*
X44124037Y-38627541D01*
X45016579Y-37735000D01*
X47227379Y-37735000D01*
X47260498Y-37844180D01*
X47319463Y-37954494D01*
X47398815Y-38051185D01*
X47495506Y-38130537D01*
X47605820Y-38189502D01*
X47725518Y-38225812D01*
X47850000Y-38238072D01*
X49150000Y-38238072D01*
X49274482Y-38225812D01*
X49394180Y-38189502D01*
X49504494Y-38130537D01*
X49601185Y-38051185D01*
X49680537Y-37954494D01*
X49739502Y-37844180D01*
X49750000Y-37809573D01*
X49760498Y-37844180D01*
X49819463Y-37954494D01*
X49898815Y-38051185D01*
X49995506Y-38130537D01*
X50105820Y-38189502D01*
X50225518Y-38225812D01*
X50350000Y-38238072D01*
X51650000Y-38238072D01*
X51774482Y-38225812D01*
X51827526Y-38209721D01*
X95365000Y-38209721D01*
X95365000Y-38630279D01*
X95447047Y-39042756D01*
X95607988Y-39431302D01*
X95841637Y-39780983D01*
X96139017Y-40078363D01*
X96488698Y-40312012D01*
X96877244Y-40472953D01*
X97289721Y-40555000D01*
X97710279Y-40555000D01*
X98122756Y-40472953D01*
X98511302Y-40312012D01*
X98860983Y-40078363D01*
X99158363Y-39780983D01*
X99392012Y-39431302D01*
X99552953Y-39042756D01*
X99635000Y-38630279D01*
X99635000Y-38209721D01*
X99552953Y-37797244D01*
X99392012Y-37408698D01*
X99158363Y-37059017D01*
X98860983Y-36761637D01*
X98511302Y-36527988D01*
X98122756Y-36367047D01*
X97710279Y-36285000D01*
X97289721Y-36285000D01*
X96877244Y-36367047D01*
X96488698Y-36527988D01*
X96139017Y-36761637D01*
X95841637Y-37059017D01*
X95607988Y-37408698D01*
X95447047Y-37797244D01*
X95365000Y-38209721D01*
X51827526Y-38209721D01*
X51894180Y-38189502D01*
X52004494Y-38130537D01*
X52101185Y-38051185D01*
X52180537Y-37954494D01*
X52239502Y-37844180D01*
X52275812Y-37724482D01*
X52288072Y-37600000D01*
X52288072Y-36100000D01*
X52275812Y-35975518D01*
X52239502Y-35855820D01*
X52180537Y-35745506D01*
X52101185Y-35648815D01*
X52004494Y-35569463D01*
X51894180Y-35510498D01*
X51859573Y-35500000D01*
X51894180Y-35489502D01*
X52004494Y-35430537D01*
X52101185Y-35351185D01*
X52180537Y-35254494D01*
X52239502Y-35144180D01*
X52275812Y-35024482D01*
X52288072Y-34900000D01*
X52288072Y-33400000D01*
X52275812Y-33275518D01*
X52239502Y-33155820D01*
X52180537Y-33045506D01*
X52101185Y-32948815D01*
X52004494Y-32869463D01*
X51894180Y-32810498D01*
X51774482Y-32774188D01*
X51760000Y-32772762D01*
X51760000Y-31725701D01*
X132215000Y-31725701D01*
X132215000Y-32274299D01*
X132322026Y-32812354D01*
X132531965Y-33319192D01*
X132836750Y-33775334D01*
X133224666Y-34163250D01*
X133680808Y-34468035D01*
X134187646Y-34677974D01*
X134725701Y-34785000D01*
X135274299Y-34785000D01*
X135812354Y-34677974D01*
X136319192Y-34468035D01*
X136775334Y-34163250D01*
X137163250Y-33775334D01*
X137468035Y-33319192D01*
X137677974Y-32812354D01*
X137785000Y-32274299D01*
X137785000Y-31725701D01*
X137677974Y-31187646D01*
X137468035Y-30680808D01*
X137163250Y-30224666D01*
X136775334Y-29836750D01*
X136319192Y-29531965D01*
X135812354Y-29322026D01*
X135274299Y-29215000D01*
X134725701Y-29215000D01*
X134187646Y-29322026D01*
X133680808Y-29531965D01*
X133224666Y-29836750D01*
X132836750Y-30224666D01*
X132531965Y-30680808D01*
X132322026Y-31187646D01*
X132215000Y-31725701D01*
X51760000Y-31725701D01*
X51760000Y-27779872D01*
X60765000Y-27779872D01*
X60765000Y-28220128D01*
X60850890Y-28651925D01*
X61019369Y-29058669D01*
X61263962Y-29424729D01*
X61575271Y-29736038D01*
X61941331Y-29980631D01*
X62348075Y-30149110D01*
X62779872Y-30235000D01*
X63220128Y-30235000D01*
X63651925Y-30149110D01*
X64058669Y-29980631D01*
X64424729Y-29736038D01*
X64736038Y-29424729D01*
X64980631Y-29058669D01*
X65149110Y-28651925D01*
X65235000Y-28220128D01*
X65235000Y-27779872D01*
X65149110Y-27348075D01*
X64980631Y-26941331D01*
X64736038Y-26575271D01*
X64424729Y-26263962D01*
X64058669Y-26019369D01*
X63651925Y-25850890D01*
X63220128Y-25765000D01*
X62779872Y-25765000D01*
X62348075Y-25850890D01*
X61941331Y-26019369D01*
X61575271Y-26263962D01*
X61263962Y-26575271D01*
X61019369Y-26941331D01*
X60850890Y-27348075D01*
X60765000Y-27779872D01*
X51760000Y-27779872D01*
X51760000Y-25325687D01*
X51783411Y-25315990D01*
X52026632Y-25153475D01*
X52233475Y-24946632D01*
X52350000Y-24772240D01*
X52466525Y-24946632D01*
X52673368Y-25153475D01*
X52916589Y-25315990D01*
X53186842Y-25427932D01*
X53473740Y-25485000D01*
X53766260Y-25485000D01*
X54053158Y-25427932D01*
X54323411Y-25315990D01*
X54566632Y-25153475D01*
X54773475Y-24946632D01*
X54895195Y-24764466D01*
X54964822Y-24881355D01*
X55159731Y-25097588D01*
X55393080Y-25271641D01*
X55655901Y-25396825D01*
X55803110Y-25441476D01*
X56033000Y-25320155D01*
X56033000Y-24127000D01*
X56287000Y-24127000D01*
X56287000Y-25320155D01*
X56516890Y-25441476D01*
X56664099Y-25396825D01*
X56926920Y-25271641D01*
X57160269Y-25097588D01*
X57355178Y-24881355D01*
X57504157Y-24631252D01*
X57601481Y-24356891D01*
X57480814Y-24127000D01*
X56287000Y-24127000D01*
X56033000Y-24127000D01*
X56013000Y-24127000D01*
X56013000Y-23873000D01*
X56033000Y-23873000D01*
X56033000Y-22679845D01*
X56287000Y-22679845D01*
X56287000Y-23873000D01*
X57480814Y-23873000D01*
X57601481Y-23643109D01*
X57504157Y-23368748D01*
X57355178Y-23118645D01*
X57160269Y-22902412D01*
X56926920Y-22728359D01*
X56664099Y-22603175D01*
X56516890Y-22558524D01*
X56287000Y-22679845D01*
X56033000Y-22679845D01*
X55803110Y-22558524D01*
X55655901Y-22603175D01*
X55393080Y-22728359D01*
X55159731Y-22902412D01*
X54964822Y-23118645D01*
X54895195Y-23235534D01*
X54773475Y-23053368D01*
X54566632Y-22846525D01*
X54323411Y-22684010D01*
X54053158Y-22572068D01*
X53766260Y-22515000D01*
X53473740Y-22515000D01*
X53186842Y-22572068D01*
X52916589Y-22684010D01*
X52673368Y-22846525D01*
X52466525Y-23053368D01*
X52350000Y-23227760D01*
X52233475Y-23053368D01*
X52026632Y-22846525D01*
X51840000Y-22721822D01*
X51840000Y-22117325D01*
X51843676Y-22080000D01*
X51840000Y-22042675D01*
X51840000Y-22042667D01*
X51829003Y-21931014D01*
X51785546Y-21787753D01*
X51714974Y-21655724D01*
X51620001Y-21539999D01*
X51591003Y-21516201D01*
X50734801Y-20660000D01*
X157967721Y-20660000D01*
X158259659Y-20688625D01*
G37*
G04 #@! TD.AperFunction*
D27*
X48240000Y-83314802D02*
X48240001Y-85962667D01*
X48236324Y-86000000D01*
X48240001Y-86037333D01*
X48250998Y-86148986D01*
X48256307Y-86166487D01*
X48294454Y-86292246D01*
X48365026Y-86424276D01*
X48427173Y-86500001D01*
X48460000Y-86540001D01*
X48488998Y-86563799D01*
X49440001Y-87514803D01*
X49440000Y-97608039D01*
X49353158Y-97572068D01*
X49066260Y-97515000D01*
X48773740Y-97515000D01*
X48486842Y-97572068D01*
X48216589Y-97684010D01*
X47973368Y-97846525D01*
X47766525Y-98053368D01*
X47604010Y-98296589D01*
X47492068Y-98566842D01*
X47435000Y-98853740D01*
X47435000Y-99146260D01*
X47492068Y-99433158D01*
X47604010Y-99703411D01*
X47766525Y-99946632D01*
X47973368Y-100153475D01*
X48149406Y-100271100D01*
X47919731Y-100442412D01*
X47724822Y-100658645D01*
X47575843Y-100908748D01*
X47478519Y-101183109D01*
X47599186Y-101413000D01*
X48793000Y-101413000D01*
X48793000Y-101393000D01*
X49047000Y-101393000D01*
X49047000Y-101413000D01*
X49067000Y-101413000D01*
X49067000Y-101667000D01*
X49047000Y-101667000D01*
X49047000Y-102860155D01*
X49276890Y-102981476D01*
X49424099Y-102936825D01*
X49686920Y-102811641D01*
X49920269Y-102637588D01*
X50115178Y-102421355D01*
X50184805Y-102304466D01*
X50306525Y-102486632D01*
X50513368Y-102693475D01*
X50756589Y-102855990D01*
X51026842Y-102967932D01*
X51313740Y-103025000D01*
X51606260Y-103025000D01*
X51893158Y-102967932D01*
X52163411Y-102855990D01*
X52406632Y-102693475D01*
X52613475Y-102486632D01*
X52730000Y-102312240D01*
X52846525Y-102486632D01*
X53053368Y-102693475D01*
X53296589Y-102855990D01*
X53566842Y-102967932D01*
X53853740Y-103025000D01*
X54146260Y-103025000D01*
X54433158Y-102967932D01*
X54703411Y-102855990D01*
X54946632Y-102693475D01*
X55153475Y-102486632D01*
X55194656Y-102425000D01*
X60823422Y-102425000D01*
X60133422Y-103115000D01*
X45866579Y-103115000D01*
X45385000Y-102633422D01*
X45385000Y-101896891D01*
X47478519Y-101896891D01*
X47575843Y-102171252D01*
X47724822Y-102421355D01*
X47919731Y-102637588D01*
X48153080Y-102811641D01*
X48415901Y-102936825D01*
X48563110Y-102981476D01*
X48793000Y-102860155D01*
X48793000Y-101667000D01*
X47599186Y-101667000D01*
X47478519Y-101896891D01*
X45385000Y-101896891D01*
X45385000Y-99543469D01*
X45389281Y-99500000D01*
X45385000Y-99456531D01*
X45385000Y-99456523D01*
X45372195Y-99326510D01*
X45321589Y-99159687D01*
X45239411Y-99005941D01*
X45156532Y-98904953D01*
X45156530Y-98904951D01*
X45128817Y-98871183D01*
X45095050Y-98843471D01*
X41635000Y-95383422D01*
X41635000Y-92747621D01*
X41744180Y-92714502D01*
X41854494Y-92655537D01*
X41951185Y-92576185D01*
X42000000Y-92516704D01*
X42048815Y-92576185D01*
X42145506Y-92655537D01*
X42255820Y-92714502D01*
X42375518Y-92750812D01*
X42500000Y-92763072D01*
X42964250Y-92760000D01*
X43123000Y-92601250D01*
X43123000Y-91627000D01*
X43377000Y-91627000D01*
X43377000Y-92601250D01*
X43535750Y-92760000D01*
X44000000Y-92763072D01*
X44124482Y-92750812D01*
X44244180Y-92714502D01*
X44354494Y-92655537D01*
X44451185Y-92576185D01*
X44530537Y-92479494D01*
X44589502Y-92369180D01*
X44625812Y-92249482D01*
X44638072Y-92125000D01*
X44635000Y-91785750D01*
X44476250Y-91627000D01*
X43377000Y-91627000D01*
X43123000Y-91627000D01*
X43103000Y-91627000D01*
X43103000Y-91373000D01*
X43123000Y-91373000D01*
X43123000Y-90398750D01*
X43377000Y-90398750D01*
X43377000Y-91373000D01*
X44476250Y-91373000D01*
X44635000Y-91214250D01*
X44638072Y-90875000D01*
X44625812Y-90750518D01*
X44589502Y-90630820D01*
X44530537Y-90520506D01*
X44451185Y-90423815D01*
X44354494Y-90344463D01*
X44244180Y-90285498D01*
X44124482Y-90249188D01*
X44000000Y-90236928D01*
X43535750Y-90240000D01*
X43377000Y-90398750D01*
X43123000Y-90398750D01*
X42964250Y-90240000D01*
X42500000Y-90236928D01*
X42375518Y-90249188D01*
X42255820Y-90285498D01*
X42145506Y-90344463D01*
X42048815Y-90423815D01*
X42000000Y-90483296D01*
X41951185Y-90423815D01*
X41883396Y-90368182D01*
X42195049Y-90056530D01*
X42228817Y-90028817D01*
X42283106Y-89962667D01*
X42339411Y-89894059D01*
X42421589Y-89740314D01*
X42472195Y-89573490D01*
X42473475Y-89560498D01*
X42485000Y-89443477D01*
X42485000Y-89443469D01*
X42489281Y-89400000D01*
X42485000Y-89356531D01*
X42485000Y-88985000D01*
X42527002Y-88985000D01*
X42527002Y-88865351D01*
X42545506Y-88880537D01*
X42622375Y-88921625D01*
X42685750Y-88985000D01*
X42700000Y-88988072D01*
X42800000Y-88978223D01*
X42900000Y-88988072D01*
X43500000Y-88988072D01*
X43600000Y-88978223D01*
X43700000Y-88988072D01*
X44300000Y-88988072D01*
X44400000Y-88978223D01*
X44500000Y-88988072D01*
X45100000Y-88988072D01*
X45224482Y-88975812D01*
X45344180Y-88939502D01*
X45454494Y-88880537D01*
X45551185Y-88801185D01*
X45630537Y-88704494D01*
X45689502Y-88594180D01*
X45725812Y-88474482D01*
X45738072Y-88350000D01*
X45738072Y-87238072D01*
X46850000Y-87238072D01*
X46974482Y-87225812D01*
X47094180Y-87189502D01*
X47204494Y-87130537D01*
X47301185Y-87051185D01*
X47380537Y-86954494D01*
X47439502Y-86844180D01*
X47475812Y-86724482D01*
X47488072Y-86600000D01*
X47488072Y-86000000D01*
X47478223Y-85900000D01*
X47488072Y-85800000D01*
X47488072Y-85200000D01*
X47478223Y-85100000D01*
X47488072Y-85000000D01*
X47488072Y-84400000D01*
X47478223Y-84300000D01*
X47488072Y-84200000D01*
X47488072Y-83600000D01*
X47478223Y-83500000D01*
X47488072Y-83400000D01*
X47488072Y-82800000D01*
X47478223Y-82700000D01*
X47488072Y-82600000D01*
X47488072Y-82562873D01*
X48240000Y-83314802D01*
G04 #@! TA.AperFunction,Conductor*
D28*
G36*
X48240000Y-83314802D02*
G01*
X48240001Y-85962667D01*
X48236324Y-86000000D01*
X48240001Y-86037333D01*
X48250998Y-86148986D01*
X48256307Y-86166487D01*
X48294454Y-86292246D01*
X48365026Y-86424276D01*
X48427173Y-86500001D01*
X48460000Y-86540001D01*
X48488998Y-86563799D01*
X49440001Y-87514803D01*
X49440000Y-97608039D01*
X49353158Y-97572068D01*
X49066260Y-97515000D01*
X48773740Y-97515000D01*
X48486842Y-97572068D01*
X48216589Y-97684010D01*
X47973368Y-97846525D01*
X47766525Y-98053368D01*
X47604010Y-98296589D01*
X47492068Y-98566842D01*
X47435000Y-98853740D01*
X47435000Y-99146260D01*
X47492068Y-99433158D01*
X47604010Y-99703411D01*
X47766525Y-99946632D01*
X47973368Y-100153475D01*
X48149406Y-100271100D01*
X47919731Y-100442412D01*
X47724822Y-100658645D01*
X47575843Y-100908748D01*
X47478519Y-101183109D01*
X47599186Y-101413000D01*
X48793000Y-101413000D01*
X48793000Y-101393000D01*
X49047000Y-101393000D01*
X49047000Y-101413000D01*
X49067000Y-101413000D01*
X49067000Y-101667000D01*
X49047000Y-101667000D01*
X49047000Y-102860155D01*
X49276890Y-102981476D01*
X49424099Y-102936825D01*
X49686920Y-102811641D01*
X49920269Y-102637588D01*
X50115178Y-102421355D01*
X50184805Y-102304466D01*
X50306525Y-102486632D01*
X50513368Y-102693475D01*
X50756589Y-102855990D01*
X51026842Y-102967932D01*
X51313740Y-103025000D01*
X51606260Y-103025000D01*
X51893158Y-102967932D01*
X52163411Y-102855990D01*
X52406632Y-102693475D01*
X52613475Y-102486632D01*
X52730000Y-102312240D01*
X52846525Y-102486632D01*
X53053368Y-102693475D01*
X53296589Y-102855990D01*
X53566842Y-102967932D01*
X53853740Y-103025000D01*
X54146260Y-103025000D01*
X54433158Y-102967932D01*
X54703411Y-102855990D01*
X54946632Y-102693475D01*
X55153475Y-102486632D01*
X55194656Y-102425000D01*
X60823422Y-102425000D01*
X60133422Y-103115000D01*
X45866579Y-103115000D01*
X45385000Y-102633422D01*
X45385000Y-101896891D01*
X47478519Y-101896891D01*
X47575843Y-102171252D01*
X47724822Y-102421355D01*
X47919731Y-102637588D01*
X48153080Y-102811641D01*
X48415901Y-102936825D01*
X48563110Y-102981476D01*
X48793000Y-102860155D01*
X48793000Y-101667000D01*
X47599186Y-101667000D01*
X47478519Y-101896891D01*
X45385000Y-101896891D01*
X45385000Y-99543469D01*
X45389281Y-99500000D01*
X45385000Y-99456531D01*
X45385000Y-99456523D01*
X45372195Y-99326510D01*
X45321589Y-99159687D01*
X45239411Y-99005941D01*
X45156532Y-98904953D01*
X45156530Y-98904951D01*
X45128817Y-98871183D01*
X45095050Y-98843471D01*
X41635000Y-95383422D01*
X41635000Y-92747621D01*
X41744180Y-92714502D01*
X41854494Y-92655537D01*
X41951185Y-92576185D01*
X42000000Y-92516704D01*
X42048815Y-92576185D01*
X42145506Y-92655537D01*
X42255820Y-92714502D01*
X42375518Y-92750812D01*
X42500000Y-92763072D01*
X42964250Y-92760000D01*
X43123000Y-92601250D01*
X43123000Y-91627000D01*
X43377000Y-91627000D01*
X43377000Y-92601250D01*
X43535750Y-92760000D01*
X44000000Y-92763072D01*
X44124482Y-92750812D01*
X44244180Y-92714502D01*
X44354494Y-92655537D01*
X44451185Y-92576185D01*
X44530537Y-92479494D01*
X44589502Y-92369180D01*
X44625812Y-92249482D01*
X44638072Y-92125000D01*
X44635000Y-91785750D01*
X44476250Y-91627000D01*
X43377000Y-91627000D01*
X43123000Y-91627000D01*
X43103000Y-91627000D01*
X43103000Y-91373000D01*
X43123000Y-91373000D01*
X43123000Y-90398750D01*
X43377000Y-90398750D01*
X43377000Y-91373000D01*
X44476250Y-91373000D01*
X44635000Y-91214250D01*
X44638072Y-90875000D01*
X44625812Y-90750518D01*
X44589502Y-90630820D01*
X44530537Y-90520506D01*
X44451185Y-90423815D01*
X44354494Y-90344463D01*
X44244180Y-90285498D01*
X44124482Y-90249188D01*
X44000000Y-90236928D01*
X43535750Y-90240000D01*
X43377000Y-90398750D01*
X43123000Y-90398750D01*
X42964250Y-90240000D01*
X42500000Y-90236928D01*
X42375518Y-90249188D01*
X42255820Y-90285498D01*
X42145506Y-90344463D01*
X42048815Y-90423815D01*
X42000000Y-90483296D01*
X41951185Y-90423815D01*
X41883396Y-90368182D01*
X42195049Y-90056530D01*
X42228817Y-90028817D01*
X42283106Y-89962667D01*
X42339411Y-89894059D01*
X42421589Y-89740314D01*
X42472195Y-89573490D01*
X42473475Y-89560498D01*
X42485000Y-89443477D01*
X42485000Y-89443469D01*
X42489281Y-89400000D01*
X42485000Y-89356531D01*
X42485000Y-88985000D01*
X42527002Y-88985000D01*
X42527002Y-88865351D01*
X42545506Y-88880537D01*
X42622375Y-88921625D01*
X42685750Y-88985000D01*
X42700000Y-88988072D01*
X42800000Y-88978223D01*
X42900000Y-88988072D01*
X43500000Y-88988072D01*
X43600000Y-88978223D01*
X43700000Y-88988072D01*
X44300000Y-88988072D01*
X44400000Y-88978223D01*
X44500000Y-88988072D01*
X45100000Y-88988072D01*
X45224482Y-88975812D01*
X45344180Y-88939502D01*
X45454494Y-88880537D01*
X45551185Y-88801185D01*
X45630537Y-88704494D01*
X45689502Y-88594180D01*
X45725812Y-88474482D01*
X45738072Y-88350000D01*
X45738072Y-87238072D01*
X46850000Y-87238072D01*
X46974482Y-87225812D01*
X47094180Y-87189502D01*
X47204494Y-87130537D01*
X47301185Y-87051185D01*
X47380537Y-86954494D01*
X47439502Y-86844180D01*
X47475812Y-86724482D01*
X47488072Y-86600000D01*
X47488072Y-86000000D01*
X47478223Y-85900000D01*
X47488072Y-85800000D01*
X47488072Y-85200000D01*
X47478223Y-85100000D01*
X47488072Y-85000000D01*
X47488072Y-84400000D01*
X47478223Y-84300000D01*
X47488072Y-84200000D01*
X47488072Y-83600000D01*
X47478223Y-83500000D01*
X47488072Y-83400000D01*
X47488072Y-82800000D01*
X47478223Y-82700000D01*
X47488072Y-82600000D01*
X47488072Y-82562873D01*
X48240000Y-83314802D01*
G37*
G04 #@! TD.AperFunction*
D27*
X31510498Y-80894180D02*
X31569463Y-81004494D01*
X31648815Y-81101185D01*
X31745506Y-81180537D01*
X31855820Y-81239502D01*
X31975518Y-81275812D01*
X32090000Y-81287087D01*
X32090001Y-82736928D01*
X32000000Y-82736928D01*
X31875518Y-82749188D01*
X31755820Y-82785498D01*
X31645506Y-82844463D01*
X31548815Y-82923815D01*
X31500000Y-82983296D01*
X31451185Y-82923815D01*
X31354494Y-82844463D01*
X31244180Y-82785498D01*
X31124482Y-82749188D01*
X31000000Y-82736928D01*
X30535750Y-82740000D01*
X30377000Y-82898750D01*
X30377000Y-83873000D01*
X30397000Y-83873000D01*
X30397000Y-84127000D01*
X30377000Y-84127000D01*
X30377000Y-85101250D01*
X30535750Y-85260000D01*
X31000000Y-85263072D01*
X31124482Y-85250812D01*
X31244180Y-85214502D01*
X31354494Y-85155537D01*
X31451185Y-85076185D01*
X31500000Y-85016704D01*
X31548815Y-85076185D01*
X31645506Y-85155537D01*
X31755820Y-85214502D01*
X31875518Y-85250812D01*
X32000000Y-85263072D01*
X33500000Y-85263072D01*
X33624482Y-85250812D01*
X33744180Y-85214502D01*
X33854494Y-85155537D01*
X33951185Y-85076185D01*
X34030537Y-84979494D01*
X34089502Y-84869180D01*
X34125812Y-84749482D01*
X34134625Y-84660000D01*
X35265198Y-84660000D01*
X34489003Y-85436196D01*
X34459999Y-85459999D01*
X34421354Y-85507089D01*
X34365026Y-85575724D01*
X34321833Y-85656532D01*
X34294454Y-85707754D01*
X34250997Y-85851015D01*
X34240000Y-85962668D01*
X34240000Y-85962678D01*
X34236324Y-86000000D01*
X34240000Y-86037322D01*
X34240001Y-99665015D01*
X34198815Y-99698815D01*
X34119463Y-99795506D01*
X34060498Y-99905820D01*
X34024188Y-100025518D01*
X34011928Y-100150000D01*
X34011928Y-101850000D01*
X34024188Y-101974482D01*
X34060498Y-102094180D01*
X34119463Y-102204494D01*
X34198815Y-102301185D01*
X34295506Y-102380537D01*
X34405820Y-102439502D01*
X34525518Y-102475812D01*
X34650000Y-102488072D01*
X36350000Y-102488072D01*
X36474482Y-102475812D01*
X36594180Y-102439502D01*
X36704494Y-102380537D01*
X36801185Y-102301185D01*
X36880537Y-102204494D01*
X36939502Y-102094180D01*
X36961513Y-102021620D01*
X37093368Y-102153475D01*
X37336589Y-102315990D01*
X37606842Y-102427932D01*
X37893740Y-102485000D01*
X38186260Y-102485000D01*
X38473158Y-102427932D01*
X38743411Y-102315990D01*
X38986632Y-102153475D01*
X39193475Y-101946632D01*
X39315195Y-101764466D01*
X39384822Y-101881355D01*
X39579731Y-102097588D01*
X39813080Y-102271641D01*
X40075901Y-102396825D01*
X40223110Y-102441476D01*
X40453000Y-102320155D01*
X40453000Y-101127000D01*
X40707000Y-101127000D01*
X40707000Y-102320155D01*
X40936890Y-102441476D01*
X41084099Y-102396825D01*
X41346920Y-102271641D01*
X41580269Y-102097588D01*
X41775178Y-101881355D01*
X41924157Y-101631252D01*
X42021481Y-101356891D01*
X41900814Y-101127000D01*
X40707000Y-101127000D01*
X40453000Y-101127000D01*
X40433000Y-101127000D01*
X40433000Y-100873000D01*
X40453000Y-100873000D01*
X40453000Y-99679845D01*
X40707000Y-99679845D01*
X40707000Y-100873000D01*
X41900814Y-100873000D01*
X42021481Y-100643109D01*
X41924157Y-100368748D01*
X41775178Y-100118645D01*
X41580269Y-99902412D01*
X41346920Y-99728359D01*
X41084099Y-99603175D01*
X40936890Y-99558524D01*
X40707000Y-99679845D01*
X40453000Y-99679845D01*
X40223110Y-99558524D01*
X40075901Y-99603175D01*
X39813080Y-99728359D01*
X39579731Y-99902412D01*
X39384822Y-100118645D01*
X39315195Y-100235534D01*
X39193475Y-100053368D01*
X38986632Y-99846525D01*
X38800000Y-99721822D01*
X38800000Y-99577325D01*
X38803676Y-99540000D01*
X38800000Y-99502675D01*
X38800000Y-99502667D01*
X38789003Y-99391014D01*
X38745546Y-99247753D01*
X38674974Y-99115724D01*
X38580001Y-98999999D01*
X38551004Y-98976202D01*
X36760000Y-97185199D01*
X36760000Y-87101398D01*
X36795506Y-87130537D01*
X36905820Y-87189502D01*
X37025518Y-87225812D01*
X37150000Y-87238072D01*
X38261928Y-87238072D01*
X38261928Y-88350000D01*
X38274188Y-88474482D01*
X38310498Y-88594180D01*
X38369463Y-88704494D01*
X38448815Y-88801185D01*
X38545506Y-88880537D01*
X38655820Y-88939502D01*
X38775518Y-88975812D01*
X38900000Y-88988072D01*
X39500000Y-88988072D01*
X39600000Y-88978223D01*
X39700000Y-88988072D01*
X40300000Y-88988072D01*
X40400000Y-88978223D01*
X40500000Y-88988072D01*
X40715001Y-88988072D01*
X40715001Y-89033421D01*
X40154951Y-89593471D01*
X40121184Y-89621183D01*
X40093471Y-89654951D01*
X40093468Y-89654954D01*
X40010590Y-89755941D01*
X39928412Y-89909687D01*
X39877805Y-90076510D01*
X39860719Y-90250000D01*
X39861071Y-90253571D01*
X39755820Y-90285498D01*
X39645506Y-90344463D01*
X39548815Y-90423815D01*
X39469463Y-90520506D01*
X39410498Y-90630820D01*
X39374188Y-90750518D01*
X39361928Y-90875000D01*
X39361928Y-92125000D01*
X39374188Y-92249482D01*
X39410498Y-92369180D01*
X39469463Y-92479494D01*
X39548815Y-92576185D01*
X39645506Y-92655537D01*
X39755820Y-92714502D01*
X39865000Y-92747621D01*
X39865001Y-95706521D01*
X39860719Y-95750000D01*
X39877805Y-95923490D01*
X39928412Y-96090313D01*
X40010590Y-96244059D01*
X40093468Y-96345046D01*
X40093471Y-96345049D01*
X40121184Y-96378817D01*
X40154951Y-96406530D01*
X43615000Y-99866579D01*
X43615001Y-102956521D01*
X43610719Y-103000000D01*
X43622045Y-103115000D01*
X25366579Y-103115000D01*
X24385000Y-102133422D01*
X24385000Y-101013740D01*
X24515000Y-101013740D01*
X24515000Y-101306260D01*
X24572068Y-101593158D01*
X24684010Y-101863411D01*
X24846525Y-102106632D01*
X25053368Y-102313475D01*
X25296589Y-102475990D01*
X25566842Y-102587932D01*
X25853740Y-102645000D01*
X26146260Y-102645000D01*
X26433158Y-102587932D01*
X26703411Y-102475990D01*
X26946632Y-102313475D01*
X27153475Y-102106632D01*
X27315990Y-101863411D01*
X27427932Y-101593158D01*
X27485000Y-101306260D01*
X27485000Y-101013740D01*
X27427932Y-100726842D01*
X27315990Y-100456589D01*
X27153475Y-100213368D01*
X26946632Y-100006525D01*
X26764466Y-99884805D01*
X26881355Y-99815178D01*
X27097588Y-99620269D01*
X27271641Y-99386920D01*
X27396825Y-99124099D01*
X27441476Y-98976890D01*
X27320155Y-98747000D01*
X26127000Y-98747000D01*
X26127000Y-98767000D01*
X25873000Y-98767000D01*
X25873000Y-98747000D01*
X24679845Y-98747000D01*
X24558524Y-98976890D01*
X24603175Y-99124099D01*
X24728359Y-99386920D01*
X24902412Y-99620269D01*
X25118645Y-99815178D01*
X25235534Y-99884805D01*
X25053368Y-100006525D01*
X24846525Y-100213368D01*
X24684010Y-100456589D01*
X24572068Y-100726842D01*
X24515000Y-101013740D01*
X24385000Y-101013740D01*
X24385000Y-96436890D01*
X24558524Y-96436890D01*
X24603175Y-96584099D01*
X24728359Y-96846920D01*
X24902412Y-97080269D01*
X25118645Y-97275178D01*
X25244255Y-97350000D01*
X25118645Y-97424822D01*
X24902412Y-97619731D01*
X24728359Y-97853080D01*
X24603175Y-98115901D01*
X24558524Y-98263110D01*
X24679845Y-98493000D01*
X25873000Y-98493000D01*
X25873000Y-96207000D01*
X26127000Y-96207000D01*
X26127000Y-98493000D01*
X27320155Y-98493000D01*
X27441476Y-98263110D01*
X27396825Y-98115901D01*
X27271641Y-97853080D01*
X27097588Y-97619731D01*
X26881355Y-97424822D01*
X26755745Y-97350000D01*
X26881355Y-97275178D01*
X27097588Y-97080269D01*
X27271641Y-96846920D01*
X27396825Y-96584099D01*
X27441476Y-96436890D01*
X27320155Y-96207000D01*
X26127000Y-96207000D01*
X25873000Y-96207000D01*
X24679845Y-96207000D01*
X24558524Y-96436890D01*
X24385000Y-96436890D01*
X24385000Y-90150000D01*
X24511928Y-90150000D01*
X24511928Y-91850000D01*
X24524188Y-91974482D01*
X24560498Y-92094180D01*
X24619463Y-92204494D01*
X24698815Y-92301185D01*
X24795506Y-92380537D01*
X24905820Y-92439502D01*
X24978380Y-92461513D01*
X24846525Y-92593368D01*
X24684010Y-92836589D01*
X24572068Y-93106842D01*
X24515000Y-93393740D01*
X24515000Y-93686260D01*
X24572068Y-93973158D01*
X24684010Y-94243411D01*
X24846525Y-94486632D01*
X25053368Y-94693475D01*
X25235534Y-94815195D01*
X25118645Y-94884822D01*
X24902412Y-95079731D01*
X24728359Y-95313080D01*
X24603175Y-95575901D01*
X24558524Y-95723110D01*
X24679845Y-95953000D01*
X25873000Y-95953000D01*
X25873000Y-95933000D01*
X26127000Y-95933000D01*
X26127000Y-95953000D01*
X27320155Y-95953000D01*
X27441476Y-95723110D01*
X27396825Y-95575901D01*
X27271641Y-95313080D01*
X27097588Y-95079731D01*
X26881355Y-94884822D01*
X26764466Y-94815195D01*
X26946632Y-94693475D01*
X27153475Y-94486632D01*
X27315990Y-94243411D01*
X27427932Y-93973158D01*
X27485000Y-93686260D01*
X27485000Y-93393740D01*
X27427932Y-93106842D01*
X27315990Y-92836589D01*
X27153475Y-92593368D01*
X27021620Y-92461513D01*
X27094180Y-92439502D01*
X27204494Y-92380537D01*
X27301185Y-92301185D01*
X27380537Y-92204494D01*
X27439502Y-92094180D01*
X27475812Y-91974482D01*
X27488072Y-91850000D01*
X27488072Y-90150000D01*
X27475812Y-90025518D01*
X27439502Y-89905820D01*
X27380537Y-89795506D01*
X27301185Y-89698815D01*
X27204494Y-89619463D01*
X27094180Y-89560498D01*
X26974482Y-89524188D01*
X26850000Y-89511928D01*
X25150000Y-89511928D01*
X25025518Y-89524188D01*
X24905820Y-89560498D01*
X24795506Y-89619463D01*
X24698815Y-89698815D01*
X24619463Y-89795506D01*
X24560498Y-89905820D01*
X24524188Y-90025518D01*
X24511928Y-90150000D01*
X24385000Y-90150000D01*
X24385000Y-84625000D01*
X28861928Y-84625000D01*
X28874188Y-84749482D01*
X28910498Y-84869180D01*
X28969463Y-84979494D01*
X29048815Y-85076185D01*
X29145506Y-85155537D01*
X29255820Y-85214502D01*
X29375518Y-85250812D01*
X29500000Y-85263072D01*
X29964250Y-85260000D01*
X30123000Y-85101250D01*
X30123000Y-84127000D01*
X29023750Y-84127000D01*
X28865000Y-84285750D01*
X28861928Y-84625000D01*
X24385000Y-84625000D01*
X24385000Y-83375000D01*
X28861928Y-83375000D01*
X28865000Y-83714250D01*
X29023750Y-83873000D01*
X30123000Y-83873000D01*
X30123000Y-82898750D01*
X29964250Y-82740000D01*
X29500000Y-82736928D01*
X29375518Y-82749188D01*
X29255820Y-82785498D01*
X29145506Y-82844463D01*
X29048815Y-82923815D01*
X28969463Y-83020506D01*
X28910498Y-83130820D01*
X28874188Y-83250518D01*
X28861928Y-83375000D01*
X24385000Y-83375000D01*
X24385000Y-81366578D01*
X24866579Y-80885000D01*
X28807713Y-80885000D01*
X28810498Y-80894180D01*
X28869463Y-81004494D01*
X28948815Y-81101185D01*
X29045506Y-81180537D01*
X29155820Y-81239502D01*
X29275518Y-81275812D01*
X29400000Y-81288072D01*
X30900000Y-81288072D01*
X31024482Y-81275812D01*
X31144180Y-81239502D01*
X31254494Y-81180537D01*
X31351185Y-81101185D01*
X31430537Y-81004494D01*
X31489502Y-80894180D01*
X31500000Y-80859573D01*
X31510498Y-80894180D01*
G04 #@! TA.AperFunction,Conductor*
D28*
G36*
X31510498Y-80894180D02*
G01*
X31569463Y-81004494D01*
X31648815Y-81101185D01*
X31745506Y-81180537D01*
X31855820Y-81239502D01*
X31975518Y-81275812D01*
X32090000Y-81287087D01*
X32090001Y-82736928D01*
X32000000Y-82736928D01*
X31875518Y-82749188D01*
X31755820Y-82785498D01*
X31645506Y-82844463D01*
X31548815Y-82923815D01*
X31500000Y-82983296D01*
X31451185Y-82923815D01*
X31354494Y-82844463D01*
X31244180Y-82785498D01*
X31124482Y-82749188D01*
X31000000Y-82736928D01*
X30535750Y-82740000D01*
X30377000Y-82898750D01*
X30377000Y-83873000D01*
X30397000Y-83873000D01*
X30397000Y-84127000D01*
X30377000Y-84127000D01*
X30377000Y-85101250D01*
X30535750Y-85260000D01*
X31000000Y-85263072D01*
X31124482Y-85250812D01*
X31244180Y-85214502D01*
X31354494Y-85155537D01*
X31451185Y-85076185D01*
X31500000Y-85016704D01*
X31548815Y-85076185D01*
X31645506Y-85155537D01*
X31755820Y-85214502D01*
X31875518Y-85250812D01*
X32000000Y-85263072D01*
X33500000Y-85263072D01*
X33624482Y-85250812D01*
X33744180Y-85214502D01*
X33854494Y-85155537D01*
X33951185Y-85076185D01*
X34030537Y-84979494D01*
X34089502Y-84869180D01*
X34125812Y-84749482D01*
X34134625Y-84660000D01*
X35265198Y-84660000D01*
X34489003Y-85436196D01*
X34459999Y-85459999D01*
X34421354Y-85507089D01*
X34365026Y-85575724D01*
X34321833Y-85656532D01*
X34294454Y-85707754D01*
X34250997Y-85851015D01*
X34240000Y-85962668D01*
X34240000Y-85962678D01*
X34236324Y-86000000D01*
X34240000Y-86037322D01*
X34240001Y-99665015D01*
X34198815Y-99698815D01*
X34119463Y-99795506D01*
X34060498Y-99905820D01*
X34024188Y-100025518D01*
X34011928Y-100150000D01*
X34011928Y-101850000D01*
X34024188Y-101974482D01*
X34060498Y-102094180D01*
X34119463Y-102204494D01*
X34198815Y-102301185D01*
X34295506Y-102380537D01*
X34405820Y-102439502D01*
X34525518Y-102475812D01*
X34650000Y-102488072D01*
X36350000Y-102488072D01*
X36474482Y-102475812D01*
X36594180Y-102439502D01*
X36704494Y-102380537D01*
X36801185Y-102301185D01*
X36880537Y-102204494D01*
X36939502Y-102094180D01*
X36961513Y-102021620D01*
X37093368Y-102153475D01*
X37336589Y-102315990D01*
X37606842Y-102427932D01*
X37893740Y-102485000D01*
X38186260Y-102485000D01*
X38473158Y-102427932D01*
X38743411Y-102315990D01*
X38986632Y-102153475D01*
X39193475Y-101946632D01*
X39315195Y-101764466D01*
X39384822Y-101881355D01*
X39579731Y-102097588D01*
X39813080Y-102271641D01*
X40075901Y-102396825D01*
X40223110Y-102441476D01*
X40453000Y-102320155D01*
X40453000Y-101127000D01*
X40707000Y-101127000D01*
X40707000Y-102320155D01*
X40936890Y-102441476D01*
X41084099Y-102396825D01*
X41346920Y-102271641D01*
X41580269Y-102097588D01*
X41775178Y-101881355D01*
X41924157Y-101631252D01*
X42021481Y-101356891D01*
X41900814Y-101127000D01*
X40707000Y-101127000D01*
X40453000Y-101127000D01*
X40433000Y-101127000D01*
X40433000Y-100873000D01*
X40453000Y-100873000D01*
X40453000Y-99679845D01*
X40707000Y-99679845D01*
X40707000Y-100873000D01*
X41900814Y-100873000D01*
X42021481Y-100643109D01*
X41924157Y-100368748D01*
X41775178Y-100118645D01*
X41580269Y-99902412D01*
X41346920Y-99728359D01*
X41084099Y-99603175D01*
X40936890Y-99558524D01*
X40707000Y-99679845D01*
X40453000Y-99679845D01*
X40223110Y-99558524D01*
X40075901Y-99603175D01*
X39813080Y-99728359D01*
X39579731Y-99902412D01*
X39384822Y-100118645D01*
X39315195Y-100235534D01*
X39193475Y-100053368D01*
X38986632Y-99846525D01*
X38800000Y-99721822D01*
X38800000Y-99577325D01*
X38803676Y-99540000D01*
X38800000Y-99502675D01*
X38800000Y-99502667D01*
X38789003Y-99391014D01*
X38745546Y-99247753D01*
X38674974Y-99115724D01*
X38580001Y-98999999D01*
X38551004Y-98976202D01*
X36760000Y-97185199D01*
X36760000Y-87101398D01*
X36795506Y-87130537D01*
X36905820Y-87189502D01*
X37025518Y-87225812D01*
X37150000Y-87238072D01*
X38261928Y-87238072D01*
X38261928Y-88350000D01*
X38274188Y-88474482D01*
X38310498Y-88594180D01*
X38369463Y-88704494D01*
X38448815Y-88801185D01*
X38545506Y-88880537D01*
X38655820Y-88939502D01*
X38775518Y-88975812D01*
X38900000Y-88988072D01*
X39500000Y-88988072D01*
X39600000Y-88978223D01*
X39700000Y-88988072D01*
X40300000Y-88988072D01*
X40400000Y-88978223D01*
X40500000Y-88988072D01*
X40715001Y-88988072D01*
X40715001Y-89033421D01*
X40154951Y-89593471D01*
X40121184Y-89621183D01*
X40093471Y-89654951D01*
X40093468Y-89654954D01*
X40010590Y-89755941D01*
X39928412Y-89909687D01*
X39877805Y-90076510D01*
X39860719Y-90250000D01*
X39861071Y-90253571D01*
X39755820Y-90285498D01*
X39645506Y-90344463D01*
X39548815Y-90423815D01*
X39469463Y-90520506D01*
X39410498Y-90630820D01*
X39374188Y-90750518D01*
X39361928Y-90875000D01*
X39361928Y-92125000D01*
X39374188Y-92249482D01*
X39410498Y-92369180D01*
X39469463Y-92479494D01*
X39548815Y-92576185D01*
X39645506Y-92655537D01*
X39755820Y-92714502D01*
X39865000Y-92747621D01*
X39865001Y-95706521D01*
X39860719Y-95750000D01*
X39877805Y-95923490D01*
X39928412Y-96090313D01*
X40010590Y-96244059D01*
X40093468Y-96345046D01*
X40093471Y-96345049D01*
X40121184Y-96378817D01*
X40154951Y-96406530D01*
X43615000Y-99866579D01*
X43615001Y-102956521D01*
X43610719Y-103000000D01*
X43622045Y-103115000D01*
X25366579Y-103115000D01*
X24385000Y-102133422D01*
X24385000Y-101013740D01*
X24515000Y-101013740D01*
X24515000Y-101306260D01*
X24572068Y-101593158D01*
X24684010Y-101863411D01*
X24846525Y-102106632D01*
X25053368Y-102313475D01*
X25296589Y-102475990D01*
X25566842Y-102587932D01*
X25853740Y-102645000D01*
X26146260Y-102645000D01*
X26433158Y-102587932D01*
X26703411Y-102475990D01*
X26946632Y-102313475D01*
X27153475Y-102106632D01*
X27315990Y-101863411D01*
X27427932Y-101593158D01*
X27485000Y-101306260D01*
X27485000Y-101013740D01*
X27427932Y-100726842D01*
X27315990Y-100456589D01*
X27153475Y-100213368D01*
X26946632Y-100006525D01*
X26764466Y-99884805D01*
X26881355Y-99815178D01*
X27097588Y-99620269D01*
X27271641Y-99386920D01*
X27396825Y-99124099D01*
X27441476Y-98976890D01*
X27320155Y-98747000D01*
X26127000Y-98747000D01*
X26127000Y-98767000D01*
X25873000Y-98767000D01*
X25873000Y-98747000D01*
X24679845Y-98747000D01*
X24558524Y-98976890D01*
X24603175Y-99124099D01*
X24728359Y-99386920D01*
X24902412Y-99620269D01*
X25118645Y-99815178D01*
X25235534Y-99884805D01*
X25053368Y-100006525D01*
X24846525Y-100213368D01*
X24684010Y-100456589D01*
X24572068Y-100726842D01*
X24515000Y-101013740D01*
X24385000Y-101013740D01*
X24385000Y-96436890D01*
X24558524Y-96436890D01*
X24603175Y-96584099D01*
X24728359Y-96846920D01*
X24902412Y-97080269D01*
X25118645Y-97275178D01*
X25244255Y-97350000D01*
X25118645Y-97424822D01*
X24902412Y-97619731D01*
X24728359Y-97853080D01*
X24603175Y-98115901D01*
X24558524Y-98263110D01*
X24679845Y-98493000D01*
X25873000Y-98493000D01*
X25873000Y-96207000D01*
X26127000Y-96207000D01*
X26127000Y-98493000D01*
X27320155Y-98493000D01*
X27441476Y-98263110D01*
X27396825Y-98115901D01*
X27271641Y-97853080D01*
X27097588Y-97619731D01*
X26881355Y-97424822D01*
X26755745Y-97350000D01*
X26881355Y-97275178D01*
X27097588Y-97080269D01*
X27271641Y-96846920D01*
X27396825Y-96584099D01*
X27441476Y-96436890D01*
X27320155Y-96207000D01*
X26127000Y-96207000D01*
X25873000Y-96207000D01*
X24679845Y-96207000D01*
X24558524Y-96436890D01*
X24385000Y-96436890D01*
X24385000Y-90150000D01*
X24511928Y-90150000D01*
X24511928Y-91850000D01*
X24524188Y-91974482D01*
X24560498Y-92094180D01*
X24619463Y-92204494D01*
X24698815Y-92301185D01*
X24795506Y-92380537D01*
X24905820Y-92439502D01*
X24978380Y-92461513D01*
X24846525Y-92593368D01*
X24684010Y-92836589D01*
X24572068Y-93106842D01*
X24515000Y-93393740D01*
X24515000Y-93686260D01*
X24572068Y-93973158D01*
X24684010Y-94243411D01*
X24846525Y-94486632D01*
X25053368Y-94693475D01*
X25235534Y-94815195D01*
X25118645Y-94884822D01*
X24902412Y-95079731D01*
X24728359Y-95313080D01*
X24603175Y-95575901D01*
X24558524Y-95723110D01*
X24679845Y-95953000D01*
X25873000Y-95953000D01*
X25873000Y-95933000D01*
X26127000Y-95933000D01*
X26127000Y-95953000D01*
X27320155Y-95953000D01*
X27441476Y-95723110D01*
X27396825Y-95575901D01*
X27271641Y-95313080D01*
X27097588Y-95079731D01*
X26881355Y-94884822D01*
X26764466Y-94815195D01*
X26946632Y-94693475D01*
X27153475Y-94486632D01*
X27315990Y-94243411D01*
X27427932Y-93973158D01*
X27485000Y-93686260D01*
X27485000Y-93393740D01*
X27427932Y-93106842D01*
X27315990Y-92836589D01*
X27153475Y-92593368D01*
X27021620Y-92461513D01*
X27094180Y-92439502D01*
X27204494Y-92380537D01*
X27301185Y-92301185D01*
X27380537Y-92204494D01*
X27439502Y-92094180D01*
X27475812Y-91974482D01*
X27488072Y-91850000D01*
X27488072Y-90150000D01*
X27475812Y-90025518D01*
X27439502Y-89905820D01*
X27380537Y-89795506D01*
X27301185Y-89698815D01*
X27204494Y-89619463D01*
X27094180Y-89560498D01*
X26974482Y-89524188D01*
X26850000Y-89511928D01*
X25150000Y-89511928D01*
X25025518Y-89524188D01*
X24905820Y-89560498D01*
X24795506Y-89619463D01*
X24698815Y-89698815D01*
X24619463Y-89795506D01*
X24560498Y-89905820D01*
X24524188Y-90025518D01*
X24511928Y-90150000D01*
X24385000Y-90150000D01*
X24385000Y-84625000D01*
X28861928Y-84625000D01*
X28874188Y-84749482D01*
X28910498Y-84869180D01*
X28969463Y-84979494D01*
X29048815Y-85076185D01*
X29145506Y-85155537D01*
X29255820Y-85214502D01*
X29375518Y-85250812D01*
X29500000Y-85263072D01*
X29964250Y-85260000D01*
X30123000Y-85101250D01*
X30123000Y-84127000D01*
X29023750Y-84127000D01*
X28865000Y-84285750D01*
X28861928Y-84625000D01*
X24385000Y-84625000D01*
X24385000Y-83375000D01*
X28861928Y-83375000D01*
X28865000Y-83714250D01*
X29023750Y-83873000D01*
X30123000Y-83873000D01*
X30123000Y-82898750D01*
X29964250Y-82740000D01*
X29500000Y-82736928D01*
X29375518Y-82749188D01*
X29255820Y-82785498D01*
X29145506Y-82844463D01*
X29048815Y-82923815D01*
X28969463Y-83020506D01*
X28910498Y-83130820D01*
X28874188Y-83250518D01*
X28861928Y-83375000D01*
X24385000Y-83375000D01*
X24385000Y-81366578D01*
X24866579Y-80885000D01*
X28807713Y-80885000D01*
X28810498Y-80894180D01*
X28869463Y-81004494D01*
X28948815Y-81101185D01*
X29045506Y-81180537D01*
X29155820Y-81239502D01*
X29275518Y-81275812D01*
X29400000Y-81288072D01*
X30900000Y-81288072D01*
X31024482Y-81275812D01*
X31144180Y-81239502D01*
X31254494Y-81180537D01*
X31351185Y-81101185D01*
X31430537Y-81004494D01*
X31489502Y-80894180D01*
X31500000Y-80859573D01*
X31510498Y-80894180D01*
G37*
G04 #@! TD.AperFunction*
D27*
X41648815Y-80301185D02*
X41745506Y-80380537D01*
X41822375Y-80421625D01*
X41885750Y-80485000D01*
X41900000Y-80488072D01*
X42000000Y-80478223D01*
X42100000Y-80488072D01*
X42700000Y-80488072D01*
X42800000Y-80478223D01*
X42900000Y-80488072D01*
X43500000Y-80488072D01*
X43600000Y-80478223D01*
X43700000Y-80488072D01*
X44300000Y-80488072D01*
X44400000Y-80478223D01*
X44500000Y-80488072D01*
X45011928Y-80488072D01*
X45011928Y-81000000D01*
X45021777Y-81100000D01*
X45011928Y-81200000D01*
X45011928Y-81800000D01*
X45021777Y-81900000D01*
X45011928Y-82000000D01*
X45011928Y-82600000D01*
X45021777Y-82700000D01*
X45011928Y-82800000D01*
X45011928Y-83140000D01*
X44075870Y-83140000D01*
X43990256Y-83082795D01*
X43801898Y-83004774D01*
X43601939Y-82965000D01*
X43398061Y-82965000D01*
X43198102Y-83004774D01*
X43009744Y-83082795D01*
X42840226Y-83196063D01*
X42696063Y-83340226D01*
X42582795Y-83509744D01*
X42504774Y-83698102D01*
X42465000Y-83898061D01*
X42465000Y-84101939D01*
X42504774Y-84301898D01*
X42582795Y-84490256D01*
X42696063Y-84659774D01*
X42840226Y-84803937D01*
X43009744Y-84917205D01*
X43198102Y-84995226D01*
X43398061Y-85035000D01*
X43601939Y-85035000D01*
X43801898Y-84995226D01*
X43990256Y-84917205D01*
X44159774Y-84803937D01*
X44303711Y-84660000D01*
X45011928Y-84660000D01*
X45011928Y-85000000D01*
X45021777Y-85100000D01*
X45011928Y-85200000D01*
X45011928Y-85800000D01*
X45021777Y-85900000D01*
X45011928Y-86000000D01*
X45011928Y-86511928D01*
X44500000Y-86511928D01*
X44400000Y-86521777D01*
X44300000Y-86511928D01*
X43700000Y-86511928D01*
X43600000Y-86521777D01*
X43500000Y-86511928D01*
X42900000Y-86511928D01*
X42800000Y-86521777D01*
X42700000Y-86511928D01*
X42685750Y-86515000D01*
X42622375Y-86578375D01*
X42545506Y-86619463D01*
X42448815Y-86698815D01*
X42400000Y-86758296D01*
X42351185Y-86698815D01*
X42254494Y-86619463D01*
X42177625Y-86578375D01*
X42114250Y-86515000D01*
X42100000Y-86511928D01*
X42000000Y-86521777D01*
X41900000Y-86511928D01*
X41300000Y-86511928D01*
X41200000Y-86521777D01*
X41100000Y-86511928D01*
X40500000Y-86511928D01*
X40400000Y-86521777D01*
X40300000Y-86511928D01*
X39700000Y-86511928D01*
X39600000Y-86521777D01*
X39500000Y-86511928D01*
X38988072Y-86511928D01*
X38988072Y-86000000D01*
X38978223Y-85900000D01*
X38988072Y-85800000D01*
X38988072Y-85200000D01*
X38978223Y-85100000D01*
X38988072Y-85000000D01*
X38988072Y-84660000D01*
X39196289Y-84660000D01*
X39340226Y-84803937D01*
X39509744Y-84917205D01*
X39698102Y-84995226D01*
X39898061Y-85035000D01*
X40101939Y-85035000D01*
X40301898Y-84995226D01*
X40490256Y-84917205D01*
X40659774Y-84803937D01*
X40803937Y-84659774D01*
X40917205Y-84490256D01*
X40995226Y-84301898D01*
X41035000Y-84101939D01*
X41035000Y-83898061D01*
X40995226Y-83698102D01*
X40917205Y-83509744D01*
X40803937Y-83340226D01*
X40659774Y-83196063D01*
X40490256Y-83082795D01*
X40301898Y-83004774D01*
X40101939Y-82965000D01*
X39898061Y-82965000D01*
X39698102Y-83004774D01*
X39509744Y-83082795D01*
X39424130Y-83140000D01*
X38988072Y-83140000D01*
X38988072Y-82800000D01*
X38978223Y-82700000D01*
X38988072Y-82600000D01*
X38988072Y-82000000D01*
X38978223Y-81900000D01*
X38988072Y-81800000D01*
X38988072Y-81200000D01*
X38978223Y-81100000D01*
X38988072Y-81000000D01*
X38988072Y-80488072D01*
X39500000Y-80488072D01*
X39600000Y-80478223D01*
X39700000Y-80488072D01*
X40300000Y-80488072D01*
X40400000Y-80478223D01*
X40500000Y-80488072D01*
X41100000Y-80488072D01*
X41200000Y-80478223D01*
X41300000Y-80488072D01*
X41314250Y-80485000D01*
X41377625Y-80421625D01*
X41454494Y-80380537D01*
X41551185Y-80301185D01*
X41600000Y-80241704D01*
X41648815Y-80301185D01*
G04 #@! TA.AperFunction,Conductor*
D28*
G36*
X41648815Y-80301185D02*
G01*
X41745506Y-80380537D01*
X41822375Y-80421625D01*
X41885750Y-80485000D01*
X41900000Y-80488072D01*
X42000000Y-80478223D01*
X42100000Y-80488072D01*
X42700000Y-80488072D01*
X42800000Y-80478223D01*
X42900000Y-80488072D01*
X43500000Y-80488072D01*
X43600000Y-80478223D01*
X43700000Y-80488072D01*
X44300000Y-80488072D01*
X44400000Y-80478223D01*
X44500000Y-80488072D01*
X45011928Y-80488072D01*
X45011928Y-81000000D01*
X45021777Y-81100000D01*
X45011928Y-81200000D01*
X45011928Y-81800000D01*
X45021777Y-81900000D01*
X45011928Y-82000000D01*
X45011928Y-82600000D01*
X45021777Y-82700000D01*
X45011928Y-82800000D01*
X45011928Y-83140000D01*
X44075870Y-83140000D01*
X43990256Y-83082795D01*
X43801898Y-83004774D01*
X43601939Y-82965000D01*
X43398061Y-82965000D01*
X43198102Y-83004774D01*
X43009744Y-83082795D01*
X42840226Y-83196063D01*
X42696063Y-83340226D01*
X42582795Y-83509744D01*
X42504774Y-83698102D01*
X42465000Y-83898061D01*
X42465000Y-84101939D01*
X42504774Y-84301898D01*
X42582795Y-84490256D01*
X42696063Y-84659774D01*
X42840226Y-84803937D01*
X43009744Y-84917205D01*
X43198102Y-84995226D01*
X43398061Y-85035000D01*
X43601939Y-85035000D01*
X43801898Y-84995226D01*
X43990256Y-84917205D01*
X44159774Y-84803937D01*
X44303711Y-84660000D01*
X45011928Y-84660000D01*
X45011928Y-85000000D01*
X45021777Y-85100000D01*
X45011928Y-85200000D01*
X45011928Y-85800000D01*
X45021777Y-85900000D01*
X45011928Y-86000000D01*
X45011928Y-86511928D01*
X44500000Y-86511928D01*
X44400000Y-86521777D01*
X44300000Y-86511928D01*
X43700000Y-86511928D01*
X43600000Y-86521777D01*
X43500000Y-86511928D01*
X42900000Y-86511928D01*
X42800000Y-86521777D01*
X42700000Y-86511928D01*
X42685750Y-86515000D01*
X42622375Y-86578375D01*
X42545506Y-86619463D01*
X42448815Y-86698815D01*
X42400000Y-86758296D01*
X42351185Y-86698815D01*
X42254494Y-86619463D01*
X42177625Y-86578375D01*
X42114250Y-86515000D01*
X42100000Y-86511928D01*
X42000000Y-86521777D01*
X41900000Y-86511928D01*
X41300000Y-86511928D01*
X41200000Y-86521777D01*
X41100000Y-86511928D01*
X40500000Y-86511928D01*
X40400000Y-86521777D01*
X40300000Y-86511928D01*
X39700000Y-86511928D01*
X39600000Y-86521777D01*
X39500000Y-86511928D01*
X38988072Y-86511928D01*
X38988072Y-86000000D01*
X38978223Y-85900000D01*
X38988072Y-85800000D01*
X38988072Y-85200000D01*
X38978223Y-85100000D01*
X38988072Y-85000000D01*
X38988072Y-84660000D01*
X39196289Y-84660000D01*
X39340226Y-84803937D01*
X39509744Y-84917205D01*
X39698102Y-84995226D01*
X39898061Y-85035000D01*
X40101939Y-85035000D01*
X40301898Y-84995226D01*
X40490256Y-84917205D01*
X40659774Y-84803937D01*
X40803937Y-84659774D01*
X40917205Y-84490256D01*
X40995226Y-84301898D01*
X41035000Y-84101939D01*
X41035000Y-83898061D01*
X40995226Y-83698102D01*
X40917205Y-83509744D01*
X40803937Y-83340226D01*
X40659774Y-83196063D01*
X40490256Y-83082795D01*
X40301898Y-83004774D01*
X40101939Y-82965000D01*
X39898061Y-82965000D01*
X39698102Y-83004774D01*
X39509744Y-83082795D01*
X39424130Y-83140000D01*
X38988072Y-83140000D01*
X38988072Y-82800000D01*
X38978223Y-82700000D01*
X38988072Y-82600000D01*
X38988072Y-82000000D01*
X38978223Y-81900000D01*
X38988072Y-81800000D01*
X38988072Y-81200000D01*
X38978223Y-81100000D01*
X38988072Y-81000000D01*
X38988072Y-80488072D01*
X39500000Y-80488072D01*
X39600000Y-80478223D01*
X39700000Y-80488072D01*
X40300000Y-80488072D01*
X40400000Y-80478223D01*
X40500000Y-80488072D01*
X41100000Y-80488072D01*
X41200000Y-80478223D01*
X41300000Y-80488072D01*
X41314250Y-80485000D01*
X41377625Y-80421625D01*
X41454494Y-80380537D01*
X41551185Y-80301185D01*
X41600000Y-80241704D01*
X41648815Y-80301185D01*
G37*
G04 #@! TD.AperFunction*
D27*
X34409002Y-21516196D02*
X34379999Y-21539999D01*
X34324871Y-21607174D01*
X34285026Y-21655724D01*
X34235167Y-21749003D01*
X34214454Y-21787754D01*
X34170997Y-21931015D01*
X34160000Y-22042668D01*
X34160000Y-22042678D01*
X34156324Y-22080000D01*
X34160000Y-22117323D01*
X34160000Y-22721821D01*
X33973368Y-22846525D01*
X33766525Y-23053368D01*
X33650000Y-23227760D01*
X33533475Y-23053368D01*
X33326632Y-22846525D01*
X33083411Y-22684010D01*
X32813158Y-22572068D01*
X32526260Y-22515000D01*
X32233740Y-22515000D01*
X31946842Y-22572068D01*
X31676589Y-22684010D01*
X31433368Y-22846525D01*
X31226525Y-23053368D01*
X31064010Y-23296589D01*
X30952068Y-23566842D01*
X30895000Y-23853740D01*
X30895000Y-24146260D01*
X30952068Y-24433158D01*
X31064010Y-24703411D01*
X31226525Y-24946632D01*
X31433368Y-25153475D01*
X31676589Y-25315990D01*
X31946842Y-25427932D01*
X32233740Y-25485000D01*
X32526260Y-25485000D01*
X32813158Y-25427932D01*
X33083411Y-25315990D01*
X33326632Y-25153475D01*
X33533475Y-24946632D01*
X33650000Y-24772240D01*
X33766525Y-24946632D01*
X33973368Y-25153475D01*
X34216589Y-25315990D01*
X34486842Y-25427932D01*
X34773740Y-25485000D01*
X35066260Y-25485000D01*
X35353158Y-25427932D01*
X35623411Y-25315990D01*
X35866632Y-25153475D01*
X36073475Y-24946632D01*
X36195195Y-24764466D01*
X36264822Y-24881355D01*
X36459731Y-25097588D01*
X36693080Y-25271641D01*
X36955901Y-25396825D01*
X37103110Y-25441476D01*
X37333000Y-25320155D01*
X37333000Y-24127000D01*
X37313000Y-24127000D01*
X37313000Y-23873000D01*
X37333000Y-23873000D01*
X37333000Y-22679845D01*
X37103110Y-22558524D01*
X36955901Y-22603175D01*
X36693080Y-22728359D01*
X36459731Y-22902412D01*
X36264822Y-23118645D01*
X36195195Y-23235534D01*
X36073475Y-23053368D01*
X35866632Y-22846525D01*
X35680000Y-22721822D01*
X35680000Y-22394801D01*
X36314802Y-21760000D01*
X49685199Y-21760000D01*
X50320001Y-22394803D01*
X50320001Y-22721821D01*
X50133368Y-22846525D01*
X49926525Y-23053368D01*
X49810000Y-23227760D01*
X49693475Y-23053368D01*
X49486632Y-22846525D01*
X49243411Y-22684010D01*
X48973158Y-22572068D01*
X48686260Y-22515000D01*
X48393740Y-22515000D01*
X48106842Y-22572068D01*
X47836589Y-22684010D01*
X47593368Y-22846525D01*
X47461513Y-22978380D01*
X47439502Y-22905820D01*
X47380537Y-22795506D01*
X47301185Y-22698815D01*
X47204494Y-22619463D01*
X47094180Y-22560498D01*
X46974482Y-22524188D01*
X46850000Y-22511928D01*
X45150000Y-22511928D01*
X45025518Y-22524188D01*
X44905820Y-22560498D01*
X44795506Y-22619463D01*
X44698815Y-22698815D01*
X44619463Y-22795506D01*
X44560498Y-22905820D01*
X44524188Y-23025518D01*
X44515375Y-23115000D01*
X41484625Y-23115000D01*
X41475812Y-23025518D01*
X41439502Y-22905820D01*
X41380537Y-22795506D01*
X41301185Y-22698815D01*
X41204494Y-22619463D01*
X41094180Y-22560498D01*
X40974482Y-22524188D01*
X40850000Y-22511928D01*
X39150000Y-22511928D01*
X39025518Y-22524188D01*
X38905820Y-22560498D01*
X38795506Y-22619463D01*
X38698815Y-22698815D01*
X38619463Y-22795506D01*
X38560498Y-22905820D01*
X38536034Y-22986466D01*
X38460269Y-22902412D01*
X38226920Y-22728359D01*
X37964099Y-22603175D01*
X37816890Y-22558524D01*
X37587000Y-22679845D01*
X37587000Y-23873000D01*
X37607000Y-23873000D01*
X37607000Y-24127000D01*
X37587000Y-24127000D01*
X37587000Y-25320155D01*
X37816890Y-25441476D01*
X37964099Y-25396825D01*
X38226920Y-25271641D01*
X38460269Y-25097588D01*
X38536034Y-25013534D01*
X38560498Y-25094180D01*
X38619463Y-25204494D01*
X38698815Y-25301185D01*
X38795506Y-25380537D01*
X38905820Y-25439502D01*
X39025518Y-25475812D01*
X39150000Y-25488072D01*
X40850000Y-25488072D01*
X40974482Y-25475812D01*
X41094180Y-25439502D01*
X41204494Y-25380537D01*
X41301185Y-25301185D01*
X41380537Y-25204494D01*
X41439502Y-25094180D01*
X41475812Y-24974482D01*
X41484625Y-24885000D01*
X43863422Y-24885000D01*
X42872459Y-25875963D01*
X42872454Y-25875967D01*
X42254952Y-26493469D01*
X42254953Y-26493469D01*
X41904952Y-26843470D01*
X41871184Y-26871183D01*
X41843471Y-26904951D01*
X41843468Y-26904954D01*
X41760590Y-27005941D01*
X41678412Y-27159687D01*
X41627805Y-27326510D01*
X41610719Y-27500000D01*
X41615001Y-27543479D01*
X41615000Y-38956531D01*
X41610719Y-39000000D01*
X41615000Y-39043469D01*
X41615000Y-39043476D01*
X41615001Y-39043486D01*
X41615000Y-57095654D01*
X41360983Y-56841637D01*
X41011302Y-56607988D01*
X40622756Y-56447047D01*
X40210279Y-56365000D01*
X39789721Y-56365000D01*
X39377244Y-56447047D01*
X38988698Y-56607988D01*
X38639017Y-56841637D01*
X38341637Y-57139017D01*
X38184999Y-57373443D01*
X38184999Y-37112326D01*
X38188675Y-37075001D01*
X38184999Y-37037676D01*
X38184999Y-37037668D01*
X38174002Y-36926015D01*
X38130545Y-36782754D01*
X38059973Y-36650725D01*
X37965000Y-36535000D01*
X37936002Y-36511202D01*
X29260000Y-27835201D01*
X29260000Y-25037333D01*
X29263677Y-25000000D01*
X29249003Y-24851014D01*
X29205546Y-24707753D01*
X29134974Y-24575724D01*
X29063799Y-24488997D01*
X29040001Y-24459999D01*
X29011003Y-24436201D01*
X28063804Y-23489002D01*
X28040001Y-23459999D01*
X27924276Y-23365026D01*
X27792247Y-23294454D01*
X27648986Y-23250997D01*
X27537333Y-23240000D01*
X27537322Y-23240000D01*
X27500000Y-23236324D01*
X27488072Y-23237499D01*
X27488072Y-23150000D01*
X27475812Y-23025518D01*
X27439502Y-22905820D01*
X27380537Y-22795506D01*
X27301185Y-22698815D01*
X27204494Y-22619463D01*
X27094180Y-22560498D01*
X26974482Y-22524188D01*
X26850000Y-22511928D01*
X25150000Y-22511928D01*
X25025518Y-22524188D01*
X24905820Y-22560498D01*
X24795506Y-22619463D01*
X24698815Y-22698815D01*
X24619463Y-22795506D01*
X24560498Y-22905820D01*
X24524188Y-23025518D01*
X24511928Y-23150000D01*
X24511928Y-24850000D01*
X24524188Y-24974482D01*
X24560498Y-25094180D01*
X24619463Y-25204494D01*
X24698815Y-25301185D01*
X24795506Y-25380537D01*
X24905820Y-25439502D01*
X24978380Y-25461513D01*
X24846525Y-25593368D01*
X24684010Y-25836589D01*
X24572068Y-26106842D01*
X24515000Y-26393740D01*
X24515000Y-26686260D01*
X24572068Y-26973158D01*
X24684010Y-27243411D01*
X24846525Y-27486632D01*
X25053368Y-27693475D01*
X25235534Y-27815195D01*
X25118645Y-27884822D01*
X24902412Y-28079731D01*
X24728359Y-28313080D01*
X24603175Y-28575901D01*
X24558524Y-28723110D01*
X24679845Y-28953000D01*
X25873000Y-28953000D01*
X25873000Y-28933000D01*
X26127000Y-28933000D01*
X26127000Y-28953000D01*
X26147000Y-28953000D01*
X26147000Y-29207000D01*
X26127000Y-29207000D01*
X26127000Y-31493000D01*
X27320155Y-31493000D01*
X27441476Y-31263110D01*
X27396825Y-31115901D01*
X27271641Y-30853080D01*
X27097588Y-30619731D01*
X26881355Y-30424822D01*
X26755745Y-30350000D01*
X26881355Y-30275178D01*
X27097588Y-30080269D01*
X27271641Y-29846920D01*
X27396825Y-29584099D01*
X27441476Y-29436890D01*
X27320156Y-29207002D01*
X27485000Y-29207002D01*
X27485000Y-29099801D01*
X35720001Y-37334803D01*
X35720000Y-72942678D01*
X35716324Y-72980000D01*
X35720000Y-73017322D01*
X35720000Y-73017332D01*
X35730997Y-73128985D01*
X35764088Y-73238072D01*
X35774454Y-73272246D01*
X35845026Y-73404276D01*
X35884871Y-73452826D01*
X35939999Y-73520001D01*
X35969003Y-73543804D01*
X36391503Y-73966304D01*
X36198102Y-74004774D01*
X36009744Y-74082795D01*
X35840226Y-74196063D01*
X35696063Y-74340226D01*
X35582795Y-74509744D01*
X35504774Y-74698102D01*
X35465000Y-74898061D01*
X35465000Y-75101939D01*
X35504774Y-75301898D01*
X35582795Y-75490256D01*
X35696063Y-75659774D01*
X35840226Y-75803937D01*
X36009744Y-75917205D01*
X36198102Y-75995226D01*
X36222103Y-76000000D01*
X36198102Y-76004774D01*
X36009744Y-76082795D01*
X35840226Y-76196063D01*
X35696063Y-76340226D01*
X35582795Y-76509744D01*
X35504774Y-76698102D01*
X35465000Y-76898061D01*
X35465000Y-77101939D01*
X35504774Y-77301898D01*
X35582795Y-77490256D01*
X35618512Y-77543710D01*
X35260000Y-77185199D01*
X35260000Y-43703711D01*
X35303937Y-43659774D01*
X35417205Y-43490256D01*
X35495226Y-43301898D01*
X35535000Y-43101939D01*
X35535000Y-42898061D01*
X35495226Y-42698102D01*
X35417205Y-42509744D01*
X35303937Y-42340226D01*
X35159774Y-42196063D01*
X34990256Y-42082795D01*
X34801898Y-42004774D01*
X34601939Y-41965000D01*
X34398061Y-41965000D01*
X34260000Y-41992462D01*
X34260000Y-41203711D01*
X34303937Y-41159774D01*
X34417205Y-40990256D01*
X34495226Y-40801898D01*
X34535000Y-40601939D01*
X34535000Y-40398061D01*
X34495226Y-40198102D01*
X34417205Y-40009744D01*
X34303937Y-39840226D01*
X34159774Y-39696063D01*
X33990256Y-39582795D01*
X33801898Y-39504774D01*
X33601939Y-39465000D01*
X33398061Y-39465000D01*
X33198102Y-39504774D01*
X33009744Y-39582795D01*
X32840226Y-39696063D01*
X32696063Y-39840226D01*
X32582795Y-40009744D01*
X32504774Y-40198102D01*
X32465000Y-40398061D01*
X32465000Y-40601939D01*
X32504774Y-40801898D01*
X32582795Y-40990256D01*
X32696063Y-41159774D01*
X32740000Y-41203711D01*
X32740001Y-77462667D01*
X32736324Y-77500000D01*
X32740001Y-77537333D01*
X32750998Y-77648986D01*
X32761915Y-77684974D01*
X32794454Y-77792246D01*
X32865026Y-77924276D01*
X32918142Y-77988997D01*
X32960000Y-78040001D01*
X32988998Y-78063799D01*
X33641182Y-78715984D01*
X33600000Y-78711928D01*
X32100000Y-78711928D01*
X31975518Y-78724188D01*
X31855820Y-78760498D01*
X31745506Y-78819463D01*
X31648815Y-78898815D01*
X31569463Y-78995506D01*
X31510498Y-79105820D01*
X31500000Y-79140427D01*
X31489502Y-79105820D01*
X31430537Y-78995506D01*
X31351185Y-78898815D01*
X31254494Y-78819463D01*
X31144180Y-78760498D01*
X31024482Y-78724188D01*
X30900000Y-78711928D01*
X29400000Y-78711928D01*
X29275518Y-78724188D01*
X29155820Y-78760498D01*
X29045506Y-78819463D01*
X28948815Y-78898815D01*
X28869463Y-78995506D01*
X28810498Y-79105820D01*
X28807713Y-79115000D01*
X24543469Y-79115000D01*
X24500000Y-79110719D01*
X24456531Y-79115000D01*
X24456523Y-79115000D01*
X24385000Y-79122044D01*
X24385000Y-74935000D01*
X25107713Y-74935000D01*
X25110498Y-74944180D01*
X25169463Y-75054494D01*
X25248815Y-75151185D01*
X25345506Y-75230537D01*
X25455820Y-75289502D01*
X25575518Y-75325812D01*
X25700000Y-75338072D01*
X26300000Y-75338072D01*
X26424482Y-75325812D01*
X26544180Y-75289502D01*
X26654494Y-75230537D01*
X26751185Y-75151185D01*
X26830537Y-75054494D01*
X26889502Y-74944180D01*
X26925812Y-74824482D01*
X26938072Y-74700000D01*
X26938072Y-73400000D01*
X26925812Y-73275518D01*
X26914453Y-73238072D01*
X27250000Y-73238072D01*
X27374482Y-73225812D01*
X27494180Y-73189502D01*
X27604494Y-73130537D01*
X27701185Y-73051185D01*
X27780537Y-72954494D01*
X27839502Y-72844180D01*
X27875812Y-72724482D01*
X27877238Y-72710000D01*
X28135198Y-72710000D01*
X28240001Y-72814803D01*
X28240000Y-73962677D01*
X28236324Y-74000000D01*
X28240000Y-74037322D01*
X28240000Y-74037332D01*
X28250997Y-74148985D01*
X28294454Y-74292246D01*
X28365026Y-74424276D01*
X28395164Y-74460999D01*
X28459999Y-74540001D01*
X28489002Y-74563803D01*
X29286201Y-75361003D01*
X29309999Y-75390001D01*
X29338997Y-75413799D01*
X29425724Y-75484974D01*
X29557753Y-75555546D01*
X29701014Y-75599003D01*
X29711936Y-75600079D01*
X29724188Y-75724482D01*
X29760498Y-75844180D01*
X29819463Y-75954494D01*
X29898815Y-76051185D01*
X29995506Y-76130537D01*
X30105820Y-76189502D01*
X30225518Y-76225812D01*
X30350000Y-76238072D01*
X31650000Y-76238072D01*
X31774482Y-76225812D01*
X31894180Y-76189502D01*
X32004494Y-76130537D01*
X32101185Y-76051185D01*
X32180537Y-75954494D01*
X32239502Y-75844180D01*
X32275812Y-75724482D01*
X32288072Y-75600000D01*
X32288072Y-74100000D01*
X32275812Y-73975518D01*
X32239502Y-73855820D01*
X32180537Y-73745506D01*
X32101185Y-73648815D01*
X32004494Y-73569463D01*
X31894180Y-73510498D01*
X31859573Y-73500000D01*
X31894180Y-73489502D01*
X32004494Y-73430537D01*
X32101185Y-73351185D01*
X32180537Y-73254494D01*
X32239502Y-73144180D01*
X32275812Y-73024482D01*
X32288072Y-72900000D01*
X32288072Y-71400000D01*
X32275812Y-71275518D01*
X32239502Y-71155820D01*
X32180537Y-71045506D01*
X32101185Y-70948815D01*
X32004494Y-70869463D01*
X31894180Y-70810498D01*
X31774482Y-70774188D01*
X31760000Y-70772762D01*
X31760000Y-70703711D01*
X31803937Y-70659774D01*
X31917205Y-70490256D01*
X31995226Y-70301898D01*
X32035000Y-70101939D01*
X32035000Y-69898061D01*
X31995226Y-69698102D01*
X31917205Y-69509744D01*
X31803937Y-69340226D01*
X31659774Y-69196063D01*
X31490256Y-69082795D01*
X31301898Y-69004774D01*
X31101939Y-68965000D01*
X30898061Y-68965000D01*
X30698102Y-69004774D01*
X30509744Y-69082795D01*
X30340226Y-69196063D01*
X30196063Y-69340226D01*
X30082795Y-69509744D01*
X30004774Y-69698102D01*
X29965000Y-69898061D01*
X29965000Y-70101939D01*
X30004774Y-70301898D01*
X30082795Y-70490256D01*
X30196063Y-70659774D01*
X30240001Y-70703712D01*
X30240001Y-70772762D01*
X30225518Y-70774188D01*
X30105820Y-70810498D01*
X29995506Y-70869463D01*
X29898815Y-70948815D01*
X29819463Y-71045506D01*
X29760498Y-71155820D01*
X29724188Y-71275518D01*
X29711928Y-71400000D01*
X29711928Y-72228792D01*
X29705546Y-72207753D01*
X29634974Y-72075724D01*
X29621811Y-72059685D01*
X29563799Y-71988996D01*
X29563795Y-71988992D01*
X29540001Y-71959999D01*
X29511007Y-71936205D01*
X29013803Y-71439002D01*
X28990001Y-71409999D01*
X28874276Y-71315026D01*
X28742247Y-71244454D01*
X28598986Y-71200997D01*
X28487333Y-71190000D01*
X28487322Y-71190000D01*
X28450000Y-71186324D01*
X28412678Y-71190000D01*
X27877238Y-71190000D01*
X27875812Y-71175518D01*
X27839502Y-71055820D01*
X27780537Y-70945506D01*
X27701185Y-70848815D01*
X27604494Y-70769463D01*
X27494180Y-70710498D01*
X27374482Y-70674188D01*
X27250000Y-70661928D01*
X26650000Y-70661928D01*
X26525518Y-70674188D01*
X26405820Y-70710498D01*
X26295506Y-70769463D01*
X26198815Y-70848815D01*
X26119463Y-70945506D01*
X26060498Y-71055820D01*
X26024188Y-71175518D01*
X26011928Y-71300000D01*
X26011928Y-72600000D01*
X26024188Y-72724482D01*
X26035547Y-72761928D01*
X25964453Y-72761928D01*
X25975812Y-72724482D01*
X25988072Y-72600000D01*
X25988072Y-71300000D01*
X25975812Y-71175518D01*
X25939502Y-71055820D01*
X25880537Y-70945506D01*
X25810000Y-70859556D01*
X25810000Y-68138072D01*
X26500000Y-68138072D01*
X26624482Y-68125812D01*
X26744180Y-68089502D01*
X26854494Y-68030537D01*
X26951185Y-67951185D01*
X27030537Y-67854494D01*
X27089502Y-67744180D01*
X27125812Y-67624482D01*
X27138072Y-67500000D01*
X27138072Y-64500000D01*
X27132399Y-64442402D01*
X28461004Y-63113798D01*
X28490001Y-63090001D01*
X28516332Y-63057917D01*
X28584974Y-62974277D01*
X28655546Y-62842247D01*
X28676157Y-62774299D01*
X28699003Y-62698986D01*
X28710000Y-62587333D01*
X28710000Y-62587323D01*
X28713676Y-62550001D01*
X28710000Y-62512678D01*
X28710000Y-54087333D01*
X28713677Y-54050000D01*
X28699003Y-53901014D01*
X28655546Y-53757753D01*
X28584974Y-53625724D01*
X28513799Y-53538997D01*
X28490001Y-53509999D01*
X28461003Y-53486201D01*
X27888072Y-52913271D01*
X27888072Y-52400000D01*
X27875812Y-52275518D01*
X27839502Y-52155820D01*
X27780537Y-52045506D01*
X27701185Y-51948815D01*
X27604494Y-51869463D01*
X27494180Y-51810498D01*
X27374482Y-51774188D01*
X27250000Y-51761928D01*
X26914453Y-51761928D01*
X26925812Y-51724482D01*
X26938072Y-51600000D01*
X26938072Y-50300000D01*
X26925812Y-50175518D01*
X26889502Y-50055820D01*
X26830537Y-49945506D01*
X26751185Y-49848815D01*
X26654494Y-49769463D01*
X26544180Y-49710498D01*
X26424482Y-49674188D01*
X26300000Y-49661928D01*
X25700000Y-49661928D01*
X25575518Y-49674188D01*
X25455820Y-49710498D01*
X25345506Y-49769463D01*
X25248815Y-49848815D01*
X25169463Y-49945506D01*
X25110498Y-50055820D01*
X25074188Y-50175518D01*
X25061928Y-50300000D01*
X25061928Y-51600000D01*
X25074188Y-51724482D01*
X25110498Y-51844180D01*
X25169463Y-51954494D01*
X25177000Y-51963678D01*
X25177000Y-52923000D01*
X25826250Y-52923000D01*
X25985000Y-52764250D01*
X25988072Y-52400000D01*
X25975812Y-52275518D01*
X25964453Y-52238072D01*
X26035547Y-52238072D01*
X26024188Y-52275518D01*
X26011928Y-52400000D01*
X26011928Y-53700000D01*
X26024188Y-53824482D01*
X26060498Y-53944180D01*
X26119463Y-54054494D01*
X26198815Y-54151185D01*
X26295506Y-54230537D01*
X26405820Y-54289502D01*
X26525518Y-54325812D01*
X26650000Y-54338072D01*
X27163270Y-54338072D01*
X27190001Y-54364803D01*
X27190000Y-62235198D01*
X25563271Y-63861928D01*
X23500000Y-63861928D01*
X23375518Y-63874188D01*
X23255820Y-63910498D01*
X23145506Y-63969463D01*
X23048815Y-64048815D01*
X22969463Y-64145506D01*
X22910498Y-64255820D01*
X22874188Y-64375518D01*
X22861928Y-64500000D01*
X22861928Y-67500000D01*
X22874188Y-67624482D01*
X22910498Y-67744180D01*
X22969463Y-67854494D01*
X23048815Y-67951185D01*
X23145506Y-68030537D01*
X23255820Y-68089502D01*
X23375518Y-68125812D01*
X23500000Y-68138072D01*
X24290001Y-68138072D01*
X24290000Y-70859556D01*
X24219463Y-70945506D01*
X24160498Y-71055820D01*
X24124188Y-71175518D01*
X24111928Y-71300000D01*
X24111928Y-72600000D01*
X24124188Y-72724482D01*
X24160498Y-72844180D01*
X24219463Y-72954494D01*
X24298815Y-73051185D01*
X24395506Y-73130537D01*
X24459981Y-73165000D01*
X23993465Y-73165000D01*
X23949999Y-73160719D01*
X23906533Y-73165000D01*
X23906523Y-73165000D01*
X23776510Y-73177805D01*
X23609687Y-73228411D01*
X23455941Y-73310589D01*
X23321183Y-73421183D01*
X23293466Y-73454956D01*
X22904956Y-73843466D01*
X22871183Y-73871183D01*
X22760589Y-74005942D01*
X22678411Y-74159688D01*
X22660000Y-74220380D01*
X22660000Y-59991653D01*
X23687952Y-59991653D01*
X23843962Y-60307214D01*
X24218745Y-60498020D01*
X24623551Y-60612044D01*
X25042824Y-60644902D01*
X25460451Y-60595334D01*
X25860383Y-60465243D01*
X26156038Y-60307214D01*
X26312048Y-59991653D01*
X25000000Y-58679605D01*
X23687952Y-59991653D01*
X22660000Y-59991653D01*
X22660000Y-58542824D01*
X22855098Y-58542824D01*
X22904666Y-58960451D01*
X23034757Y-59360383D01*
X23192786Y-59656038D01*
X23508347Y-59812048D01*
X24820395Y-58500000D01*
X25179605Y-58500000D01*
X26491653Y-59812048D01*
X26807214Y-59656038D01*
X26998020Y-59281255D01*
X27112044Y-58876449D01*
X27144902Y-58457176D01*
X27095334Y-58039549D01*
X26965243Y-57639617D01*
X26807214Y-57343962D01*
X26491653Y-57187952D01*
X25179605Y-58500000D01*
X24820395Y-58500000D01*
X23508347Y-57187952D01*
X23192786Y-57343962D01*
X23001980Y-57718745D01*
X22887956Y-58123551D01*
X22855098Y-58542824D01*
X22660000Y-58542824D01*
X22660000Y-57008347D01*
X23687952Y-57008347D01*
X25000000Y-58320395D01*
X26312048Y-57008347D01*
X26156038Y-56692786D01*
X25781255Y-56501980D01*
X25376449Y-56387956D01*
X24957176Y-56355098D01*
X24539549Y-56404666D01*
X24139617Y-56534757D01*
X23843962Y-56692786D01*
X23687952Y-57008347D01*
X22660000Y-57008347D01*
X22660000Y-53700000D01*
X24111928Y-53700000D01*
X24124188Y-53824482D01*
X24160498Y-53944180D01*
X24219463Y-54054494D01*
X24298815Y-54151185D01*
X24395506Y-54230537D01*
X24505820Y-54289502D01*
X24625518Y-54325812D01*
X24750000Y-54338072D01*
X24764250Y-54335000D01*
X24923000Y-54176250D01*
X24923000Y-53177000D01*
X25177000Y-53177000D01*
X25177000Y-54176250D01*
X25335750Y-54335000D01*
X25350000Y-54338072D01*
X25474482Y-54325812D01*
X25594180Y-54289502D01*
X25704494Y-54230537D01*
X25801185Y-54151185D01*
X25880537Y-54054494D01*
X25939502Y-53944180D01*
X25975812Y-53824482D01*
X25988072Y-53700000D01*
X25985000Y-53335750D01*
X25826250Y-53177000D01*
X25177000Y-53177000D01*
X24923000Y-53177000D01*
X24273750Y-53177000D01*
X24115000Y-53335750D01*
X24111928Y-53700000D01*
X22660000Y-53700000D01*
X22660000Y-52400000D01*
X24111928Y-52400000D01*
X24115000Y-52764250D01*
X24273750Y-52923000D01*
X24923000Y-52923000D01*
X24923000Y-51923750D01*
X24764250Y-51765000D01*
X24750000Y-51761928D01*
X24625518Y-51774188D01*
X24505820Y-51810498D01*
X24395506Y-51869463D01*
X24298815Y-51948815D01*
X24219463Y-52045506D01*
X24160498Y-52155820D01*
X24124188Y-52275518D01*
X24111928Y-52400000D01*
X22660000Y-52400000D01*
X22660000Y-34013740D01*
X24515000Y-34013740D01*
X24515000Y-34306260D01*
X24572068Y-34593158D01*
X24684010Y-34863411D01*
X24846525Y-35106632D01*
X25053368Y-35313475D01*
X25296589Y-35475990D01*
X25566842Y-35587932D01*
X25853740Y-35645000D01*
X26146260Y-35645000D01*
X26433158Y-35587932D01*
X26703411Y-35475990D01*
X26946632Y-35313475D01*
X27153475Y-35106632D01*
X27315990Y-34863411D01*
X27427932Y-34593158D01*
X27485000Y-34306260D01*
X27485000Y-34013740D01*
X27427932Y-33726842D01*
X27315990Y-33456589D01*
X27153475Y-33213368D01*
X26946632Y-33006525D01*
X26764466Y-32884805D01*
X26881355Y-32815178D01*
X27097588Y-32620269D01*
X27271641Y-32386920D01*
X27396825Y-32124099D01*
X27441476Y-31976890D01*
X27320155Y-31747000D01*
X26127000Y-31747000D01*
X26127000Y-31767000D01*
X25873000Y-31767000D01*
X25873000Y-31747000D01*
X24679845Y-31747000D01*
X24558524Y-31976890D01*
X24603175Y-32124099D01*
X24728359Y-32386920D01*
X24902412Y-32620269D01*
X25118645Y-32815178D01*
X25235534Y-32884805D01*
X25053368Y-33006525D01*
X24846525Y-33213368D01*
X24684010Y-33456589D01*
X24572068Y-33726842D01*
X24515000Y-34013740D01*
X22660000Y-34013740D01*
X22660000Y-29436890D01*
X24558524Y-29436890D01*
X24603175Y-29584099D01*
X24728359Y-29846920D01*
X24902412Y-30080269D01*
X25118645Y-30275178D01*
X25244255Y-30350000D01*
X25118645Y-30424822D01*
X24902412Y-30619731D01*
X24728359Y-30853080D01*
X24603175Y-31115901D01*
X24558524Y-31263110D01*
X24679845Y-31493000D01*
X25873000Y-31493000D01*
X25873000Y-29207000D01*
X24679845Y-29207000D01*
X24558524Y-29436890D01*
X22660000Y-29436890D01*
X22660000Y-22032279D01*
X22688625Y-21740341D01*
X22764035Y-21490571D01*
X22886522Y-21260208D01*
X23051422Y-21058020D01*
X23252450Y-20891714D01*
X23481954Y-20767622D01*
X23731195Y-20690469D01*
X24021088Y-20660000D01*
X35265198Y-20660000D01*
X34409002Y-21516196D01*
G04 #@! TA.AperFunction,Conductor*
D28*
G36*
X34409002Y-21516196D02*
G01*
X34379999Y-21539999D01*
X34324871Y-21607174D01*
X34285026Y-21655724D01*
X34235167Y-21749003D01*
X34214454Y-21787754D01*
X34170997Y-21931015D01*
X34160000Y-22042668D01*
X34160000Y-22042678D01*
X34156324Y-22080000D01*
X34160000Y-22117323D01*
X34160000Y-22721821D01*
X33973368Y-22846525D01*
X33766525Y-23053368D01*
X33650000Y-23227760D01*
X33533475Y-23053368D01*
X33326632Y-22846525D01*
X33083411Y-22684010D01*
X32813158Y-22572068D01*
X32526260Y-22515000D01*
X32233740Y-22515000D01*
X31946842Y-22572068D01*
X31676589Y-22684010D01*
X31433368Y-22846525D01*
X31226525Y-23053368D01*
X31064010Y-23296589D01*
X30952068Y-23566842D01*
X30895000Y-23853740D01*
X30895000Y-24146260D01*
X30952068Y-24433158D01*
X31064010Y-24703411D01*
X31226525Y-24946632D01*
X31433368Y-25153475D01*
X31676589Y-25315990D01*
X31946842Y-25427932D01*
X32233740Y-25485000D01*
X32526260Y-25485000D01*
X32813158Y-25427932D01*
X33083411Y-25315990D01*
X33326632Y-25153475D01*
X33533475Y-24946632D01*
X33650000Y-24772240D01*
X33766525Y-24946632D01*
X33973368Y-25153475D01*
X34216589Y-25315990D01*
X34486842Y-25427932D01*
X34773740Y-25485000D01*
X35066260Y-25485000D01*
X35353158Y-25427932D01*
X35623411Y-25315990D01*
X35866632Y-25153475D01*
X36073475Y-24946632D01*
X36195195Y-24764466D01*
X36264822Y-24881355D01*
X36459731Y-25097588D01*
X36693080Y-25271641D01*
X36955901Y-25396825D01*
X37103110Y-25441476D01*
X37333000Y-25320155D01*
X37333000Y-24127000D01*
X37313000Y-24127000D01*
X37313000Y-23873000D01*
X37333000Y-23873000D01*
X37333000Y-22679845D01*
X37103110Y-22558524D01*
X36955901Y-22603175D01*
X36693080Y-22728359D01*
X36459731Y-22902412D01*
X36264822Y-23118645D01*
X36195195Y-23235534D01*
X36073475Y-23053368D01*
X35866632Y-22846525D01*
X35680000Y-22721822D01*
X35680000Y-22394801D01*
X36314802Y-21760000D01*
X49685199Y-21760000D01*
X50320001Y-22394803D01*
X50320001Y-22721821D01*
X50133368Y-22846525D01*
X49926525Y-23053368D01*
X49810000Y-23227760D01*
X49693475Y-23053368D01*
X49486632Y-22846525D01*
X49243411Y-22684010D01*
X48973158Y-22572068D01*
X48686260Y-22515000D01*
X48393740Y-22515000D01*
X48106842Y-22572068D01*
X47836589Y-22684010D01*
X47593368Y-22846525D01*
X47461513Y-22978380D01*
X47439502Y-22905820D01*
X47380537Y-22795506D01*
X47301185Y-22698815D01*
X47204494Y-22619463D01*
X47094180Y-22560498D01*
X46974482Y-22524188D01*
X46850000Y-22511928D01*
X45150000Y-22511928D01*
X45025518Y-22524188D01*
X44905820Y-22560498D01*
X44795506Y-22619463D01*
X44698815Y-22698815D01*
X44619463Y-22795506D01*
X44560498Y-22905820D01*
X44524188Y-23025518D01*
X44515375Y-23115000D01*
X41484625Y-23115000D01*
X41475812Y-23025518D01*
X41439502Y-22905820D01*
X41380537Y-22795506D01*
X41301185Y-22698815D01*
X41204494Y-22619463D01*
X41094180Y-22560498D01*
X40974482Y-22524188D01*
X40850000Y-22511928D01*
X39150000Y-22511928D01*
X39025518Y-22524188D01*
X38905820Y-22560498D01*
X38795506Y-22619463D01*
X38698815Y-22698815D01*
X38619463Y-22795506D01*
X38560498Y-22905820D01*
X38536034Y-22986466D01*
X38460269Y-22902412D01*
X38226920Y-22728359D01*
X37964099Y-22603175D01*
X37816890Y-22558524D01*
X37587000Y-22679845D01*
X37587000Y-23873000D01*
X37607000Y-23873000D01*
X37607000Y-24127000D01*
X37587000Y-24127000D01*
X37587000Y-25320155D01*
X37816890Y-25441476D01*
X37964099Y-25396825D01*
X38226920Y-25271641D01*
X38460269Y-25097588D01*
X38536034Y-25013534D01*
X38560498Y-25094180D01*
X38619463Y-25204494D01*
X38698815Y-25301185D01*
X38795506Y-25380537D01*
X38905820Y-25439502D01*
X39025518Y-25475812D01*
X39150000Y-25488072D01*
X40850000Y-25488072D01*
X40974482Y-25475812D01*
X41094180Y-25439502D01*
X41204494Y-25380537D01*
X41301185Y-25301185D01*
X41380537Y-25204494D01*
X41439502Y-25094180D01*
X41475812Y-24974482D01*
X41484625Y-24885000D01*
X43863422Y-24885000D01*
X42872459Y-25875963D01*
X42872454Y-25875967D01*
X42254952Y-26493469D01*
X42254953Y-26493469D01*
X41904952Y-26843470D01*
X41871184Y-26871183D01*
X41843471Y-26904951D01*
X41843468Y-26904954D01*
X41760590Y-27005941D01*
X41678412Y-27159687D01*
X41627805Y-27326510D01*
X41610719Y-27500000D01*
X41615001Y-27543479D01*
X41615000Y-38956531D01*
X41610719Y-39000000D01*
X41615000Y-39043469D01*
X41615000Y-39043476D01*
X41615001Y-39043486D01*
X41615000Y-57095654D01*
X41360983Y-56841637D01*
X41011302Y-56607988D01*
X40622756Y-56447047D01*
X40210279Y-56365000D01*
X39789721Y-56365000D01*
X39377244Y-56447047D01*
X38988698Y-56607988D01*
X38639017Y-56841637D01*
X38341637Y-57139017D01*
X38184999Y-57373443D01*
X38184999Y-37112326D01*
X38188675Y-37075001D01*
X38184999Y-37037676D01*
X38184999Y-37037668D01*
X38174002Y-36926015D01*
X38130545Y-36782754D01*
X38059973Y-36650725D01*
X37965000Y-36535000D01*
X37936002Y-36511202D01*
X29260000Y-27835201D01*
X29260000Y-25037333D01*
X29263677Y-25000000D01*
X29249003Y-24851014D01*
X29205546Y-24707753D01*
X29134974Y-24575724D01*
X29063799Y-24488997D01*
X29040001Y-24459999D01*
X29011003Y-24436201D01*
X28063804Y-23489002D01*
X28040001Y-23459999D01*
X27924276Y-23365026D01*
X27792247Y-23294454D01*
X27648986Y-23250997D01*
X27537333Y-23240000D01*
X27537322Y-23240000D01*
X27500000Y-23236324D01*
X27488072Y-23237499D01*
X27488072Y-23150000D01*
X27475812Y-23025518D01*
X27439502Y-22905820D01*
X27380537Y-22795506D01*
X27301185Y-22698815D01*
X27204494Y-22619463D01*
X27094180Y-22560498D01*
X26974482Y-22524188D01*
X26850000Y-22511928D01*
X25150000Y-22511928D01*
X25025518Y-22524188D01*
X24905820Y-22560498D01*
X24795506Y-22619463D01*
X24698815Y-22698815D01*
X24619463Y-22795506D01*
X24560498Y-22905820D01*
X24524188Y-23025518D01*
X24511928Y-23150000D01*
X24511928Y-24850000D01*
X24524188Y-24974482D01*
X24560498Y-25094180D01*
X24619463Y-25204494D01*
X24698815Y-25301185D01*
X24795506Y-25380537D01*
X24905820Y-25439502D01*
X24978380Y-25461513D01*
X24846525Y-25593368D01*
X24684010Y-25836589D01*
X24572068Y-26106842D01*
X24515000Y-26393740D01*
X24515000Y-26686260D01*
X24572068Y-26973158D01*
X24684010Y-27243411D01*
X24846525Y-27486632D01*
X25053368Y-27693475D01*
X25235534Y-27815195D01*
X25118645Y-27884822D01*
X24902412Y-28079731D01*
X24728359Y-28313080D01*
X24603175Y-28575901D01*
X24558524Y-28723110D01*
X24679845Y-28953000D01*
X25873000Y-28953000D01*
X25873000Y-28933000D01*
X26127000Y-28933000D01*
X26127000Y-28953000D01*
X26147000Y-28953000D01*
X26147000Y-29207000D01*
X26127000Y-29207000D01*
X26127000Y-31493000D01*
X27320155Y-31493000D01*
X27441476Y-31263110D01*
X27396825Y-31115901D01*
X27271641Y-30853080D01*
X27097588Y-30619731D01*
X26881355Y-30424822D01*
X26755745Y-30350000D01*
X26881355Y-30275178D01*
X27097588Y-30080269D01*
X27271641Y-29846920D01*
X27396825Y-29584099D01*
X27441476Y-29436890D01*
X27320156Y-29207002D01*
X27485000Y-29207002D01*
X27485000Y-29099801D01*
X35720001Y-37334803D01*
X35720000Y-72942678D01*
X35716324Y-72980000D01*
X35720000Y-73017322D01*
X35720000Y-73017332D01*
X35730997Y-73128985D01*
X35764088Y-73238072D01*
X35774454Y-73272246D01*
X35845026Y-73404276D01*
X35884871Y-73452826D01*
X35939999Y-73520001D01*
X35969003Y-73543804D01*
X36391503Y-73966304D01*
X36198102Y-74004774D01*
X36009744Y-74082795D01*
X35840226Y-74196063D01*
X35696063Y-74340226D01*
X35582795Y-74509744D01*
X35504774Y-74698102D01*
X35465000Y-74898061D01*
X35465000Y-75101939D01*
X35504774Y-75301898D01*
X35582795Y-75490256D01*
X35696063Y-75659774D01*
X35840226Y-75803937D01*
X36009744Y-75917205D01*
X36198102Y-75995226D01*
X36222103Y-76000000D01*
X36198102Y-76004774D01*
X36009744Y-76082795D01*
X35840226Y-76196063D01*
X35696063Y-76340226D01*
X35582795Y-76509744D01*
X35504774Y-76698102D01*
X35465000Y-76898061D01*
X35465000Y-77101939D01*
X35504774Y-77301898D01*
X35582795Y-77490256D01*
X35618512Y-77543710D01*
X35260000Y-77185199D01*
X35260000Y-43703711D01*
X35303937Y-43659774D01*
X35417205Y-43490256D01*
X35495226Y-43301898D01*
X35535000Y-43101939D01*
X35535000Y-42898061D01*
X35495226Y-42698102D01*
X35417205Y-42509744D01*
X35303937Y-42340226D01*
X35159774Y-42196063D01*
X34990256Y-42082795D01*
X34801898Y-42004774D01*
X34601939Y-41965000D01*
X34398061Y-41965000D01*
X34260000Y-41992462D01*
X34260000Y-41203711D01*
X34303937Y-41159774D01*
X34417205Y-40990256D01*
X34495226Y-40801898D01*
X34535000Y-40601939D01*
X34535000Y-40398061D01*
X34495226Y-40198102D01*
X34417205Y-40009744D01*
X34303937Y-39840226D01*
X34159774Y-39696063D01*
X33990256Y-39582795D01*
X33801898Y-39504774D01*
X33601939Y-39465000D01*
X33398061Y-39465000D01*
X33198102Y-39504774D01*
X33009744Y-39582795D01*
X32840226Y-39696063D01*
X32696063Y-39840226D01*
X32582795Y-40009744D01*
X32504774Y-40198102D01*
X32465000Y-40398061D01*
X32465000Y-40601939D01*
X32504774Y-40801898D01*
X32582795Y-40990256D01*
X32696063Y-41159774D01*
X32740000Y-41203711D01*
X32740001Y-77462667D01*
X32736324Y-77500000D01*
X32740001Y-77537333D01*
X32750998Y-77648986D01*
X32761915Y-77684974D01*
X32794454Y-77792246D01*
X32865026Y-77924276D01*
X32918142Y-77988997D01*
X32960000Y-78040001D01*
X32988998Y-78063799D01*
X33641182Y-78715984D01*
X33600000Y-78711928D01*
X32100000Y-78711928D01*
X31975518Y-78724188D01*
X31855820Y-78760498D01*
X31745506Y-78819463D01*
X31648815Y-78898815D01*
X31569463Y-78995506D01*
X31510498Y-79105820D01*
X31500000Y-79140427D01*
X31489502Y-79105820D01*
X31430537Y-78995506D01*
X31351185Y-78898815D01*
X31254494Y-78819463D01*
X31144180Y-78760498D01*
X31024482Y-78724188D01*
X30900000Y-78711928D01*
X29400000Y-78711928D01*
X29275518Y-78724188D01*
X29155820Y-78760498D01*
X29045506Y-78819463D01*
X28948815Y-78898815D01*
X28869463Y-78995506D01*
X28810498Y-79105820D01*
X28807713Y-79115000D01*
X24543469Y-79115000D01*
X24500000Y-79110719D01*
X24456531Y-79115000D01*
X24456523Y-79115000D01*
X24385000Y-79122044D01*
X24385000Y-74935000D01*
X25107713Y-74935000D01*
X25110498Y-74944180D01*
X25169463Y-75054494D01*
X25248815Y-75151185D01*
X25345506Y-75230537D01*
X25455820Y-75289502D01*
X25575518Y-75325812D01*
X25700000Y-75338072D01*
X26300000Y-75338072D01*
X26424482Y-75325812D01*
X26544180Y-75289502D01*
X26654494Y-75230537D01*
X26751185Y-75151185D01*
X26830537Y-75054494D01*
X26889502Y-74944180D01*
X26925812Y-74824482D01*
X26938072Y-74700000D01*
X26938072Y-73400000D01*
X26925812Y-73275518D01*
X26914453Y-73238072D01*
X27250000Y-73238072D01*
X27374482Y-73225812D01*
X27494180Y-73189502D01*
X27604494Y-73130537D01*
X27701185Y-73051185D01*
X27780537Y-72954494D01*
X27839502Y-72844180D01*
X27875812Y-72724482D01*
X27877238Y-72710000D01*
X28135198Y-72710000D01*
X28240001Y-72814803D01*
X28240000Y-73962677D01*
X28236324Y-74000000D01*
X28240000Y-74037322D01*
X28240000Y-74037332D01*
X28250997Y-74148985D01*
X28294454Y-74292246D01*
X28365026Y-74424276D01*
X28395164Y-74460999D01*
X28459999Y-74540001D01*
X28489002Y-74563803D01*
X29286201Y-75361003D01*
X29309999Y-75390001D01*
X29338997Y-75413799D01*
X29425724Y-75484974D01*
X29557753Y-75555546D01*
X29701014Y-75599003D01*
X29711936Y-75600079D01*
X29724188Y-75724482D01*
X29760498Y-75844180D01*
X29819463Y-75954494D01*
X29898815Y-76051185D01*
X29995506Y-76130537D01*
X30105820Y-76189502D01*
X30225518Y-76225812D01*
X30350000Y-76238072D01*
X31650000Y-76238072D01*
X31774482Y-76225812D01*
X31894180Y-76189502D01*
X32004494Y-76130537D01*
X32101185Y-76051185D01*
X32180537Y-75954494D01*
X32239502Y-75844180D01*
X32275812Y-75724482D01*
X32288072Y-75600000D01*
X32288072Y-74100000D01*
X32275812Y-73975518D01*
X32239502Y-73855820D01*
X32180537Y-73745506D01*
X32101185Y-73648815D01*
X32004494Y-73569463D01*
X31894180Y-73510498D01*
X31859573Y-73500000D01*
X31894180Y-73489502D01*
X32004494Y-73430537D01*
X32101185Y-73351185D01*
X32180537Y-73254494D01*
X32239502Y-73144180D01*
X32275812Y-73024482D01*
X32288072Y-72900000D01*
X32288072Y-71400000D01*
X32275812Y-71275518D01*
X32239502Y-71155820D01*
X32180537Y-71045506D01*
X32101185Y-70948815D01*
X32004494Y-70869463D01*
X31894180Y-70810498D01*
X31774482Y-70774188D01*
X31760000Y-70772762D01*
X31760000Y-70703711D01*
X31803937Y-70659774D01*
X31917205Y-70490256D01*
X31995226Y-70301898D01*
X32035000Y-70101939D01*
X32035000Y-69898061D01*
X31995226Y-69698102D01*
X31917205Y-69509744D01*
X31803937Y-69340226D01*
X31659774Y-69196063D01*
X31490256Y-69082795D01*
X31301898Y-69004774D01*
X31101939Y-68965000D01*
X30898061Y-68965000D01*
X30698102Y-69004774D01*
X30509744Y-69082795D01*
X30340226Y-69196063D01*
X30196063Y-69340226D01*
X30082795Y-69509744D01*
X30004774Y-69698102D01*
X29965000Y-69898061D01*
X29965000Y-70101939D01*
X30004774Y-70301898D01*
X30082795Y-70490256D01*
X30196063Y-70659774D01*
X30240001Y-70703712D01*
X30240001Y-70772762D01*
X30225518Y-70774188D01*
X30105820Y-70810498D01*
X29995506Y-70869463D01*
X29898815Y-70948815D01*
X29819463Y-71045506D01*
X29760498Y-71155820D01*
X29724188Y-71275518D01*
X29711928Y-71400000D01*
X29711928Y-72228792D01*
X29705546Y-72207753D01*
X29634974Y-72075724D01*
X29621811Y-72059685D01*
X29563799Y-71988996D01*
X29563795Y-71988992D01*
X29540001Y-71959999D01*
X29511007Y-71936205D01*
X29013803Y-71439002D01*
X28990001Y-71409999D01*
X28874276Y-71315026D01*
X28742247Y-71244454D01*
X28598986Y-71200997D01*
X28487333Y-71190000D01*
X28487322Y-71190000D01*
X28450000Y-71186324D01*
X28412678Y-71190000D01*
X27877238Y-71190000D01*
X27875812Y-71175518D01*
X27839502Y-71055820D01*
X27780537Y-70945506D01*
X27701185Y-70848815D01*
X27604494Y-70769463D01*
X27494180Y-70710498D01*
X27374482Y-70674188D01*
X27250000Y-70661928D01*
X26650000Y-70661928D01*
X26525518Y-70674188D01*
X26405820Y-70710498D01*
X26295506Y-70769463D01*
X26198815Y-70848815D01*
X26119463Y-70945506D01*
X26060498Y-71055820D01*
X26024188Y-71175518D01*
X26011928Y-71300000D01*
X26011928Y-72600000D01*
X26024188Y-72724482D01*
X26035547Y-72761928D01*
X25964453Y-72761928D01*
X25975812Y-72724482D01*
X25988072Y-72600000D01*
X25988072Y-71300000D01*
X25975812Y-71175518D01*
X25939502Y-71055820D01*
X25880537Y-70945506D01*
X25810000Y-70859556D01*
X25810000Y-68138072D01*
X26500000Y-68138072D01*
X26624482Y-68125812D01*
X26744180Y-68089502D01*
X26854494Y-68030537D01*
X26951185Y-67951185D01*
X27030537Y-67854494D01*
X27089502Y-67744180D01*
X27125812Y-67624482D01*
X27138072Y-67500000D01*
X27138072Y-64500000D01*
X27132399Y-64442402D01*
X28461004Y-63113798D01*
X28490001Y-63090001D01*
X28516332Y-63057917D01*
X28584974Y-62974277D01*
X28655546Y-62842247D01*
X28676157Y-62774299D01*
X28699003Y-62698986D01*
X28710000Y-62587333D01*
X28710000Y-62587323D01*
X28713676Y-62550001D01*
X28710000Y-62512678D01*
X28710000Y-54087333D01*
X28713677Y-54050000D01*
X28699003Y-53901014D01*
X28655546Y-53757753D01*
X28584974Y-53625724D01*
X28513799Y-53538997D01*
X28490001Y-53509999D01*
X28461003Y-53486201D01*
X27888072Y-52913271D01*
X27888072Y-52400000D01*
X27875812Y-52275518D01*
X27839502Y-52155820D01*
X27780537Y-52045506D01*
X27701185Y-51948815D01*
X27604494Y-51869463D01*
X27494180Y-51810498D01*
X27374482Y-51774188D01*
X27250000Y-51761928D01*
X26914453Y-51761928D01*
X26925812Y-51724482D01*
X26938072Y-51600000D01*
X26938072Y-50300000D01*
X26925812Y-50175518D01*
X26889502Y-50055820D01*
X26830537Y-49945506D01*
X26751185Y-49848815D01*
X26654494Y-49769463D01*
X26544180Y-49710498D01*
X26424482Y-49674188D01*
X26300000Y-49661928D01*
X25700000Y-49661928D01*
X25575518Y-49674188D01*
X25455820Y-49710498D01*
X25345506Y-49769463D01*
X25248815Y-49848815D01*
X25169463Y-49945506D01*
X25110498Y-50055820D01*
X25074188Y-50175518D01*
X25061928Y-50300000D01*
X25061928Y-51600000D01*
X25074188Y-51724482D01*
X25110498Y-51844180D01*
X25169463Y-51954494D01*
X25177000Y-51963678D01*
X25177000Y-52923000D01*
X25826250Y-52923000D01*
X25985000Y-52764250D01*
X25988072Y-52400000D01*
X25975812Y-52275518D01*
X25964453Y-52238072D01*
X26035547Y-52238072D01*
X26024188Y-52275518D01*
X26011928Y-52400000D01*
X26011928Y-53700000D01*
X26024188Y-53824482D01*
X26060498Y-53944180D01*
X26119463Y-54054494D01*
X26198815Y-54151185D01*
X26295506Y-54230537D01*
X26405820Y-54289502D01*
X26525518Y-54325812D01*
X26650000Y-54338072D01*
X27163270Y-54338072D01*
X27190001Y-54364803D01*
X27190000Y-62235198D01*
X25563271Y-63861928D01*
X23500000Y-63861928D01*
X23375518Y-63874188D01*
X23255820Y-63910498D01*
X23145506Y-63969463D01*
X23048815Y-64048815D01*
X22969463Y-64145506D01*
X22910498Y-64255820D01*
X22874188Y-64375518D01*
X22861928Y-64500000D01*
X22861928Y-67500000D01*
X22874188Y-67624482D01*
X22910498Y-67744180D01*
X22969463Y-67854494D01*
X23048815Y-67951185D01*
X23145506Y-68030537D01*
X23255820Y-68089502D01*
X23375518Y-68125812D01*
X23500000Y-68138072D01*
X24290001Y-68138072D01*
X24290000Y-70859556D01*
X24219463Y-70945506D01*
X24160498Y-71055820D01*
X24124188Y-71175518D01*
X24111928Y-71300000D01*
X24111928Y-72600000D01*
X24124188Y-72724482D01*
X24160498Y-72844180D01*
X24219463Y-72954494D01*
X24298815Y-73051185D01*
X24395506Y-73130537D01*
X24459981Y-73165000D01*
X23993465Y-73165000D01*
X23949999Y-73160719D01*
X23906533Y-73165000D01*
X23906523Y-73165000D01*
X23776510Y-73177805D01*
X23609687Y-73228411D01*
X23455941Y-73310589D01*
X23321183Y-73421183D01*
X23293466Y-73454956D01*
X22904956Y-73843466D01*
X22871183Y-73871183D01*
X22760589Y-74005942D01*
X22678411Y-74159688D01*
X22660000Y-74220380D01*
X22660000Y-59991653D01*
X23687952Y-59991653D01*
X23843962Y-60307214D01*
X24218745Y-60498020D01*
X24623551Y-60612044D01*
X25042824Y-60644902D01*
X25460451Y-60595334D01*
X25860383Y-60465243D01*
X26156038Y-60307214D01*
X26312048Y-59991653D01*
X25000000Y-58679605D01*
X23687952Y-59991653D01*
X22660000Y-59991653D01*
X22660000Y-58542824D01*
X22855098Y-58542824D01*
X22904666Y-58960451D01*
X23034757Y-59360383D01*
X23192786Y-59656038D01*
X23508347Y-59812048D01*
X24820395Y-58500000D01*
X25179605Y-58500000D01*
X26491653Y-59812048D01*
X26807214Y-59656038D01*
X26998020Y-59281255D01*
X27112044Y-58876449D01*
X27144902Y-58457176D01*
X27095334Y-58039549D01*
X26965243Y-57639617D01*
X26807214Y-57343962D01*
X26491653Y-57187952D01*
X25179605Y-58500000D01*
X24820395Y-58500000D01*
X23508347Y-57187952D01*
X23192786Y-57343962D01*
X23001980Y-57718745D01*
X22887956Y-58123551D01*
X22855098Y-58542824D01*
X22660000Y-58542824D01*
X22660000Y-57008347D01*
X23687952Y-57008347D01*
X25000000Y-58320395D01*
X26312048Y-57008347D01*
X26156038Y-56692786D01*
X25781255Y-56501980D01*
X25376449Y-56387956D01*
X24957176Y-56355098D01*
X24539549Y-56404666D01*
X24139617Y-56534757D01*
X23843962Y-56692786D01*
X23687952Y-57008347D01*
X22660000Y-57008347D01*
X22660000Y-53700000D01*
X24111928Y-53700000D01*
X24124188Y-53824482D01*
X24160498Y-53944180D01*
X24219463Y-54054494D01*
X24298815Y-54151185D01*
X24395506Y-54230537D01*
X24505820Y-54289502D01*
X24625518Y-54325812D01*
X24750000Y-54338072D01*
X24764250Y-54335000D01*
X24923000Y-54176250D01*
X24923000Y-53177000D01*
X25177000Y-53177000D01*
X25177000Y-54176250D01*
X25335750Y-54335000D01*
X25350000Y-54338072D01*
X25474482Y-54325812D01*
X25594180Y-54289502D01*
X25704494Y-54230537D01*
X25801185Y-54151185D01*
X25880537Y-54054494D01*
X25939502Y-53944180D01*
X25975812Y-53824482D01*
X25988072Y-53700000D01*
X25985000Y-53335750D01*
X25826250Y-53177000D01*
X25177000Y-53177000D01*
X24923000Y-53177000D01*
X24273750Y-53177000D01*
X24115000Y-53335750D01*
X24111928Y-53700000D01*
X22660000Y-53700000D01*
X22660000Y-52400000D01*
X24111928Y-52400000D01*
X24115000Y-52764250D01*
X24273750Y-52923000D01*
X24923000Y-52923000D01*
X24923000Y-51923750D01*
X24764250Y-51765000D01*
X24750000Y-51761928D01*
X24625518Y-51774188D01*
X24505820Y-51810498D01*
X24395506Y-51869463D01*
X24298815Y-51948815D01*
X24219463Y-52045506D01*
X24160498Y-52155820D01*
X24124188Y-52275518D01*
X24111928Y-52400000D01*
X22660000Y-52400000D01*
X22660000Y-34013740D01*
X24515000Y-34013740D01*
X24515000Y-34306260D01*
X24572068Y-34593158D01*
X24684010Y-34863411D01*
X24846525Y-35106632D01*
X25053368Y-35313475D01*
X25296589Y-35475990D01*
X25566842Y-35587932D01*
X25853740Y-35645000D01*
X26146260Y-35645000D01*
X26433158Y-35587932D01*
X26703411Y-35475990D01*
X26946632Y-35313475D01*
X27153475Y-35106632D01*
X27315990Y-34863411D01*
X27427932Y-34593158D01*
X27485000Y-34306260D01*
X27485000Y-34013740D01*
X27427932Y-33726842D01*
X27315990Y-33456589D01*
X27153475Y-33213368D01*
X26946632Y-33006525D01*
X26764466Y-32884805D01*
X26881355Y-32815178D01*
X27097588Y-32620269D01*
X27271641Y-32386920D01*
X27396825Y-32124099D01*
X27441476Y-31976890D01*
X27320155Y-31747000D01*
X26127000Y-31747000D01*
X26127000Y-31767000D01*
X25873000Y-31767000D01*
X25873000Y-31747000D01*
X24679845Y-31747000D01*
X24558524Y-31976890D01*
X24603175Y-32124099D01*
X24728359Y-32386920D01*
X24902412Y-32620269D01*
X25118645Y-32815178D01*
X25235534Y-32884805D01*
X25053368Y-33006525D01*
X24846525Y-33213368D01*
X24684010Y-33456589D01*
X24572068Y-33726842D01*
X24515000Y-34013740D01*
X22660000Y-34013740D01*
X22660000Y-29436890D01*
X24558524Y-29436890D01*
X24603175Y-29584099D01*
X24728359Y-29846920D01*
X24902412Y-30080269D01*
X25118645Y-30275178D01*
X25244255Y-30350000D01*
X25118645Y-30424822D01*
X24902412Y-30619731D01*
X24728359Y-30853080D01*
X24603175Y-31115901D01*
X24558524Y-31263110D01*
X24679845Y-31493000D01*
X25873000Y-31493000D01*
X25873000Y-29207000D01*
X24679845Y-29207000D01*
X24558524Y-29436890D01*
X22660000Y-29436890D01*
X22660000Y-22032279D01*
X22688625Y-21740341D01*
X22764035Y-21490571D01*
X22886522Y-21260208D01*
X23051422Y-21058020D01*
X23252450Y-20891714D01*
X23481954Y-20767622D01*
X23731195Y-20690469D01*
X24021088Y-20660000D01*
X35265198Y-20660000D01*
X34409002Y-21516196D01*
G37*
G04 #@! TD.AperFunction*
D27*
X41035750Y-75260000D02*
X41500000Y-75263072D01*
X41624482Y-75250812D01*
X41640001Y-75246104D01*
X41640000Y-78209556D01*
X41600000Y-78258296D01*
X41551185Y-78198815D01*
X41454494Y-78119463D01*
X41377625Y-78078375D01*
X41314250Y-78015000D01*
X41300000Y-78011928D01*
X41200000Y-78021777D01*
X41100000Y-78011928D01*
X40760000Y-78011928D01*
X40760000Y-75260000D01*
X40877002Y-75260000D01*
X40877002Y-75101252D01*
X41035750Y-75260000D01*
G04 #@! TA.AperFunction,Conductor*
D28*
G36*
X41035750Y-75260000D02*
G01*
X41500000Y-75263072D01*
X41624482Y-75250812D01*
X41640001Y-75246104D01*
X41640000Y-78209556D01*
X41600000Y-78258296D01*
X41551185Y-78198815D01*
X41454494Y-78119463D01*
X41377625Y-78078375D01*
X41314250Y-78015000D01*
X41300000Y-78011928D01*
X41200000Y-78021777D01*
X41100000Y-78011928D01*
X40760000Y-78011928D01*
X40760000Y-75260000D01*
X40877002Y-75260000D01*
X40877002Y-75101252D01*
X41035750Y-75260000D01*
G37*
G04 #@! TD.AperFunction*
D27*
X38341637Y-67360983D02*
X38639017Y-67658363D01*
X38988698Y-67892012D01*
X39377244Y-68052953D01*
X39789721Y-68135000D01*
X40210279Y-68135000D01*
X40622756Y-68052953D01*
X41011302Y-67892012D01*
X41360983Y-67658363D01*
X41615000Y-67404346D01*
X41615000Y-69456531D01*
X41610719Y-69500000D01*
X41615000Y-69543469D01*
X41615000Y-69543476D01*
X41627805Y-69673489D01*
X41678411Y-69840312D01*
X41760589Y-69994058D01*
X41871183Y-70128817D01*
X41904956Y-70156534D01*
X45748421Y-74000000D01*
X43404951Y-76343471D01*
X43371184Y-76371183D01*
X43343471Y-76404951D01*
X43343468Y-76404954D01*
X43260590Y-76505941D01*
X43178412Y-76659687D01*
X43160000Y-76720381D01*
X43160000Y-75263072D01*
X44000000Y-75263072D01*
X44124482Y-75250812D01*
X44244180Y-75214502D01*
X44354494Y-75155537D01*
X44451185Y-75076185D01*
X44530537Y-74979494D01*
X44589502Y-74869180D01*
X44625812Y-74749482D01*
X44638072Y-74625000D01*
X44638072Y-73375000D01*
X44625812Y-73250518D01*
X44589502Y-73130820D01*
X44530537Y-73020506D01*
X44451185Y-72923815D01*
X44354494Y-72844463D01*
X44244180Y-72785498D01*
X44124482Y-72749188D01*
X44000000Y-72736928D01*
X42500000Y-72736928D01*
X42375518Y-72749188D01*
X42255820Y-72785498D01*
X42145506Y-72844463D01*
X42048815Y-72923815D01*
X42000000Y-72983296D01*
X41951185Y-72923815D01*
X41854494Y-72844463D01*
X41744180Y-72785498D01*
X41624482Y-72749188D01*
X41500000Y-72736928D01*
X41035750Y-72740000D01*
X40877000Y-72898750D01*
X40877000Y-73873000D01*
X40897000Y-73873000D01*
X40897000Y-74127000D01*
X40877000Y-74127000D01*
X40877000Y-74147000D01*
X40623000Y-74147000D01*
X40623000Y-74127000D01*
X40603000Y-74127000D01*
X40603000Y-73873000D01*
X40623000Y-73873000D01*
X40623000Y-72898750D01*
X40464250Y-72740000D01*
X40000000Y-72736928D01*
X39875518Y-72749188D01*
X39755820Y-72785498D01*
X39645506Y-72844463D01*
X39548815Y-72923815D01*
X39469463Y-73020506D01*
X39410498Y-73130820D01*
X39374188Y-73250518D01*
X39361928Y-73375000D01*
X39363044Y-73498244D01*
X38184999Y-72320200D01*
X38184999Y-67126557D01*
X38341637Y-67360983D01*
G04 #@! TA.AperFunction,Conductor*
D28*
G36*
X38341637Y-67360983D02*
G01*
X38639017Y-67658363D01*
X38988698Y-67892012D01*
X39377244Y-68052953D01*
X39789721Y-68135000D01*
X40210279Y-68135000D01*
X40622756Y-68052953D01*
X41011302Y-67892012D01*
X41360983Y-67658363D01*
X41615000Y-67404346D01*
X41615000Y-69456531D01*
X41610719Y-69500000D01*
X41615000Y-69543469D01*
X41615000Y-69543476D01*
X41627805Y-69673489D01*
X41678411Y-69840312D01*
X41760589Y-69994058D01*
X41871183Y-70128817D01*
X41904956Y-70156534D01*
X45748421Y-74000000D01*
X43404951Y-76343471D01*
X43371184Y-76371183D01*
X43343471Y-76404951D01*
X43343468Y-76404954D01*
X43260590Y-76505941D01*
X43178412Y-76659687D01*
X43160000Y-76720381D01*
X43160000Y-75263072D01*
X44000000Y-75263072D01*
X44124482Y-75250812D01*
X44244180Y-75214502D01*
X44354494Y-75155537D01*
X44451185Y-75076185D01*
X44530537Y-74979494D01*
X44589502Y-74869180D01*
X44625812Y-74749482D01*
X44638072Y-74625000D01*
X44638072Y-73375000D01*
X44625812Y-73250518D01*
X44589502Y-73130820D01*
X44530537Y-73020506D01*
X44451185Y-72923815D01*
X44354494Y-72844463D01*
X44244180Y-72785498D01*
X44124482Y-72749188D01*
X44000000Y-72736928D01*
X42500000Y-72736928D01*
X42375518Y-72749188D01*
X42255820Y-72785498D01*
X42145506Y-72844463D01*
X42048815Y-72923815D01*
X42000000Y-72983296D01*
X41951185Y-72923815D01*
X41854494Y-72844463D01*
X41744180Y-72785498D01*
X41624482Y-72749188D01*
X41500000Y-72736928D01*
X41035750Y-72740000D01*
X40877000Y-72898750D01*
X40877000Y-73873000D01*
X40897000Y-73873000D01*
X40897000Y-74127000D01*
X40877000Y-74127000D01*
X40877000Y-74147000D01*
X40623000Y-74147000D01*
X40623000Y-74127000D01*
X40603000Y-74127000D01*
X40603000Y-73873000D01*
X40623000Y-73873000D01*
X40623000Y-72898750D01*
X40464250Y-72740000D01*
X40000000Y-72736928D01*
X39875518Y-72749188D01*
X39755820Y-72785498D01*
X39645506Y-72844463D01*
X39548815Y-72923815D01*
X39469463Y-73020506D01*
X39410498Y-73130820D01*
X39374188Y-73250518D01*
X39361928Y-73375000D01*
X39363044Y-73498244D01*
X38184999Y-72320200D01*
X38184999Y-67126557D01*
X38341637Y-67360983D01*
G37*
G04 #@! TD.AperFunction*
M02*
