M48
; DRILL file {KiCad (5.1.8)-1} date 05/16/21 02:32:09
; FORMAT={-:-/ absolute / metric / decimal}
; #@! TF.CreationDate,2021-05-16T02:32:09+02:00
; #@! TF.GenerationSoftware,Kicad,Pcbnew,(5.1.8)-1
; #@! TF.FileFunction,Plated,1,2,PTH
FMAT,2
METRIC
T1C0.400
T2C1.000
T3C1.500
T4C1.520
%
G90
G05
T1
X31.0Y-70.0
X33.5Y-40.5
X34.5Y-43.0
X36.5Y-75.0
X36.5Y-77.0
X40.0Y-84.0
X40.75Y-70.75
X43.5Y-84.0
T2
X55.0Y-82.46
X55.0Y-85.0
X46.0Y-24.0
X48.54Y-24.0
X51.08Y-24.0
X53.62Y-24.0
X56.16Y-24.0
X32.38Y-24.0
X34.92Y-24.0
X37.46Y-24.0
X40.0Y-24.0
X26.0Y-24.0
X26.0Y-26.54
X26.0Y-29.08
X26.0Y-31.62
X26.0Y-34.16
X35.5Y-101.0
X38.04Y-101.0
X40.58Y-101.0
X48.92Y-99.0
X48.92Y-101.54
X51.46Y-99.0
X51.46Y-101.54
X54.0Y-99.0
X54.0Y-101.54
X26.0Y-91.0
X26.0Y-93.54
X26.0Y-96.08
X26.0Y-98.62
X26.0Y-101.16
T3
X25.0Y-58.5
X25.0Y-66.0
X40.0Y-58.5
X40.0Y-66.0
X45.0Y-58.5
X45.0Y-66.0
X50.0Y-58.5
X50.0Y-66.0
T4
X97.5Y-38.42
X97.5Y-43.5
X97.5Y-81.42
X97.5Y-86.5
T0
M30
