G04 #@! TF.GenerationSoftware,KiCad,Pcbnew,(5.1.8)-1*
G04 #@! TF.CreationDate,2021-05-16T02:31:53+02:00*
G04 #@! TF.ProjectId,gtimer,6774696d-6572-42e6-9b69-6361645f7063,rev?*
G04 #@! TF.SameCoordinates,Original*
G04 #@! TF.FileFunction,Copper,L2,Bot*
G04 #@! TF.FilePolarity,Positive*
%FSLAX46Y46*%
G04 Gerber Fmt 4.6, Leading zero omitted, Abs format (unit mm)*
G04 Created by KiCad (PCBNEW (5.1.8)-1) date 2021-05-16 02:31:53*
%MOMM*%
%LPD*%
G01*
G04 APERTURE LIST*
G04 #@! TA.AperFunction,ComponentPad*
%ADD10R,1.700000X1.700000*%
G04 #@! TD*
G04 #@! TA.AperFunction,ComponentPad*
%ADD11O,1.700000X1.700000*%
G04 #@! TD*
G04 #@! TA.AperFunction,ComponentPad*
%ADD12R,3.000000X3.000000*%
G04 #@! TD*
G04 #@! TA.AperFunction,ComponentPad*
%ADD13C,3.000000*%
G04 #@! TD*
G04 #@! TA.AperFunction,ViaPad*
%ADD14C,0.800000*%
G04 #@! TD*
G04 #@! TA.AperFunction,Conductor*
%ADD15C,2.000000*%
G04 #@! TD*
G04 #@! TA.AperFunction,Conductor*
%ADD16C,0.250000*%
G04 #@! TD*
G04 #@! TA.AperFunction,Conductor*
%ADD17C,0.254000*%
G04 #@! TD*
G04 #@! TA.AperFunction,Conductor*
%ADD18C,0.100000*%
G04 #@! TD*
G04 APERTURE END LIST*
D10*
X26000000Y-91000000D03*
D11*
X26000000Y-93540000D03*
X26000000Y-96080000D03*
X26000000Y-98620000D03*
X26000000Y-101160000D03*
D10*
X26000000Y-24000000D03*
D11*
X26000000Y-26540000D03*
X26000000Y-29080000D03*
X26000000Y-31620000D03*
X26000000Y-34160000D03*
D10*
X46000000Y-24000000D03*
D11*
X48540000Y-24000000D03*
X51080000Y-24000000D03*
X53620000Y-24000000D03*
X56160000Y-24000000D03*
D12*
X97500000Y-43500000D03*
D13*
X97500000Y-38420000D03*
D12*
X97500000Y-86500000D03*
D13*
X97500000Y-81420000D03*
D12*
X25000000Y-66000000D03*
D13*
X25000000Y-58500000D03*
X45000000Y-66000000D03*
X50000000Y-66000000D03*
X40000000Y-66000000D03*
X45000000Y-58500000D03*
X50000000Y-58500000D03*
X40000000Y-58500000D03*
D10*
X55000000Y-85000000D03*
D11*
X55000000Y-82460000D03*
D10*
X54000000Y-99000000D03*
D11*
X54000000Y-101540000D03*
X51460000Y-99000000D03*
X51460000Y-101540000D03*
X48920000Y-99000000D03*
X48920000Y-101540000D03*
D10*
X35500000Y-101000000D03*
D11*
X38040000Y-101000000D03*
X40580000Y-101000000D03*
D10*
X40000000Y-24000000D03*
D11*
X37460000Y-24000000D03*
X34920000Y-24000000D03*
X32380000Y-24000000D03*
D14*
X40750000Y-70750000D03*
X40000000Y-84000000D03*
X33500000Y-40500000D03*
X34500000Y-43000000D03*
X36500000Y-75000000D03*
X36500000Y-77000000D03*
X43500000Y-84000000D03*
X31000000Y-70000000D03*
D15*
X102000000Y-84000000D02*
X99500000Y-86500000D01*
X102000000Y-77000000D02*
X102000000Y-84000000D01*
X99000000Y-74000000D02*
X102000000Y-77000000D01*
X99500000Y-86500000D02*
X97500000Y-86500000D01*
X50500000Y-74000000D02*
X99000000Y-74000000D01*
X45000000Y-68500000D02*
X50500000Y-74000000D01*
X45000000Y-66000000D02*
X45000000Y-68500000D01*
D16*
X48920000Y-92920000D02*
X48000000Y-92000000D01*
X48920000Y-99000000D02*
X48920000Y-92920000D01*
X48000000Y-92000000D02*
X40000000Y-84000000D01*
X34920000Y-24000000D02*
X34920000Y-26080000D01*
X33500000Y-36500000D02*
X33500000Y-27500000D01*
X34920000Y-26080000D02*
X33500000Y-27500000D01*
X33500000Y-36500000D02*
X33500000Y-40500000D01*
X48540000Y-24000000D02*
X48540000Y-22540000D01*
X48540000Y-22540000D02*
X48000000Y-22000000D01*
X32380000Y-24000000D02*
X32380000Y-22620000D01*
X33000000Y-22000000D02*
X48000000Y-22000000D01*
X32380000Y-22620000D02*
X33000000Y-22000000D01*
X32380000Y-24000000D02*
X32380000Y-41880000D01*
X34500000Y-43000000D02*
X33000000Y-43000000D01*
X32380000Y-42380000D02*
X32380000Y-41880000D01*
X33000000Y-43000000D02*
X32380000Y-42380000D01*
X26000000Y-83030923D02*
X26000000Y-91000000D01*
X26000000Y-77500000D02*
X26000000Y-83030923D01*
X28500000Y-75000000D02*
X26000000Y-77500000D01*
X36500000Y-75000000D02*
X28500000Y-75000000D01*
X36000000Y-76500000D02*
X36500000Y-77000000D01*
X29000000Y-76500000D02*
X36000000Y-76500000D01*
X28020000Y-77480000D02*
X29000000Y-76500000D01*
X28020000Y-92980000D02*
X28020000Y-77480000D01*
X27460000Y-93540000D02*
X28020000Y-92980000D01*
X26000000Y-93540000D02*
X27460000Y-93540000D01*
X33500000Y-70000000D02*
X31000000Y-70000000D01*
X36500000Y-70000000D02*
X33500000Y-70000000D01*
X43500000Y-77000000D02*
X36500000Y-70000000D01*
X43500000Y-84000000D02*
X43500000Y-77000000D01*
D15*
X94500000Y-70000000D02*
X97500000Y-67000000D01*
X51500000Y-70000000D02*
X94500000Y-70000000D01*
X97500000Y-67000000D02*
X97500000Y-43500000D01*
X50000000Y-68500000D02*
X51500000Y-70000000D01*
X50000000Y-66000000D02*
X50000000Y-68500000D01*
X55500000Y-54000000D02*
X85500000Y-54000000D01*
X85500000Y-54000000D02*
X92000000Y-47500000D01*
X92000000Y-40840000D02*
X94420000Y-38420000D01*
X92000000Y-47500000D02*
X92000000Y-40840000D01*
X94420000Y-38420000D02*
X97500000Y-38420000D01*
X54500000Y-54000000D02*
X50000000Y-58500000D01*
X55500000Y-54000000D02*
X54500000Y-54000000D01*
D17*
X158259659Y-20688625D02*
X158509429Y-20764035D01*
X158739792Y-20886522D01*
X158941980Y-21051422D01*
X159108286Y-21252450D01*
X159232378Y-21481954D01*
X159309531Y-21731195D01*
X159340000Y-22021088D01*
X159340001Y-102967711D01*
X159311375Y-103259660D01*
X159235965Y-103509429D01*
X159113477Y-103739794D01*
X158948579Y-103941979D01*
X158747546Y-104108288D01*
X158518046Y-104232378D01*
X158268805Y-104309531D01*
X157978911Y-104340000D01*
X24032279Y-104340000D01*
X23740340Y-104311375D01*
X23490571Y-104235965D01*
X23260206Y-104113477D01*
X23058021Y-103948579D01*
X22891712Y-103747546D01*
X22767622Y-103518046D01*
X22690469Y-103268805D01*
X22660000Y-102978911D01*
X22660000Y-101013740D01*
X24515000Y-101013740D01*
X24515000Y-101306260D01*
X24572068Y-101593158D01*
X24684010Y-101863411D01*
X24846525Y-102106632D01*
X25053368Y-102313475D01*
X25296589Y-102475990D01*
X25566842Y-102587932D01*
X25853740Y-102645000D01*
X26146260Y-102645000D01*
X26433158Y-102587932D01*
X26703411Y-102475990D01*
X26946632Y-102313475D01*
X27153475Y-102106632D01*
X27315990Y-101863411D01*
X27427932Y-101593158D01*
X27485000Y-101306260D01*
X27485000Y-101013740D01*
X27427932Y-100726842D01*
X27315990Y-100456589D01*
X27153475Y-100213368D01*
X27090107Y-100150000D01*
X34011928Y-100150000D01*
X34011928Y-101850000D01*
X34024188Y-101974482D01*
X34060498Y-102094180D01*
X34119463Y-102204494D01*
X34198815Y-102301185D01*
X34295506Y-102380537D01*
X34405820Y-102439502D01*
X34525518Y-102475812D01*
X34650000Y-102488072D01*
X36350000Y-102488072D01*
X36474482Y-102475812D01*
X36594180Y-102439502D01*
X36704494Y-102380537D01*
X36801185Y-102301185D01*
X36880537Y-102204494D01*
X36939502Y-102094180D01*
X36961513Y-102021620D01*
X37093368Y-102153475D01*
X37336589Y-102315990D01*
X37606842Y-102427932D01*
X37893740Y-102485000D01*
X38186260Y-102485000D01*
X38473158Y-102427932D01*
X38743411Y-102315990D01*
X38986632Y-102153475D01*
X39193475Y-101946632D01*
X39315195Y-101764466D01*
X39384822Y-101881355D01*
X39579731Y-102097588D01*
X39813080Y-102271641D01*
X40075901Y-102396825D01*
X40223110Y-102441476D01*
X40453000Y-102320155D01*
X40453000Y-101127000D01*
X40707000Y-101127000D01*
X40707000Y-102320155D01*
X40936890Y-102441476D01*
X41084099Y-102396825D01*
X41346920Y-102271641D01*
X41580269Y-102097588D01*
X41761174Y-101896891D01*
X47478519Y-101896891D01*
X47575843Y-102171252D01*
X47724822Y-102421355D01*
X47919731Y-102637588D01*
X48153080Y-102811641D01*
X48415901Y-102936825D01*
X48563110Y-102981476D01*
X48793000Y-102860155D01*
X48793000Y-101667000D01*
X47599186Y-101667000D01*
X47478519Y-101896891D01*
X41761174Y-101896891D01*
X41775178Y-101881355D01*
X41924157Y-101631252D01*
X42021481Y-101356891D01*
X41900814Y-101127000D01*
X40707000Y-101127000D01*
X40453000Y-101127000D01*
X40433000Y-101127000D01*
X40433000Y-100873000D01*
X40453000Y-100873000D01*
X40453000Y-99679845D01*
X40707000Y-99679845D01*
X40707000Y-100873000D01*
X41900814Y-100873000D01*
X42021481Y-100643109D01*
X41924157Y-100368748D01*
X41775178Y-100118645D01*
X41580269Y-99902412D01*
X41346920Y-99728359D01*
X41084099Y-99603175D01*
X40936890Y-99558524D01*
X40707000Y-99679845D01*
X40453000Y-99679845D01*
X40223110Y-99558524D01*
X40075901Y-99603175D01*
X39813080Y-99728359D01*
X39579731Y-99902412D01*
X39384822Y-100118645D01*
X39315195Y-100235534D01*
X39193475Y-100053368D01*
X38986632Y-99846525D01*
X38743411Y-99684010D01*
X38473158Y-99572068D01*
X38186260Y-99515000D01*
X37893740Y-99515000D01*
X37606842Y-99572068D01*
X37336589Y-99684010D01*
X37093368Y-99846525D01*
X36961513Y-99978380D01*
X36939502Y-99905820D01*
X36880537Y-99795506D01*
X36801185Y-99698815D01*
X36704494Y-99619463D01*
X36594180Y-99560498D01*
X36474482Y-99524188D01*
X36350000Y-99511928D01*
X34650000Y-99511928D01*
X34525518Y-99524188D01*
X34405820Y-99560498D01*
X34295506Y-99619463D01*
X34198815Y-99698815D01*
X34119463Y-99795506D01*
X34060498Y-99905820D01*
X34024188Y-100025518D01*
X34011928Y-100150000D01*
X27090107Y-100150000D01*
X26946632Y-100006525D01*
X26764466Y-99884805D01*
X26881355Y-99815178D01*
X27097588Y-99620269D01*
X27271641Y-99386920D01*
X27396825Y-99124099D01*
X27441476Y-98976890D01*
X27320155Y-98747000D01*
X26127000Y-98747000D01*
X26127000Y-98767000D01*
X25873000Y-98767000D01*
X25873000Y-98747000D01*
X24679845Y-98747000D01*
X24558524Y-98976890D01*
X24603175Y-99124099D01*
X24728359Y-99386920D01*
X24902412Y-99620269D01*
X25118645Y-99815178D01*
X25235534Y-99884805D01*
X25053368Y-100006525D01*
X24846525Y-100213368D01*
X24684010Y-100456589D01*
X24572068Y-100726842D01*
X24515000Y-101013740D01*
X22660000Y-101013740D01*
X22660000Y-96436890D01*
X24558524Y-96436890D01*
X24603175Y-96584099D01*
X24728359Y-96846920D01*
X24902412Y-97080269D01*
X25118645Y-97275178D01*
X25244255Y-97350000D01*
X25118645Y-97424822D01*
X24902412Y-97619731D01*
X24728359Y-97853080D01*
X24603175Y-98115901D01*
X24558524Y-98263110D01*
X24679845Y-98493000D01*
X25873000Y-98493000D01*
X25873000Y-96207000D01*
X26127000Y-96207000D01*
X26127000Y-98493000D01*
X27320155Y-98493000D01*
X27441476Y-98263110D01*
X27396825Y-98115901D01*
X27271641Y-97853080D01*
X27097588Y-97619731D01*
X26881355Y-97424822D01*
X26755745Y-97350000D01*
X26881355Y-97275178D01*
X27097588Y-97080269D01*
X27271641Y-96846920D01*
X27396825Y-96584099D01*
X27441476Y-96436890D01*
X27320155Y-96207000D01*
X26127000Y-96207000D01*
X25873000Y-96207000D01*
X24679845Y-96207000D01*
X24558524Y-96436890D01*
X22660000Y-96436890D01*
X22660000Y-90150000D01*
X24511928Y-90150000D01*
X24511928Y-91850000D01*
X24524188Y-91974482D01*
X24560498Y-92094180D01*
X24619463Y-92204494D01*
X24698815Y-92301185D01*
X24795506Y-92380537D01*
X24905820Y-92439502D01*
X24978380Y-92461513D01*
X24846525Y-92593368D01*
X24684010Y-92836589D01*
X24572068Y-93106842D01*
X24515000Y-93393740D01*
X24515000Y-93686260D01*
X24572068Y-93973158D01*
X24684010Y-94243411D01*
X24846525Y-94486632D01*
X25053368Y-94693475D01*
X25235534Y-94815195D01*
X25118645Y-94884822D01*
X24902412Y-95079731D01*
X24728359Y-95313080D01*
X24603175Y-95575901D01*
X24558524Y-95723110D01*
X24679845Y-95953000D01*
X25873000Y-95953000D01*
X25873000Y-95933000D01*
X26127000Y-95933000D01*
X26127000Y-95953000D01*
X27320155Y-95953000D01*
X27441476Y-95723110D01*
X27396825Y-95575901D01*
X27271641Y-95313080D01*
X27097588Y-95079731D01*
X26881355Y-94884822D01*
X26764466Y-94815195D01*
X26946632Y-94693475D01*
X27153475Y-94486632D01*
X27278178Y-94300000D01*
X27422678Y-94300000D01*
X27460000Y-94303676D01*
X27497322Y-94300000D01*
X27497333Y-94300000D01*
X27608986Y-94289003D01*
X27752247Y-94245546D01*
X27884276Y-94174974D01*
X28000001Y-94080001D01*
X28023803Y-94050998D01*
X28531003Y-93543798D01*
X28560001Y-93520001D01*
X28654974Y-93404276D01*
X28725546Y-93272247D01*
X28769003Y-93128986D01*
X28780000Y-93017333D01*
X28780000Y-93017332D01*
X28783677Y-92980000D01*
X28780000Y-92942667D01*
X28780000Y-83898061D01*
X38965000Y-83898061D01*
X38965000Y-84101939D01*
X39004774Y-84301898D01*
X39082795Y-84490256D01*
X39196063Y-84659774D01*
X39340226Y-84803937D01*
X39509744Y-84917205D01*
X39698102Y-84995226D01*
X39898061Y-85035000D01*
X39960199Y-85035000D01*
X47488996Y-92563799D01*
X47489007Y-92563808D01*
X48160001Y-93234803D01*
X48160000Y-97721821D01*
X47973368Y-97846525D01*
X47766525Y-98053368D01*
X47604010Y-98296589D01*
X47492068Y-98566842D01*
X47435000Y-98853740D01*
X47435000Y-99146260D01*
X47492068Y-99433158D01*
X47604010Y-99703411D01*
X47766525Y-99946632D01*
X47973368Y-100153475D01*
X48149406Y-100271100D01*
X47919731Y-100442412D01*
X47724822Y-100658645D01*
X47575843Y-100908748D01*
X47478519Y-101183109D01*
X47599186Y-101413000D01*
X48793000Y-101413000D01*
X48793000Y-101393000D01*
X49047000Y-101393000D01*
X49047000Y-101413000D01*
X49067000Y-101413000D01*
X49067000Y-101667000D01*
X49047000Y-101667000D01*
X49047000Y-102860155D01*
X49276890Y-102981476D01*
X49424099Y-102936825D01*
X49686920Y-102811641D01*
X49920269Y-102637588D01*
X50115178Y-102421355D01*
X50184805Y-102304466D01*
X50306525Y-102486632D01*
X50513368Y-102693475D01*
X50756589Y-102855990D01*
X51026842Y-102967932D01*
X51313740Y-103025000D01*
X51606260Y-103025000D01*
X51893158Y-102967932D01*
X52163411Y-102855990D01*
X52406632Y-102693475D01*
X52613475Y-102486632D01*
X52730000Y-102312240D01*
X52846525Y-102486632D01*
X53053368Y-102693475D01*
X53296589Y-102855990D01*
X53566842Y-102967932D01*
X53853740Y-103025000D01*
X54146260Y-103025000D01*
X54433158Y-102967932D01*
X54703411Y-102855990D01*
X54946632Y-102693475D01*
X55153475Y-102486632D01*
X55315990Y-102243411D01*
X55427932Y-101973158D01*
X55485000Y-101686260D01*
X55485000Y-101393740D01*
X55427932Y-101106842D01*
X55315990Y-100836589D01*
X55153475Y-100593368D01*
X55021620Y-100461513D01*
X55094180Y-100439502D01*
X55204494Y-100380537D01*
X55301185Y-100301185D01*
X55380537Y-100204494D01*
X55439502Y-100094180D01*
X55475812Y-99974482D01*
X55488072Y-99850000D01*
X55488072Y-98150000D01*
X55475812Y-98025518D01*
X55439502Y-97905820D01*
X55380537Y-97795506D01*
X55367707Y-97779872D01*
X153265000Y-97779872D01*
X153265000Y-98220128D01*
X153350890Y-98651925D01*
X153519369Y-99058669D01*
X153763962Y-99424729D01*
X154075271Y-99736038D01*
X154441331Y-99980631D01*
X154848075Y-100149110D01*
X155279872Y-100235000D01*
X155720128Y-100235000D01*
X156151925Y-100149110D01*
X156558669Y-99980631D01*
X156924729Y-99736038D01*
X157236038Y-99424729D01*
X157480631Y-99058669D01*
X157649110Y-98651925D01*
X157735000Y-98220128D01*
X157735000Y-97779872D01*
X157649110Y-97348075D01*
X157480631Y-96941331D01*
X157236038Y-96575271D01*
X156924729Y-96263962D01*
X156558669Y-96019369D01*
X156151925Y-95850890D01*
X155720128Y-95765000D01*
X155279872Y-95765000D01*
X154848075Y-95850890D01*
X154441331Y-96019369D01*
X154075271Y-96263962D01*
X153763962Y-96575271D01*
X153519369Y-96941331D01*
X153350890Y-97348075D01*
X153265000Y-97779872D01*
X55367707Y-97779872D01*
X55301185Y-97698815D01*
X55204494Y-97619463D01*
X55094180Y-97560498D01*
X54974482Y-97524188D01*
X54850000Y-97511928D01*
X53150000Y-97511928D01*
X53025518Y-97524188D01*
X52905820Y-97560498D01*
X52795506Y-97619463D01*
X52698815Y-97698815D01*
X52619463Y-97795506D01*
X52560498Y-97905820D01*
X52538487Y-97978380D01*
X52406632Y-97846525D01*
X52163411Y-97684010D01*
X51893158Y-97572068D01*
X51606260Y-97515000D01*
X51313740Y-97515000D01*
X51026842Y-97572068D01*
X50756589Y-97684010D01*
X50513368Y-97846525D01*
X50306525Y-98053368D01*
X50190000Y-98227760D01*
X50073475Y-98053368D01*
X49866632Y-97846525D01*
X49680000Y-97721822D01*
X49680000Y-92957322D01*
X49683676Y-92919999D01*
X49680000Y-92882676D01*
X49680000Y-92882667D01*
X49669003Y-92771014D01*
X49655258Y-92725701D01*
X132215000Y-92725701D01*
X132215000Y-93274299D01*
X132322026Y-93812354D01*
X132531965Y-94319192D01*
X132836750Y-94775334D01*
X133224666Y-95163250D01*
X133680808Y-95468035D01*
X134187646Y-95677974D01*
X134725701Y-95785000D01*
X135274299Y-95785000D01*
X135812354Y-95677974D01*
X136319192Y-95468035D01*
X136775334Y-95163250D01*
X137163250Y-94775334D01*
X137468035Y-94319192D01*
X137677974Y-93812354D01*
X137785000Y-93274299D01*
X137785000Y-92725701D01*
X137677974Y-92187646D01*
X137468035Y-91680808D01*
X137163250Y-91224666D01*
X136775334Y-90836750D01*
X136319192Y-90531965D01*
X135812354Y-90322026D01*
X135274299Y-90215000D01*
X134725701Y-90215000D01*
X134187646Y-90322026D01*
X133680808Y-90531965D01*
X133224666Y-90836750D01*
X132836750Y-91224666D01*
X132531965Y-91680808D01*
X132322026Y-92187646D01*
X132215000Y-92725701D01*
X49655258Y-92725701D01*
X49625546Y-92627753D01*
X49554974Y-92495724D01*
X49508834Y-92439502D01*
X49483799Y-92408996D01*
X49483795Y-92408992D01*
X49460001Y-92379999D01*
X49431008Y-92356205D01*
X48563808Y-91489007D01*
X48563799Y-91488996D01*
X41035000Y-83960199D01*
X41035000Y-83898061D01*
X40995226Y-83698102D01*
X40917205Y-83509744D01*
X40803937Y-83340226D01*
X40659774Y-83196063D01*
X40490256Y-83082795D01*
X40301898Y-83004774D01*
X40101939Y-82965000D01*
X39898061Y-82965000D01*
X39698102Y-83004774D01*
X39509744Y-83082795D01*
X39340226Y-83196063D01*
X39196063Y-83340226D01*
X39082795Y-83509744D01*
X39004774Y-83698102D01*
X38965000Y-83898061D01*
X28780000Y-83898061D01*
X28780000Y-77794801D01*
X29314802Y-77260000D01*
X35496440Y-77260000D01*
X35504774Y-77301898D01*
X35582795Y-77490256D01*
X35696063Y-77659774D01*
X35840226Y-77803937D01*
X36009744Y-77917205D01*
X36198102Y-77995226D01*
X36398061Y-78035000D01*
X36601939Y-78035000D01*
X36801898Y-77995226D01*
X36990256Y-77917205D01*
X37159774Y-77803937D01*
X37303937Y-77659774D01*
X37417205Y-77490256D01*
X37495226Y-77301898D01*
X37535000Y-77101939D01*
X37535000Y-76898061D01*
X37495226Y-76698102D01*
X37417205Y-76509744D01*
X37303937Y-76340226D01*
X37159774Y-76196063D01*
X36990256Y-76082795D01*
X36801898Y-76004774D01*
X36777897Y-76000000D01*
X36801898Y-75995226D01*
X36990256Y-75917205D01*
X37159774Y-75803937D01*
X37303937Y-75659774D01*
X37417205Y-75490256D01*
X37495226Y-75301898D01*
X37535000Y-75101939D01*
X37535000Y-74898061D01*
X37495226Y-74698102D01*
X37417205Y-74509744D01*
X37303937Y-74340226D01*
X37159774Y-74196063D01*
X36990256Y-74082795D01*
X36801898Y-74004774D01*
X36601939Y-73965000D01*
X36398061Y-73965000D01*
X36198102Y-74004774D01*
X36009744Y-74082795D01*
X35840226Y-74196063D01*
X35796289Y-74240000D01*
X28537323Y-74240000D01*
X28500000Y-74236324D01*
X28462677Y-74240000D01*
X28462667Y-74240000D01*
X28351014Y-74250997D01*
X28207753Y-74294454D01*
X28075723Y-74365026D01*
X27992083Y-74433668D01*
X27959999Y-74459999D01*
X27936201Y-74488997D01*
X25489003Y-76936196D01*
X25459999Y-76959999D01*
X25404871Y-77027174D01*
X25365026Y-77075724D01*
X25305145Y-77187753D01*
X25294454Y-77207754D01*
X25250997Y-77351015D01*
X25240000Y-77462668D01*
X25240000Y-77462678D01*
X25236324Y-77500000D01*
X25240000Y-77537323D01*
X25240001Y-82993581D01*
X25240000Y-82993591D01*
X25240001Y-89511928D01*
X25150000Y-89511928D01*
X25025518Y-89524188D01*
X24905820Y-89560498D01*
X24795506Y-89619463D01*
X24698815Y-89698815D01*
X24619463Y-89795506D01*
X24560498Y-89905820D01*
X24524188Y-90025518D01*
X24511928Y-90150000D01*
X22660000Y-90150000D01*
X22660000Y-69898061D01*
X29965000Y-69898061D01*
X29965000Y-70101939D01*
X30004774Y-70301898D01*
X30082795Y-70490256D01*
X30196063Y-70659774D01*
X30340226Y-70803937D01*
X30509744Y-70917205D01*
X30698102Y-70995226D01*
X30898061Y-71035000D01*
X31101939Y-71035000D01*
X31301898Y-70995226D01*
X31490256Y-70917205D01*
X31659774Y-70803937D01*
X31703711Y-70760000D01*
X36185199Y-70760000D01*
X42740001Y-77314803D01*
X42740000Y-83296289D01*
X42696063Y-83340226D01*
X42582795Y-83509744D01*
X42504774Y-83698102D01*
X42465000Y-83898061D01*
X42465000Y-84101939D01*
X42504774Y-84301898D01*
X42582795Y-84490256D01*
X42696063Y-84659774D01*
X42840226Y-84803937D01*
X43009744Y-84917205D01*
X43198102Y-84995226D01*
X43398061Y-85035000D01*
X43601939Y-85035000D01*
X43801898Y-84995226D01*
X43990256Y-84917205D01*
X44159774Y-84803937D01*
X44303937Y-84659774D01*
X44417205Y-84490256D01*
X44495226Y-84301898D01*
X44525440Y-84150000D01*
X53511928Y-84150000D01*
X53511928Y-85850000D01*
X53524188Y-85974482D01*
X53560498Y-86094180D01*
X53619463Y-86204494D01*
X53698815Y-86301185D01*
X53795506Y-86380537D01*
X53905820Y-86439502D01*
X54025518Y-86475812D01*
X54150000Y-86488072D01*
X55850000Y-86488072D01*
X55974482Y-86475812D01*
X56094180Y-86439502D01*
X56204494Y-86380537D01*
X56301185Y-86301185D01*
X56380537Y-86204494D01*
X56439502Y-86094180D01*
X56475812Y-85974482D01*
X56488072Y-85850000D01*
X56488072Y-84150000D01*
X56475812Y-84025518D01*
X56439502Y-83905820D01*
X56380537Y-83795506D01*
X56301185Y-83698815D01*
X56204494Y-83619463D01*
X56094180Y-83560498D01*
X56013534Y-83536034D01*
X56097588Y-83460269D01*
X56271641Y-83226920D01*
X56396825Y-82964099D01*
X56412732Y-82911653D01*
X96187952Y-82911653D01*
X96343962Y-83227214D01*
X96718745Y-83418020D01*
X97123551Y-83532044D01*
X97542824Y-83564902D01*
X97960451Y-83515334D01*
X98360383Y-83385243D01*
X98656038Y-83227214D01*
X98812048Y-82911653D01*
X97500000Y-81599605D01*
X96187952Y-82911653D01*
X56412732Y-82911653D01*
X56441476Y-82816890D01*
X56320155Y-82587000D01*
X55127000Y-82587000D01*
X55127000Y-82607000D01*
X54873000Y-82607000D01*
X54873000Y-82587000D01*
X53679845Y-82587000D01*
X53558524Y-82816890D01*
X53603175Y-82964099D01*
X53728359Y-83226920D01*
X53902412Y-83460269D01*
X53986466Y-83536034D01*
X53905820Y-83560498D01*
X53795506Y-83619463D01*
X53698815Y-83698815D01*
X53619463Y-83795506D01*
X53560498Y-83905820D01*
X53524188Y-84025518D01*
X53511928Y-84150000D01*
X44525440Y-84150000D01*
X44535000Y-84101939D01*
X44535000Y-83898061D01*
X44495226Y-83698102D01*
X44417205Y-83509744D01*
X44303937Y-83340226D01*
X44260000Y-83296289D01*
X44260000Y-82103110D01*
X53558524Y-82103110D01*
X53679845Y-82333000D01*
X54873000Y-82333000D01*
X54873000Y-81139186D01*
X55127000Y-81139186D01*
X55127000Y-82333000D01*
X56320155Y-82333000D01*
X56441476Y-82103110D01*
X56396825Y-81955901D01*
X56271641Y-81693080D01*
X56099896Y-81462824D01*
X95355098Y-81462824D01*
X95404666Y-81880451D01*
X95534757Y-82280383D01*
X95692786Y-82576038D01*
X96008347Y-82732048D01*
X97320395Y-81420000D01*
X97679605Y-81420000D01*
X98991653Y-82732048D01*
X99307214Y-82576038D01*
X99498020Y-82201255D01*
X99612044Y-81796449D01*
X99644902Y-81377176D01*
X99595334Y-80959549D01*
X99465243Y-80559617D01*
X99307214Y-80263962D01*
X98991653Y-80107952D01*
X97679605Y-81420000D01*
X97320395Y-81420000D01*
X96008347Y-80107952D01*
X95692786Y-80263962D01*
X95501980Y-80638745D01*
X95387956Y-81043551D01*
X95355098Y-81462824D01*
X56099896Y-81462824D01*
X56097588Y-81459731D01*
X55881355Y-81264822D01*
X55631252Y-81115843D01*
X55356891Y-81018519D01*
X55127000Y-81139186D01*
X54873000Y-81139186D01*
X54643109Y-81018519D01*
X54368748Y-81115843D01*
X54118645Y-81264822D01*
X53902412Y-81459731D01*
X53728359Y-81693080D01*
X53603175Y-81955901D01*
X53558524Y-82103110D01*
X44260000Y-82103110D01*
X44260000Y-79928347D01*
X96187952Y-79928347D01*
X97500000Y-81240395D01*
X98812048Y-79928347D01*
X98656038Y-79612786D01*
X98281255Y-79421980D01*
X97876449Y-79307956D01*
X97457176Y-79275098D01*
X97039549Y-79324666D01*
X96639617Y-79454757D01*
X96343962Y-79612786D01*
X96187952Y-79928347D01*
X44260000Y-79928347D01*
X44260000Y-77037323D01*
X44263676Y-77000000D01*
X44260000Y-76962677D01*
X44260000Y-76962667D01*
X44249003Y-76851014D01*
X44205546Y-76707753D01*
X44190435Y-76679483D01*
X44134974Y-76575723D01*
X44063799Y-76488997D01*
X44040001Y-76459999D01*
X44011003Y-76436201D01*
X37063804Y-69489003D01*
X37040001Y-69459999D01*
X36924276Y-69365026D01*
X36792247Y-69294454D01*
X36648986Y-69250997D01*
X36537333Y-69240000D01*
X36537322Y-69240000D01*
X36500000Y-69236324D01*
X36462678Y-69240000D01*
X31703711Y-69240000D01*
X31659774Y-69196063D01*
X31490256Y-69082795D01*
X31301898Y-69004774D01*
X31101939Y-68965000D01*
X30898061Y-68965000D01*
X30698102Y-69004774D01*
X30509744Y-69082795D01*
X30340226Y-69196063D01*
X30196063Y-69340226D01*
X30082795Y-69509744D01*
X30004774Y-69698102D01*
X29965000Y-69898061D01*
X22660000Y-69898061D01*
X22660000Y-64500000D01*
X22861928Y-64500000D01*
X22861928Y-67500000D01*
X22874188Y-67624482D01*
X22910498Y-67744180D01*
X22969463Y-67854494D01*
X23048815Y-67951185D01*
X23145506Y-68030537D01*
X23255820Y-68089502D01*
X23375518Y-68125812D01*
X23500000Y-68138072D01*
X26500000Y-68138072D01*
X26624482Y-68125812D01*
X26744180Y-68089502D01*
X26854494Y-68030537D01*
X26951185Y-67951185D01*
X27030537Y-67854494D01*
X27089502Y-67744180D01*
X27125812Y-67624482D01*
X27138072Y-67500000D01*
X27138072Y-65789721D01*
X37865000Y-65789721D01*
X37865000Y-66210279D01*
X37947047Y-66622756D01*
X38107988Y-67011302D01*
X38341637Y-67360983D01*
X38639017Y-67658363D01*
X38988698Y-67892012D01*
X39377244Y-68052953D01*
X39789721Y-68135000D01*
X40210279Y-68135000D01*
X40622756Y-68052953D01*
X41011302Y-67892012D01*
X41360983Y-67658363D01*
X41658363Y-67360983D01*
X41892012Y-67011302D01*
X42052953Y-66622756D01*
X42135000Y-66210279D01*
X42135000Y-65789721D01*
X42865000Y-65789721D01*
X42865000Y-66210279D01*
X42947047Y-66622756D01*
X43107988Y-67011302D01*
X43341637Y-67360983D01*
X43365001Y-67384347D01*
X43365001Y-68419671D01*
X43357089Y-68500000D01*
X43388658Y-68820516D01*
X43482148Y-69128714D01*
X43570738Y-69294454D01*
X43633970Y-69412752D01*
X43838287Y-69661714D01*
X43900682Y-69712920D01*
X49287083Y-75099323D01*
X49338286Y-75161714D01*
X49587248Y-75366031D01*
X49696217Y-75424276D01*
X49871285Y-75517852D01*
X50179483Y-75611343D01*
X50500000Y-75642911D01*
X50580322Y-75635000D01*
X98322762Y-75635000D01*
X100365000Y-77677240D01*
X100365001Y-83322760D01*
X99265740Y-84422022D01*
X99244180Y-84410498D01*
X99124482Y-84374188D01*
X99000000Y-84361928D01*
X96000000Y-84361928D01*
X95875518Y-84374188D01*
X95755820Y-84410498D01*
X95645506Y-84469463D01*
X95548815Y-84548815D01*
X95469463Y-84645506D01*
X95410498Y-84755820D01*
X95374188Y-84875518D01*
X95361928Y-85000000D01*
X95361928Y-88000000D01*
X95374188Y-88124482D01*
X95410498Y-88244180D01*
X95469463Y-88354494D01*
X95548815Y-88451185D01*
X95645506Y-88530537D01*
X95755820Y-88589502D01*
X95875518Y-88625812D01*
X96000000Y-88638072D01*
X99000000Y-88638072D01*
X99124482Y-88625812D01*
X99244180Y-88589502D01*
X99354494Y-88530537D01*
X99451185Y-88451185D01*
X99530537Y-88354494D01*
X99589502Y-88244180D01*
X99623924Y-88130706D01*
X99820516Y-88111343D01*
X100128715Y-88017852D01*
X100412752Y-87866031D01*
X100661714Y-87661714D01*
X100712925Y-87599313D01*
X103099319Y-85212920D01*
X103161714Y-85161714D01*
X103366031Y-84912752D01*
X103517852Y-84628715D01*
X103611343Y-84320516D01*
X103635000Y-84080322D01*
X103635000Y-84080320D01*
X103642911Y-84000000D01*
X103635000Y-83919681D01*
X103635000Y-77080322D01*
X103642911Y-77000000D01*
X103611343Y-76679483D01*
X103517852Y-76371285D01*
X103424194Y-76196063D01*
X103366031Y-76087248D01*
X103161714Y-75838286D01*
X103099325Y-75787085D01*
X100212924Y-72900686D01*
X100161714Y-72838286D01*
X99912752Y-72633969D01*
X99628715Y-72482148D01*
X99320516Y-72388657D01*
X99080322Y-72365000D01*
X99080319Y-72365000D01*
X99000000Y-72357089D01*
X98919681Y-72365000D01*
X51177240Y-72365000D01*
X46635000Y-67822762D01*
X46635000Y-67384346D01*
X46658363Y-67360983D01*
X46892012Y-67011302D01*
X47052953Y-66622756D01*
X47135000Y-66210279D01*
X47135000Y-65789721D01*
X47865000Y-65789721D01*
X47865000Y-66210279D01*
X47947047Y-66622756D01*
X48107988Y-67011302D01*
X48341637Y-67360983D01*
X48365001Y-67384347D01*
X48365001Y-68419671D01*
X48357089Y-68500000D01*
X48388658Y-68820516D01*
X48482148Y-69128714D01*
X48570738Y-69294454D01*
X48633970Y-69412752D01*
X48838287Y-69661714D01*
X48900682Y-69712920D01*
X50287079Y-71099318D01*
X50338286Y-71161714D01*
X50587248Y-71366031D01*
X50871285Y-71517852D01*
X51179484Y-71611343D01*
X51419678Y-71635000D01*
X51419680Y-71635000D01*
X51499999Y-71642911D01*
X51580319Y-71635000D01*
X94419681Y-71635000D01*
X94500000Y-71642911D01*
X94580319Y-71635000D01*
X94580322Y-71635000D01*
X94820516Y-71611343D01*
X95128715Y-71517852D01*
X95412752Y-71366031D01*
X95661714Y-71161714D01*
X95712924Y-71099314D01*
X98599325Y-68212915D01*
X98661714Y-68161714D01*
X98866031Y-67912752D01*
X99017852Y-67628715D01*
X99056897Y-67500000D01*
X99111343Y-67320517D01*
X99142911Y-67000000D01*
X99135000Y-66919678D01*
X99135000Y-45622621D01*
X99244180Y-45589502D01*
X99354494Y-45530537D01*
X99451185Y-45451185D01*
X99530537Y-45354494D01*
X99589502Y-45244180D01*
X99625812Y-45124482D01*
X99638072Y-45000000D01*
X99638072Y-42000000D01*
X99625812Y-41875518D01*
X99589502Y-41755820D01*
X99530537Y-41645506D01*
X99451185Y-41548815D01*
X99354494Y-41469463D01*
X99244180Y-41410498D01*
X99124482Y-41374188D01*
X99000000Y-41361928D01*
X96000000Y-41361928D01*
X95875518Y-41374188D01*
X95755820Y-41410498D01*
X95645506Y-41469463D01*
X95548815Y-41548815D01*
X95469463Y-41645506D01*
X95410498Y-41755820D01*
X95374188Y-41875518D01*
X95361928Y-42000000D01*
X95361928Y-45000000D01*
X95374188Y-45124482D01*
X95410498Y-45244180D01*
X95469463Y-45354494D01*
X95548815Y-45451185D01*
X95645506Y-45530537D01*
X95755820Y-45589502D01*
X95865001Y-45622622D01*
X95865000Y-66322760D01*
X93822762Y-68365000D01*
X52177239Y-68365000D01*
X51635000Y-67822762D01*
X51635000Y-67384346D01*
X51658363Y-67360983D01*
X51892012Y-67011302D01*
X52052953Y-66622756D01*
X52135000Y-66210279D01*
X52135000Y-65789721D01*
X52052953Y-65377244D01*
X51892012Y-64988698D01*
X51658363Y-64639017D01*
X51360983Y-64341637D01*
X51011302Y-64107988D01*
X50622756Y-63947047D01*
X50210279Y-63865000D01*
X49789721Y-63865000D01*
X49377244Y-63947047D01*
X48988698Y-64107988D01*
X48639017Y-64341637D01*
X48341637Y-64639017D01*
X48107988Y-64988698D01*
X47947047Y-65377244D01*
X47865000Y-65789721D01*
X47135000Y-65789721D01*
X47052953Y-65377244D01*
X46892012Y-64988698D01*
X46658363Y-64639017D01*
X46360983Y-64341637D01*
X46011302Y-64107988D01*
X45622756Y-63947047D01*
X45210279Y-63865000D01*
X44789721Y-63865000D01*
X44377244Y-63947047D01*
X43988698Y-64107988D01*
X43639017Y-64341637D01*
X43341637Y-64639017D01*
X43107988Y-64988698D01*
X42947047Y-65377244D01*
X42865000Y-65789721D01*
X42135000Y-65789721D01*
X42052953Y-65377244D01*
X41892012Y-64988698D01*
X41658363Y-64639017D01*
X41360983Y-64341637D01*
X41011302Y-64107988D01*
X40622756Y-63947047D01*
X40210279Y-63865000D01*
X39789721Y-63865000D01*
X39377244Y-63947047D01*
X38988698Y-64107988D01*
X38639017Y-64341637D01*
X38341637Y-64639017D01*
X38107988Y-64988698D01*
X37947047Y-65377244D01*
X37865000Y-65789721D01*
X27138072Y-65789721D01*
X27138072Y-64500000D01*
X27125812Y-64375518D01*
X27089502Y-64255820D01*
X27030537Y-64145506D01*
X26951185Y-64048815D01*
X26854494Y-63969463D01*
X26744180Y-63910498D01*
X26624482Y-63874188D01*
X26500000Y-63861928D01*
X23500000Y-63861928D01*
X23375518Y-63874188D01*
X23255820Y-63910498D01*
X23145506Y-63969463D01*
X23048815Y-64048815D01*
X22969463Y-64145506D01*
X22910498Y-64255820D01*
X22874188Y-64375518D01*
X22861928Y-64500000D01*
X22660000Y-64500000D01*
X22660000Y-62225701D01*
X55215000Y-62225701D01*
X55215000Y-62774299D01*
X55322026Y-63312354D01*
X55531965Y-63819192D01*
X55836750Y-64275334D01*
X56224666Y-64663250D01*
X56680808Y-64968035D01*
X57187646Y-65177974D01*
X57725701Y-65285000D01*
X58274299Y-65285000D01*
X58812354Y-65177974D01*
X59319192Y-64968035D01*
X59775334Y-64663250D01*
X60163250Y-64275334D01*
X60468035Y-63819192D01*
X60677974Y-63312354D01*
X60785000Y-62774299D01*
X60785000Y-62225701D01*
X60677974Y-61687646D01*
X60468035Y-61180808D01*
X60163250Y-60724666D01*
X59775334Y-60336750D01*
X59319192Y-60031965D01*
X58812354Y-59822026D01*
X58274299Y-59715000D01*
X57725701Y-59715000D01*
X57187646Y-59822026D01*
X56680808Y-60031965D01*
X56224666Y-60336750D01*
X55836750Y-60724666D01*
X55531965Y-61180808D01*
X55322026Y-61687646D01*
X55215000Y-62225701D01*
X22660000Y-62225701D01*
X22660000Y-59991653D01*
X23687952Y-59991653D01*
X23843962Y-60307214D01*
X24218745Y-60498020D01*
X24623551Y-60612044D01*
X25042824Y-60644902D01*
X25460451Y-60595334D01*
X25860383Y-60465243D01*
X26156038Y-60307214D01*
X26312048Y-59991653D01*
X25000000Y-58679605D01*
X23687952Y-59991653D01*
X22660000Y-59991653D01*
X22660000Y-58542824D01*
X22855098Y-58542824D01*
X22904666Y-58960451D01*
X23034757Y-59360383D01*
X23192786Y-59656038D01*
X23508347Y-59812048D01*
X24820395Y-58500000D01*
X25179605Y-58500000D01*
X26491653Y-59812048D01*
X26807214Y-59656038D01*
X26998020Y-59281255D01*
X27112044Y-58876449D01*
X27144902Y-58457176D01*
X27125027Y-58289721D01*
X37865000Y-58289721D01*
X37865000Y-58710279D01*
X37947047Y-59122756D01*
X38107988Y-59511302D01*
X38341637Y-59860983D01*
X38639017Y-60158363D01*
X38988698Y-60392012D01*
X39377244Y-60552953D01*
X39789721Y-60635000D01*
X40210279Y-60635000D01*
X40622756Y-60552953D01*
X41011302Y-60392012D01*
X41360983Y-60158363D01*
X41527693Y-59991653D01*
X43687952Y-59991653D01*
X43843962Y-60307214D01*
X44218745Y-60498020D01*
X44623551Y-60612044D01*
X45042824Y-60644902D01*
X45460451Y-60595334D01*
X45860383Y-60465243D01*
X46156038Y-60307214D01*
X46312048Y-59991653D01*
X45000000Y-58679605D01*
X43687952Y-59991653D01*
X41527693Y-59991653D01*
X41658363Y-59860983D01*
X41892012Y-59511302D01*
X42052953Y-59122756D01*
X42135000Y-58710279D01*
X42135000Y-58542824D01*
X42855098Y-58542824D01*
X42904666Y-58960451D01*
X43034757Y-59360383D01*
X43192786Y-59656038D01*
X43508347Y-59812048D01*
X44820395Y-58500000D01*
X45179605Y-58500000D01*
X46491653Y-59812048D01*
X46807214Y-59656038D01*
X46998020Y-59281255D01*
X47112044Y-58876449D01*
X47144902Y-58457176D01*
X47125027Y-58289721D01*
X47865000Y-58289721D01*
X47865000Y-58710279D01*
X47947047Y-59122756D01*
X48107988Y-59511302D01*
X48341637Y-59860983D01*
X48639017Y-60158363D01*
X48988698Y-60392012D01*
X49377244Y-60552953D01*
X49789721Y-60635000D01*
X50210279Y-60635000D01*
X50622756Y-60552953D01*
X51011302Y-60392012D01*
X51360983Y-60158363D01*
X51658363Y-59860983D01*
X51892012Y-59511302D01*
X52052953Y-59122756D01*
X52135000Y-58710279D01*
X52135000Y-58677238D01*
X55177239Y-55635000D01*
X85419681Y-55635000D01*
X85500000Y-55642911D01*
X85580319Y-55635000D01*
X85580322Y-55635000D01*
X85820516Y-55611343D01*
X86128715Y-55517852D01*
X86412752Y-55366031D01*
X86661714Y-55161714D01*
X86712925Y-55099313D01*
X93099320Y-48712919D01*
X93161714Y-48661714D01*
X93366031Y-48412752D01*
X93517852Y-48128715D01*
X93611343Y-47820516D01*
X93635000Y-47580322D01*
X93635000Y-47580320D01*
X93642911Y-47500001D01*
X93635000Y-47419681D01*
X93635000Y-41517238D01*
X95097239Y-40055000D01*
X96115654Y-40055000D01*
X96139017Y-40078363D01*
X96488698Y-40312012D01*
X96877244Y-40472953D01*
X97289721Y-40555000D01*
X97710279Y-40555000D01*
X98122756Y-40472953D01*
X98511302Y-40312012D01*
X98860983Y-40078363D01*
X99158363Y-39780983D01*
X99392012Y-39431302D01*
X99552953Y-39042756D01*
X99635000Y-38630279D01*
X99635000Y-38209721D01*
X99552953Y-37797244D01*
X99392012Y-37408698D01*
X99158363Y-37059017D01*
X98860983Y-36761637D01*
X98511302Y-36527988D01*
X98122756Y-36367047D01*
X97710279Y-36285000D01*
X97289721Y-36285000D01*
X96877244Y-36367047D01*
X96488698Y-36527988D01*
X96139017Y-36761637D01*
X96115654Y-36785000D01*
X94500322Y-36785000D01*
X94420000Y-36777089D01*
X94099483Y-36808657D01*
X93791285Y-36902148D01*
X93507248Y-37053969D01*
X93258286Y-37258286D01*
X93207080Y-37320681D01*
X90900682Y-39627080D01*
X90838287Y-39678286D01*
X90705387Y-39840226D01*
X90633970Y-39927248D01*
X90482148Y-40211286D01*
X90388658Y-40519484D01*
X90357089Y-40840000D01*
X90365001Y-40920329D01*
X90365000Y-46822761D01*
X84822762Y-52365000D01*
X54580319Y-52365000D01*
X54499999Y-52357089D01*
X54419680Y-52365000D01*
X54419678Y-52365000D01*
X54179484Y-52388657D01*
X53871285Y-52482148D01*
X53587248Y-52633969D01*
X53338286Y-52838286D01*
X53287080Y-52900681D01*
X49822762Y-56365000D01*
X49789721Y-56365000D01*
X49377244Y-56447047D01*
X48988698Y-56607988D01*
X48639017Y-56841637D01*
X48341637Y-57139017D01*
X48107988Y-57488698D01*
X47947047Y-57877244D01*
X47865000Y-58289721D01*
X47125027Y-58289721D01*
X47095334Y-58039549D01*
X46965243Y-57639617D01*
X46807214Y-57343962D01*
X46491653Y-57187952D01*
X45179605Y-58500000D01*
X44820395Y-58500000D01*
X43508347Y-57187952D01*
X43192786Y-57343962D01*
X43001980Y-57718745D01*
X42887956Y-58123551D01*
X42855098Y-58542824D01*
X42135000Y-58542824D01*
X42135000Y-58289721D01*
X42052953Y-57877244D01*
X41892012Y-57488698D01*
X41658363Y-57139017D01*
X41527693Y-57008347D01*
X43687952Y-57008347D01*
X45000000Y-58320395D01*
X46312048Y-57008347D01*
X46156038Y-56692786D01*
X45781255Y-56501980D01*
X45376449Y-56387956D01*
X44957176Y-56355098D01*
X44539549Y-56404666D01*
X44139617Y-56534757D01*
X43843962Y-56692786D01*
X43687952Y-57008347D01*
X41527693Y-57008347D01*
X41360983Y-56841637D01*
X41011302Y-56607988D01*
X40622756Y-56447047D01*
X40210279Y-56365000D01*
X39789721Y-56365000D01*
X39377244Y-56447047D01*
X38988698Y-56607988D01*
X38639017Y-56841637D01*
X38341637Y-57139017D01*
X38107988Y-57488698D01*
X37947047Y-57877244D01*
X37865000Y-58289721D01*
X27125027Y-58289721D01*
X27095334Y-58039549D01*
X26965243Y-57639617D01*
X26807214Y-57343962D01*
X26491653Y-57187952D01*
X25179605Y-58500000D01*
X24820395Y-58500000D01*
X23508347Y-57187952D01*
X23192786Y-57343962D01*
X23001980Y-57718745D01*
X22887956Y-58123551D01*
X22855098Y-58542824D01*
X22660000Y-58542824D01*
X22660000Y-57008347D01*
X23687952Y-57008347D01*
X25000000Y-58320395D01*
X26312048Y-57008347D01*
X26156038Y-56692786D01*
X25781255Y-56501980D01*
X25376449Y-56387956D01*
X24957176Y-56355098D01*
X24539549Y-56404666D01*
X24139617Y-56534757D01*
X23843962Y-56692786D01*
X23687952Y-57008347D01*
X22660000Y-57008347D01*
X22660000Y-34013740D01*
X24515000Y-34013740D01*
X24515000Y-34306260D01*
X24572068Y-34593158D01*
X24684010Y-34863411D01*
X24846525Y-35106632D01*
X25053368Y-35313475D01*
X25296589Y-35475990D01*
X25566842Y-35587932D01*
X25853740Y-35645000D01*
X26146260Y-35645000D01*
X26433158Y-35587932D01*
X26703411Y-35475990D01*
X26946632Y-35313475D01*
X27153475Y-35106632D01*
X27315990Y-34863411D01*
X27427932Y-34593158D01*
X27485000Y-34306260D01*
X27485000Y-34013740D01*
X27427932Y-33726842D01*
X27315990Y-33456589D01*
X27153475Y-33213368D01*
X26946632Y-33006525D01*
X26764466Y-32884805D01*
X26881355Y-32815178D01*
X27097588Y-32620269D01*
X27271641Y-32386920D01*
X27396825Y-32124099D01*
X27441476Y-31976890D01*
X27320155Y-31747000D01*
X26127000Y-31747000D01*
X26127000Y-31767000D01*
X25873000Y-31767000D01*
X25873000Y-31747000D01*
X24679845Y-31747000D01*
X24558524Y-31976890D01*
X24603175Y-32124099D01*
X24728359Y-32386920D01*
X24902412Y-32620269D01*
X25118645Y-32815178D01*
X25235534Y-32884805D01*
X25053368Y-33006525D01*
X24846525Y-33213368D01*
X24684010Y-33456589D01*
X24572068Y-33726842D01*
X24515000Y-34013740D01*
X22660000Y-34013740D01*
X22660000Y-29436890D01*
X24558524Y-29436890D01*
X24603175Y-29584099D01*
X24728359Y-29846920D01*
X24902412Y-30080269D01*
X25118645Y-30275178D01*
X25244255Y-30350000D01*
X25118645Y-30424822D01*
X24902412Y-30619731D01*
X24728359Y-30853080D01*
X24603175Y-31115901D01*
X24558524Y-31263110D01*
X24679845Y-31493000D01*
X25873000Y-31493000D01*
X25873000Y-29207000D01*
X26127000Y-29207000D01*
X26127000Y-31493000D01*
X27320155Y-31493000D01*
X27441476Y-31263110D01*
X27396825Y-31115901D01*
X27271641Y-30853080D01*
X27097588Y-30619731D01*
X26881355Y-30424822D01*
X26755745Y-30350000D01*
X26881355Y-30275178D01*
X27097588Y-30080269D01*
X27271641Y-29846920D01*
X27396825Y-29584099D01*
X27441476Y-29436890D01*
X27320155Y-29207000D01*
X26127000Y-29207000D01*
X25873000Y-29207000D01*
X24679845Y-29207000D01*
X24558524Y-29436890D01*
X22660000Y-29436890D01*
X22660000Y-23150000D01*
X24511928Y-23150000D01*
X24511928Y-24850000D01*
X24524188Y-24974482D01*
X24560498Y-25094180D01*
X24619463Y-25204494D01*
X24698815Y-25301185D01*
X24795506Y-25380537D01*
X24905820Y-25439502D01*
X24978380Y-25461513D01*
X24846525Y-25593368D01*
X24684010Y-25836589D01*
X24572068Y-26106842D01*
X24515000Y-26393740D01*
X24515000Y-26686260D01*
X24572068Y-26973158D01*
X24684010Y-27243411D01*
X24846525Y-27486632D01*
X25053368Y-27693475D01*
X25235534Y-27815195D01*
X25118645Y-27884822D01*
X24902412Y-28079731D01*
X24728359Y-28313080D01*
X24603175Y-28575901D01*
X24558524Y-28723110D01*
X24679845Y-28953000D01*
X25873000Y-28953000D01*
X25873000Y-28933000D01*
X26127000Y-28933000D01*
X26127000Y-28953000D01*
X27320155Y-28953000D01*
X27441476Y-28723110D01*
X27396825Y-28575901D01*
X27271641Y-28313080D01*
X27097588Y-28079731D01*
X26881355Y-27884822D01*
X26764466Y-27815195D01*
X26946632Y-27693475D01*
X27153475Y-27486632D01*
X27315990Y-27243411D01*
X27427932Y-26973158D01*
X27485000Y-26686260D01*
X27485000Y-26393740D01*
X27427932Y-26106842D01*
X27315990Y-25836589D01*
X27153475Y-25593368D01*
X27021620Y-25461513D01*
X27094180Y-25439502D01*
X27204494Y-25380537D01*
X27301185Y-25301185D01*
X27380537Y-25204494D01*
X27439502Y-25094180D01*
X27475812Y-24974482D01*
X27488072Y-24850000D01*
X27488072Y-23853740D01*
X30895000Y-23853740D01*
X30895000Y-24146260D01*
X30952068Y-24433158D01*
X31064010Y-24703411D01*
X31226525Y-24946632D01*
X31433368Y-25153475D01*
X31620000Y-25278179D01*
X31620001Y-41842657D01*
X31620000Y-41842667D01*
X31620000Y-42342678D01*
X31616324Y-42380000D01*
X31620000Y-42417322D01*
X31620000Y-42417332D01*
X31630997Y-42528985D01*
X31648671Y-42587248D01*
X31674454Y-42672246D01*
X31745026Y-42804276D01*
X31783383Y-42851013D01*
X31839999Y-42920001D01*
X31869002Y-42943803D01*
X32436205Y-43511008D01*
X32459999Y-43540001D01*
X32488992Y-43563795D01*
X32488996Y-43563799D01*
X32559685Y-43621811D01*
X32575724Y-43634974D01*
X32707753Y-43705546D01*
X32851014Y-43749003D01*
X32962667Y-43760000D01*
X32962676Y-43760000D01*
X32999999Y-43763676D01*
X33037322Y-43760000D01*
X33796289Y-43760000D01*
X33840226Y-43803937D01*
X34009744Y-43917205D01*
X34198102Y-43995226D01*
X34398061Y-44035000D01*
X34601939Y-44035000D01*
X34801898Y-43995226D01*
X34990256Y-43917205D01*
X35159774Y-43803937D01*
X35303937Y-43659774D01*
X35417205Y-43490256D01*
X35495226Y-43301898D01*
X35535000Y-43101939D01*
X35535000Y-42898061D01*
X35495226Y-42698102D01*
X35417205Y-42509744D01*
X35303937Y-42340226D01*
X35159774Y-42196063D01*
X34990256Y-42082795D01*
X34801898Y-42004774D01*
X34601939Y-41965000D01*
X34398061Y-41965000D01*
X34198102Y-42004774D01*
X34009744Y-42082795D01*
X33840226Y-42196063D01*
X33796289Y-42240000D01*
X33314802Y-42240000D01*
X33140000Y-42065198D01*
X33140000Y-41471159D01*
X33198102Y-41495226D01*
X33398061Y-41535000D01*
X33601939Y-41535000D01*
X33801898Y-41495226D01*
X33990256Y-41417205D01*
X34159774Y-41303937D01*
X34303937Y-41159774D01*
X34417205Y-40990256D01*
X34495226Y-40801898D01*
X34535000Y-40601939D01*
X34535000Y-40398061D01*
X34495226Y-40198102D01*
X34417205Y-40009744D01*
X34303937Y-39840226D01*
X34260000Y-39796289D01*
X34260000Y-31725701D01*
X132215000Y-31725701D01*
X132215000Y-32274299D01*
X132322026Y-32812354D01*
X132531965Y-33319192D01*
X132836750Y-33775334D01*
X133224666Y-34163250D01*
X133680808Y-34468035D01*
X134187646Y-34677974D01*
X134725701Y-34785000D01*
X135274299Y-34785000D01*
X135812354Y-34677974D01*
X136319192Y-34468035D01*
X136775334Y-34163250D01*
X137163250Y-33775334D01*
X137468035Y-33319192D01*
X137677974Y-32812354D01*
X137785000Y-32274299D01*
X137785000Y-31725701D01*
X137677974Y-31187646D01*
X137468035Y-30680808D01*
X137163250Y-30224666D01*
X136775334Y-29836750D01*
X136319192Y-29531965D01*
X135812354Y-29322026D01*
X135274299Y-29215000D01*
X134725701Y-29215000D01*
X134187646Y-29322026D01*
X133680808Y-29531965D01*
X133224666Y-29836750D01*
X132836750Y-30224666D01*
X132531965Y-30680808D01*
X132322026Y-31187646D01*
X132215000Y-31725701D01*
X34260000Y-31725701D01*
X34260000Y-27814801D01*
X34294929Y-27779872D01*
X60765000Y-27779872D01*
X60765000Y-28220128D01*
X60850890Y-28651925D01*
X61019369Y-29058669D01*
X61263962Y-29424729D01*
X61575271Y-29736038D01*
X61941331Y-29980631D01*
X62348075Y-30149110D01*
X62779872Y-30235000D01*
X63220128Y-30235000D01*
X63651925Y-30149110D01*
X64058669Y-29980631D01*
X64424729Y-29736038D01*
X64736038Y-29424729D01*
X64980631Y-29058669D01*
X65149110Y-28651925D01*
X65235000Y-28220128D01*
X65235000Y-27779872D01*
X65149110Y-27348075D01*
X64980631Y-26941331D01*
X64736038Y-26575271D01*
X64424729Y-26263962D01*
X64058669Y-26019369D01*
X63651925Y-25850890D01*
X63220128Y-25765000D01*
X62779872Y-25765000D01*
X62348075Y-25850890D01*
X61941331Y-26019369D01*
X61575271Y-26263962D01*
X61263962Y-26575271D01*
X61019369Y-26941331D01*
X60850890Y-27348075D01*
X60765000Y-27779872D01*
X34294929Y-27779872D01*
X35431003Y-26643799D01*
X35460001Y-26620001D01*
X35554974Y-26504276D01*
X35625546Y-26372247D01*
X35669003Y-26228986D01*
X35680000Y-26117333D01*
X35680000Y-26117324D01*
X35683676Y-26080001D01*
X35680000Y-26042678D01*
X35680000Y-25278178D01*
X35866632Y-25153475D01*
X36073475Y-24946632D01*
X36195195Y-24764466D01*
X36264822Y-24881355D01*
X36459731Y-25097588D01*
X36693080Y-25271641D01*
X36955901Y-25396825D01*
X37103110Y-25441476D01*
X37333000Y-25320155D01*
X37333000Y-24127000D01*
X37313000Y-24127000D01*
X37313000Y-23873000D01*
X37333000Y-23873000D01*
X37333000Y-23853000D01*
X37587000Y-23853000D01*
X37587000Y-23873000D01*
X37607000Y-23873000D01*
X37607000Y-24127000D01*
X37587000Y-24127000D01*
X37587000Y-25320155D01*
X37816890Y-25441476D01*
X37964099Y-25396825D01*
X38226920Y-25271641D01*
X38460269Y-25097588D01*
X38536034Y-25013534D01*
X38560498Y-25094180D01*
X38619463Y-25204494D01*
X38698815Y-25301185D01*
X38795506Y-25380537D01*
X38905820Y-25439502D01*
X39025518Y-25475812D01*
X39150000Y-25488072D01*
X40850000Y-25488072D01*
X40974482Y-25475812D01*
X41094180Y-25439502D01*
X41204494Y-25380537D01*
X41301185Y-25301185D01*
X41380537Y-25204494D01*
X41439502Y-25094180D01*
X41475812Y-24974482D01*
X41488072Y-24850000D01*
X41488072Y-23150000D01*
X41475812Y-23025518D01*
X41439502Y-22905820D01*
X41380537Y-22795506D01*
X41351398Y-22760000D01*
X44648602Y-22760000D01*
X44619463Y-22795506D01*
X44560498Y-22905820D01*
X44524188Y-23025518D01*
X44511928Y-23150000D01*
X44511928Y-24850000D01*
X44524188Y-24974482D01*
X44560498Y-25094180D01*
X44619463Y-25204494D01*
X44698815Y-25301185D01*
X44795506Y-25380537D01*
X44905820Y-25439502D01*
X45025518Y-25475812D01*
X45150000Y-25488072D01*
X46850000Y-25488072D01*
X46974482Y-25475812D01*
X47094180Y-25439502D01*
X47204494Y-25380537D01*
X47301185Y-25301185D01*
X47380537Y-25204494D01*
X47439502Y-25094180D01*
X47461513Y-25021620D01*
X47593368Y-25153475D01*
X47836589Y-25315990D01*
X48106842Y-25427932D01*
X48393740Y-25485000D01*
X48686260Y-25485000D01*
X48973158Y-25427932D01*
X49243411Y-25315990D01*
X49486632Y-25153475D01*
X49693475Y-24946632D01*
X49810000Y-24772240D01*
X49926525Y-24946632D01*
X50133368Y-25153475D01*
X50376589Y-25315990D01*
X50646842Y-25427932D01*
X50933740Y-25485000D01*
X51226260Y-25485000D01*
X51513158Y-25427932D01*
X51783411Y-25315990D01*
X52026632Y-25153475D01*
X52233475Y-24946632D01*
X52350000Y-24772240D01*
X52466525Y-24946632D01*
X52673368Y-25153475D01*
X52916589Y-25315990D01*
X53186842Y-25427932D01*
X53473740Y-25485000D01*
X53766260Y-25485000D01*
X54053158Y-25427932D01*
X54323411Y-25315990D01*
X54566632Y-25153475D01*
X54773475Y-24946632D01*
X54895195Y-24764466D01*
X54964822Y-24881355D01*
X55159731Y-25097588D01*
X55393080Y-25271641D01*
X55655901Y-25396825D01*
X55803110Y-25441476D01*
X56033000Y-25320155D01*
X56033000Y-24127000D01*
X56287000Y-24127000D01*
X56287000Y-25320155D01*
X56516890Y-25441476D01*
X56664099Y-25396825D01*
X56926920Y-25271641D01*
X57160269Y-25097588D01*
X57355178Y-24881355D01*
X57504157Y-24631252D01*
X57601481Y-24356891D01*
X57480814Y-24127000D01*
X56287000Y-24127000D01*
X56033000Y-24127000D01*
X56013000Y-24127000D01*
X56013000Y-23873000D01*
X56033000Y-23873000D01*
X56033000Y-22679845D01*
X56287000Y-22679845D01*
X56287000Y-23873000D01*
X57480814Y-23873000D01*
X57601481Y-23643109D01*
X57504157Y-23368748D01*
X57355178Y-23118645D01*
X57160269Y-22902412D01*
X56926920Y-22728359D01*
X56664099Y-22603175D01*
X56516890Y-22558524D01*
X56287000Y-22679845D01*
X56033000Y-22679845D01*
X55803110Y-22558524D01*
X55655901Y-22603175D01*
X55393080Y-22728359D01*
X55159731Y-22902412D01*
X54964822Y-23118645D01*
X54895195Y-23235534D01*
X54773475Y-23053368D01*
X54566632Y-22846525D01*
X54323411Y-22684010D01*
X54053158Y-22572068D01*
X53766260Y-22515000D01*
X53473740Y-22515000D01*
X53186842Y-22572068D01*
X52916589Y-22684010D01*
X52673368Y-22846525D01*
X52466525Y-23053368D01*
X52350000Y-23227760D01*
X52233475Y-23053368D01*
X52026632Y-22846525D01*
X51783411Y-22684010D01*
X51513158Y-22572068D01*
X51226260Y-22515000D01*
X50933740Y-22515000D01*
X50646842Y-22572068D01*
X50376589Y-22684010D01*
X50133368Y-22846525D01*
X49926525Y-23053368D01*
X49810000Y-23227760D01*
X49693475Y-23053368D01*
X49486632Y-22846525D01*
X49300000Y-22721822D01*
X49300000Y-22577322D01*
X49303676Y-22539999D01*
X49300000Y-22502676D01*
X49300000Y-22502667D01*
X49289003Y-22391014D01*
X49245546Y-22247753D01*
X49174974Y-22115724D01*
X49080001Y-21999999D01*
X49051002Y-21976200D01*
X48563803Y-21489002D01*
X48540001Y-21459999D01*
X48424276Y-21365026D01*
X48292247Y-21294454D01*
X48148986Y-21250997D01*
X48037333Y-21240000D01*
X48037322Y-21240000D01*
X48000000Y-21236324D01*
X47962678Y-21240000D01*
X33037322Y-21240000D01*
X32999999Y-21236324D01*
X32962676Y-21240000D01*
X32962667Y-21240000D01*
X32851014Y-21250997D01*
X32707753Y-21294454D01*
X32575724Y-21365026D01*
X32575722Y-21365027D01*
X32575723Y-21365027D01*
X32488996Y-21436201D01*
X32488992Y-21436205D01*
X32459999Y-21459999D01*
X32436205Y-21488992D01*
X31868997Y-22056202D01*
X31840000Y-22079999D01*
X31816202Y-22108997D01*
X31816201Y-22108998D01*
X31745026Y-22195724D01*
X31674454Y-22327754D01*
X31645186Y-22424240D01*
X31630998Y-22471014D01*
X31621369Y-22568782D01*
X31616324Y-22620000D01*
X31620001Y-22657332D01*
X31620001Y-22721821D01*
X31433368Y-22846525D01*
X31226525Y-23053368D01*
X31064010Y-23296589D01*
X30952068Y-23566842D01*
X30895000Y-23853740D01*
X27488072Y-23853740D01*
X27488072Y-23150000D01*
X27475812Y-23025518D01*
X27439502Y-22905820D01*
X27380537Y-22795506D01*
X27301185Y-22698815D01*
X27204494Y-22619463D01*
X27094180Y-22560498D01*
X26974482Y-22524188D01*
X26850000Y-22511928D01*
X25150000Y-22511928D01*
X25025518Y-22524188D01*
X24905820Y-22560498D01*
X24795506Y-22619463D01*
X24698815Y-22698815D01*
X24619463Y-22795506D01*
X24560498Y-22905820D01*
X24524188Y-23025518D01*
X24511928Y-23150000D01*
X22660000Y-23150000D01*
X22660000Y-22032279D01*
X22688625Y-21740341D01*
X22764035Y-21490571D01*
X22886522Y-21260208D01*
X23051422Y-21058020D01*
X23252450Y-20891714D01*
X23481954Y-20767622D01*
X23731195Y-20690469D01*
X24021088Y-20660000D01*
X157967721Y-20660000D01*
X158259659Y-20688625D01*
G04 #@! TA.AperFunction,Conductor*
D18*
G36*
X158259659Y-20688625D02*
G01*
X158509429Y-20764035D01*
X158739792Y-20886522D01*
X158941980Y-21051422D01*
X159108286Y-21252450D01*
X159232378Y-21481954D01*
X159309531Y-21731195D01*
X159340000Y-22021088D01*
X159340001Y-102967711D01*
X159311375Y-103259660D01*
X159235965Y-103509429D01*
X159113477Y-103739794D01*
X158948579Y-103941979D01*
X158747546Y-104108288D01*
X158518046Y-104232378D01*
X158268805Y-104309531D01*
X157978911Y-104340000D01*
X24032279Y-104340000D01*
X23740340Y-104311375D01*
X23490571Y-104235965D01*
X23260206Y-104113477D01*
X23058021Y-103948579D01*
X22891712Y-103747546D01*
X22767622Y-103518046D01*
X22690469Y-103268805D01*
X22660000Y-102978911D01*
X22660000Y-101013740D01*
X24515000Y-101013740D01*
X24515000Y-101306260D01*
X24572068Y-101593158D01*
X24684010Y-101863411D01*
X24846525Y-102106632D01*
X25053368Y-102313475D01*
X25296589Y-102475990D01*
X25566842Y-102587932D01*
X25853740Y-102645000D01*
X26146260Y-102645000D01*
X26433158Y-102587932D01*
X26703411Y-102475990D01*
X26946632Y-102313475D01*
X27153475Y-102106632D01*
X27315990Y-101863411D01*
X27427932Y-101593158D01*
X27485000Y-101306260D01*
X27485000Y-101013740D01*
X27427932Y-100726842D01*
X27315990Y-100456589D01*
X27153475Y-100213368D01*
X27090107Y-100150000D01*
X34011928Y-100150000D01*
X34011928Y-101850000D01*
X34024188Y-101974482D01*
X34060498Y-102094180D01*
X34119463Y-102204494D01*
X34198815Y-102301185D01*
X34295506Y-102380537D01*
X34405820Y-102439502D01*
X34525518Y-102475812D01*
X34650000Y-102488072D01*
X36350000Y-102488072D01*
X36474482Y-102475812D01*
X36594180Y-102439502D01*
X36704494Y-102380537D01*
X36801185Y-102301185D01*
X36880537Y-102204494D01*
X36939502Y-102094180D01*
X36961513Y-102021620D01*
X37093368Y-102153475D01*
X37336589Y-102315990D01*
X37606842Y-102427932D01*
X37893740Y-102485000D01*
X38186260Y-102485000D01*
X38473158Y-102427932D01*
X38743411Y-102315990D01*
X38986632Y-102153475D01*
X39193475Y-101946632D01*
X39315195Y-101764466D01*
X39384822Y-101881355D01*
X39579731Y-102097588D01*
X39813080Y-102271641D01*
X40075901Y-102396825D01*
X40223110Y-102441476D01*
X40453000Y-102320155D01*
X40453000Y-101127000D01*
X40707000Y-101127000D01*
X40707000Y-102320155D01*
X40936890Y-102441476D01*
X41084099Y-102396825D01*
X41346920Y-102271641D01*
X41580269Y-102097588D01*
X41761174Y-101896891D01*
X47478519Y-101896891D01*
X47575843Y-102171252D01*
X47724822Y-102421355D01*
X47919731Y-102637588D01*
X48153080Y-102811641D01*
X48415901Y-102936825D01*
X48563110Y-102981476D01*
X48793000Y-102860155D01*
X48793000Y-101667000D01*
X47599186Y-101667000D01*
X47478519Y-101896891D01*
X41761174Y-101896891D01*
X41775178Y-101881355D01*
X41924157Y-101631252D01*
X42021481Y-101356891D01*
X41900814Y-101127000D01*
X40707000Y-101127000D01*
X40453000Y-101127000D01*
X40433000Y-101127000D01*
X40433000Y-100873000D01*
X40453000Y-100873000D01*
X40453000Y-99679845D01*
X40707000Y-99679845D01*
X40707000Y-100873000D01*
X41900814Y-100873000D01*
X42021481Y-100643109D01*
X41924157Y-100368748D01*
X41775178Y-100118645D01*
X41580269Y-99902412D01*
X41346920Y-99728359D01*
X41084099Y-99603175D01*
X40936890Y-99558524D01*
X40707000Y-99679845D01*
X40453000Y-99679845D01*
X40223110Y-99558524D01*
X40075901Y-99603175D01*
X39813080Y-99728359D01*
X39579731Y-99902412D01*
X39384822Y-100118645D01*
X39315195Y-100235534D01*
X39193475Y-100053368D01*
X38986632Y-99846525D01*
X38743411Y-99684010D01*
X38473158Y-99572068D01*
X38186260Y-99515000D01*
X37893740Y-99515000D01*
X37606842Y-99572068D01*
X37336589Y-99684010D01*
X37093368Y-99846525D01*
X36961513Y-99978380D01*
X36939502Y-99905820D01*
X36880537Y-99795506D01*
X36801185Y-99698815D01*
X36704494Y-99619463D01*
X36594180Y-99560498D01*
X36474482Y-99524188D01*
X36350000Y-99511928D01*
X34650000Y-99511928D01*
X34525518Y-99524188D01*
X34405820Y-99560498D01*
X34295506Y-99619463D01*
X34198815Y-99698815D01*
X34119463Y-99795506D01*
X34060498Y-99905820D01*
X34024188Y-100025518D01*
X34011928Y-100150000D01*
X27090107Y-100150000D01*
X26946632Y-100006525D01*
X26764466Y-99884805D01*
X26881355Y-99815178D01*
X27097588Y-99620269D01*
X27271641Y-99386920D01*
X27396825Y-99124099D01*
X27441476Y-98976890D01*
X27320155Y-98747000D01*
X26127000Y-98747000D01*
X26127000Y-98767000D01*
X25873000Y-98767000D01*
X25873000Y-98747000D01*
X24679845Y-98747000D01*
X24558524Y-98976890D01*
X24603175Y-99124099D01*
X24728359Y-99386920D01*
X24902412Y-99620269D01*
X25118645Y-99815178D01*
X25235534Y-99884805D01*
X25053368Y-100006525D01*
X24846525Y-100213368D01*
X24684010Y-100456589D01*
X24572068Y-100726842D01*
X24515000Y-101013740D01*
X22660000Y-101013740D01*
X22660000Y-96436890D01*
X24558524Y-96436890D01*
X24603175Y-96584099D01*
X24728359Y-96846920D01*
X24902412Y-97080269D01*
X25118645Y-97275178D01*
X25244255Y-97350000D01*
X25118645Y-97424822D01*
X24902412Y-97619731D01*
X24728359Y-97853080D01*
X24603175Y-98115901D01*
X24558524Y-98263110D01*
X24679845Y-98493000D01*
X25873000Y-98493000D01*
X25873000Y-96207000D01*
X26127000Y-96207000D01*
X26127000Y-98493000D01*
X27320155Y-98493000D01*
X27441476Y-98263110D01*
X27396825Y-98115901D01*
X27271641Y-97853080D01*
X27097588Y-97619731D01*
X26881355Y-97424822D01*
X26755745Y-97350000D01*
X26881355Y-97275178D01*
X27097588Y-97080269D01*
X27271641Y-96846920D01*
X27396825Y-96584099D01*
X27441476Y-96436890D01*
X27320155Y-96207000D01*
X26127000Y-96207000D01*
X25873000Y-96207000D01*
X24679845Y-96207000D01*
X24558524Y-96436890D01*
X22660000Y-96436890D01*
X22660000Y-90150000D01*
X24511928Y-90150000D01*
X24511928Y-91850000D01*
X24524188Y-91974482D01*
X24560498Y-92094180D01*
X24619463Y-92204494D01*
X24698815Y-92301185D01*
X24795506Y-92380537D01*
X24905820Y-92439502D01*
X24978380Y-92461513D01*
X24846525Y-92593368D01*
X24684010Y-92836589D01*
X24572068Y-93106842D01*
X24515000Y-93393740D01*
X24515000Y-93686260D01*
X24572068Y-93973158D01*
X24684010Y-94243411D01*
X24846525Y-94486632D01*
X25053368Y-94693475D01*
X25235534Y-94815195D01*
X25118645Y-94884822D01*
X24902412Y-95079731D01*
X24728359Y-95313080D01*
X24603175Y-95575901D01*
X24558524Y-95723110D01*
X24679845Y-95953000D01*
X25873000Y-95953000D01*
X25873000Y-95933000D01*
X26127000Y-95933000D01*
X26127000Y-95953000D01*
X27320155Y-95953000D01*
X27441476Y-95723110D01*
X27396825Y-95575901D01*
X27271641Y-95313080D01*
X27097588Y-95079731D01*
X26881355Y-94884822D01*
X26764466Y-94815195D01*
X26946632Y-94693475D01*
X27153475Y-94486632D01*
X27278178Y-94300000D01*
X27422678Y-94300000D01*
X27460000Y-94303676D01*
X27497322Y-94300000D01*
X27497333Y-94300000D01*
X27608986Y-94289003D01*
X27752247Y-94245546D01*
X27884276Y-94174974D01*
X28000001Y-94080001D01*
X28023803Y-94050998D01*
X28531003Y-93543798D01*
X28560001Y-93520001D01*
X28654974Y-93404276D01*
X28725546Y-93272247D01*
X28769003Y-93128986D01*
X28780000Y-93017333D01*
X28780000Y-93017332D01*
X28783677Y-92980000D01*
X28780000Y-92942667D01*
X28780000Y-83898061D01*
X38965000Y-83898061D01*
X38965000Y-84101939D01*
X39004774Y-84301898D01*
X39082795Y-84490256D01*
X39196063Y-84659774D01*
X39340226Y-84803937D01*
X39509744Y-84917205D01*
X39698102Y-84995226D01*
X39898061Y-85035000D01*
X39960199Y-85035000D01*
X47488996Y-92563799D01*
X47489007Y-92563808D01*
X48160001Y-93234803D01*
X48160000Y-97721821D01*
X47973368Y-97846525D01*
X47766525Y-98053368D01*
X47604010Y-98296589D01*
X47492068Y-98566842D01*
X47435000Y-98853740D01*
X47435000Y-99146260D01*
X47492068Y-99433158D01*
X47604010Y-99703411D01*
X47766525Y-99946632D01*
X47973368Y-100153475D01*
X48149406Y-100271100D01*
X47919731Y-100442412D01*
X47724822Y-100658645D01*
X47575843Y-100908748D01*
X47478519Y-101183109D01*
X47599186Y-101413000D01*
X48793000Y-101413000D01*
X48793000Y-101393000D01*
X49047000Y-101393000D01*
X49047000Y-101413000D01*
X49067000Y-101413000D01*
X49067000Y-101667000D01*
X49047000Y-101667000D01*
X49047000Y-102860155D01*
X49276890Y-102981476D01*
X49424099Y-102936825D01*
X49686920Y-102811641D01*
X49920269Y-102637588D01*
X50115178Y-102421355D01*
X50184805Y-102304466D01*
X50306525Y-102486632D01*
X50513368Y-102693475D01*
X50756589Y-102855990D01*
X51026842Y-102967932D01*
X51313740Y-103025000D01*
X51606260Y-103025000D01*
X51893158Y-102967932D01*
X52163411Y-102855990D01*
X52406632Y-102693475D01*
X52613475Y-102486632D01*
X52730000Y-102312240D01*
X52846525Y-102486632D01*
X53053368Y-102693475D01*
X53296589Y-102855990D01*
X53566842Y-102967932D01*
X53853740Y-103025000D01*
X54146260Y-103025000D01*
X54433158Y-102967932D01*
X54703411Y-102855990D01*
X54946632Y-102693475D01*
X55153475Y-102486632D01*
X55315990Y-102243411D01*
X55427932Y-101973158D01*
X55485000Y-101686260D01*
X55485000Y-101393740D01*
X55427932Y-101106842D01*
X55315990Y-100836589D01*
X55153475Y-100593368D01*
X55021620Y-100461513D01*
X55094180Y-100439502D01*
X55204494Y-100380537D01*
X55301185Y-100301185D01*
X55380537Y-100204494D01*
X55439502Y-100094180D01*
X55475812Y-99974482D01*
X55488072Y-99850000D01*
X55488072Y-98150000D01*
X55475812Y-98025518D01*
X55439502Y-97905820D01*
X55380537Y-97795506D01*
X55367707Y-97779872D01*
X153265000Y-97779872D01*
X153265000Y-98220128D01*
X153350890Y-98651925D01*
X153519369Y-99058669D01*
X153763962Y-99424729D01*
X154075271Y-99736038D01*
X154441331Y-99980631D01*
X154848075Y-100149110D01*
X155279872Y-100235000D01*
X155720128Y-100235000D01*
X156151925Y-100149110D01*
X156558669Y-99980631D01*
X156924729Y-99736038D01*
X157236038Y-99424729D01*
X157480631Y-99058669D01*
X157649110Y-98651925D01*
X157735000Y-98220128D01*
X157735000Y-97779872D01*
X157649110Y-97348075D01*
X157480631Y-96941331D01*
X157236038Y-96575271D01*
X156924729Y-96263962D01*
X156558669Y-96019369D01*
X156151925Y-95850890D01*
X155720128Y-95765000D01*
X155279872Y-95765000D01*
X154848075Y-95850890D01*
X154441331Y-96019369D01*
X154075271Y-96263962D01*
X153763962Y-96575271D01*
X153519369Y-96941331D01*
X153350890Y-97348075D01*
X153265000Y-97779872D01*
X55367707Y-97779872D01*
X55301185Y-97698815D01*
X55204494Y-97619463D01*
X55094180Y-97560498D01*
X54974482Y-97524188D01*
X54850000Y-97511928D01*
X53150000Y-97511928D01*
X53025518Y-97524188D01*
X52905820Y-97560498D01*
X52795506Y-97619463D01*
X52698815Y-97698815D01*
X52619463Y-97795506D01*
X52560498Y-97905820D01*
X52538487Y-97978380D01*
X52406632Y-97846525D01*
X52163411Y-97684010D01*
X51893158Y-97572068D01*
X51606260Y-97515000D01*
X51313740Y-97515000D01*
X51026842Y-97572068D01*
X50756589Y-97684010D01*
X50513368Y-97846525D01*
X50306525Y-98053368D01*
X50190000Y-98227760D01*
X50073475Y-98053368D01*
X49866632Y-97846525D01*
X49680000Y-97721822D01*
X49680000Y-92957322D01*
X49683676Y-92919999D01*
X49680000Y-92882676D01*
X49680000Y-92882667D01*
X49669003Y-92771014D01*
X49655258Y-92725701D01*
X132215000Y-92725701D01*
X132215000Y-93274299D01*
X132322026Y-93812354D01*
X132531965Y-94319192D01*
X132836750Y-94775334D01*
X133224666Y-95163250D01*
X133680808Y-95468035D01*
X134187646Y-95677974D01*
X134725701Y-95785000D01*
X135274299Y-95785000D01*
X135812354Y-95677974D01*
X136319192Y-95468035D01*
X136775334Y-95163250D01*
X137163250Y-94775334D01*
X137468035Y-94319192D01*
X137677974Y-93812354D01*
X137785000Y-93274299D01*
X137785000Y-92725701D01*
X137677974Y-92187646D01*
X137468035Y-91680808D01*
X137163250Y-91224666D01*
X136775334Y-90836750D01*
X136319192Y-90531965D01*
X135812354Y-90322026D01*
X135274299Y-90215000D01*
X134725701Y-90215000D01*
X134187646Y-90322026D01*
X133680808Y-90531965D01*
X133224666Y-90836750D01*
X132836750Y-91224666D01*
X132531965Y-91680808D01*
X132322026Y-92187646D01*
X132215000Y-92725701D01*
X49655258Y-92725701D01*
X49625546Y-92627753D01*
X49554974Y-92495724D01*
X49508834Y-92439502D01*
X49483799Y-92408996D01*
X49483795Y-92408992D01*
X49460001Y-92379999D01*
X49431008Y-92356205D01*
X48563808Y-91489007D01*
X48563799Y-91488996D01*
X41035000Y-83960199D01*
X41035000Y-83898061D01*
X40995226Y-83698102D01*
X40917205Y-83509744D01*
X40803937Y-83340226D01*
X40659774Y-83196063D01*
X40490256Y-83082795D01*
X40301898Y-83004774D01*
X40101939Y-82965000D01*
X39898061Y-82965000D01*
X39698102Y-83004774D01*
X39509744Y-83082795D01*
X39340226Y-83196063D01*
X39196063Y-83340226D01*
X39082795Y-83509744D01*
X39004774Y-83698102D01*
X38965000Y-83898061D01*
X28780000Y-83898061D01*
X28780000Y-77794801D01*
X29314802Y-77260000D01*
X35496440Y-77260000D01*
X35504774Y-77301898D01*
X35582795Y-77490256D01*
X35696063Y-77659774D01*
X35840226Y-77803937D01*
X36009744Y-77917205D01*
X36198102Y-77995226D01*
X36398061Y-78035000D01*
X36601939Y-78035000D01*
X36801898Y-77995226D01*
X36990256Y-77917205D01*
X37159774Y-77803937D01*
X37303937Y-77659774D01*
X37417205Y-77490256D01*
X37495226Y-77301898D01*
X37535000Y-77101939D01*
X37535000Y-76898061D01*
X37495226Y-76698102D01*
X37417205Y-76509744D01*
X37303937Y-76340226D01*
X37159774Y-76196063D01*
X36990256Y-76082795D01*
X36801898Y-76004774D01*
X36777897Y-76000000D01*
X36801898Y-75995226D01*
X36990256Y-75917205D01*
X37159774Y-75803937D01*
X37303937Y-75659774D01*
X37417205Y-75490256D01*
X37495226Y-75301898D01*
X37535000Y-75101939D01*
X37535000Y-74898061D01*
X37495226Y-74698102D01*
X37417205Y-74509744D01*
X37303937Y-74340226D01*
X37159774Y-74196063D01*
X36990256Y-74082795D01*
X36801898Y-74004774D01*
X36601939Y-73965000D01*
X36398061Y-73965000D01*
X36198102Y-74004774D01*
X36009744Y-74082795D01*
X35840226Y-74196063D01*
X35796289Y-74240000D01*
X28537323Y-74240000D01*
X28500000Y-74236324D01*
X28462677Y-74240000D01*
X28462667Y-74240000D01*
X28351014Y-74250997D01*
X28207753Y-74294454D01*
X28075723Y-74365026D01*
X27992083Y-74433668D01*
X27959999Y-74459999D01*
X27936201Y-74488997D01*
X25489003Y-76936196D01*
X25459999Y-76959999D01*
X25404871Y-77027174D01*
X25365026Y-77075724D01*
X25305145Y-77187753D01*
X25294454Y-77207754D01*
X25250997Y-77351015D01*
X25240000Y-77462668D01*
X25240000Y-77462678D01*
X25236324Y-77500000D01*
X25240000Y-77537323D01*
X25240001Y-82993581D01*
X25240000Y-82993591D01*
X25240001Y-89511928D01*
X25150000Y-89511928D01*
X25025518Y-89524188D01*
X24905820Y-89560498D01*
X24795506Y-89619463D01*
X24698815Y-89698815D01*
X24619463Y-89795506D01*
X24560498Y-89905820D01*
X24524188Y-90025518D01*
X24511928Y-90150000D01*
X22660000Y-90150000D01*
X22660000Y-69898061D01*
X29965000Y-69898061D01*
X29965000Y-70101939D01*
X30004774Y-70301898D01*
X30082795Y-70490256D01*
X30196063Y-70659774D01*
X30340226Y-70803937D01*
X30509744Y-70917205D01*
X30698102Y-70995226D01*
X30898061Y-71035000D01*
X31101939Y-71035000D01*
X31301898Y-70995226D01*
X31490256Y-70917205D01*
X31659774Y-70803937D01*
X31703711Y-70760000D01*
X36185199Y-70760000D01*
X42740001Y-77314803D01*
X42740000Y-83296289D01*
X42696063Y-83340226D01*
X42582795Y-83509744D01*
X42504774Y-83698102D01*
X42465000Y-83898061D01*
X42465000Y-84101939D01*
X42504774Y-84301898D01*
X42582795Y-84490256D01*
X42696063Y-84659774D01*
X42840226Y-84803937D01*
X43009744Y-84917205D01*
X43198102Y-84995226D01*
X43398061Y-85035000D01*
X43601939Y-85035000D01*
X43801898Y-84995226D01*
X43990256Y-84917205D01*
X44159774Y-84803937D01*
X44303937Y-84659774D01*
X44417205Y-84490256D01*
X44495226Y-84301898D01*
X44525440Y-84150000D01*
X53511928Y-84150000D01*
X53511928Y-85850000D01*
X53524188Y-85974482D01*
X53560498Y-86094180D01*
X53619463Y-86204494D01*
X53698815Y-86301185D01*
X53795506Y-86380537D01*
X53905820Y-86439502D01*
X54025518Y-86475812D01*
X54150000Y-86488072D01*
X55850000Y-86488072D01*
X55974482Y-86475812D01*
X56094180Y-86439502D01*
X56204494Y-86380537D01*
X56301185Y-86301185D01*
X56380537Y-86204494D01*
X56439502Y-86094180D01*
X56475812Y-85974482D01*
X56488072Y-85850000D01*
X56488072Y-84150000D01*
X56475812Y-84025518D01*
X56439502Y-83905820D01*
X56380537Y-83795506D01*
X56301185Y-83698815D01*
X56204494Y-83619463D01*
X56094180Y-83560498D01*
X56013534Y-83536034D01*
X56097588Y-83460269D01*
X56271641Y-83226920D01*
X56396825Y-82964099D01*
X56412732Y-82911653D01*
X96187952Y-82911653D01*
X96343962Y-83227214D01*
X96718745Y-83418020D01*
X97123551Y-83532044D01*
X97542824Y-83564902D01*
X97960451Y-83515334D01*
X98360383Y-83385243D01*
X98656038Y-83227214D01*
X98812048Y-82911653D01*
X97500000Y-81599605D01*
X96187952Y-82911653D01*
X56412732Y-82911653D01*
X56441476Y-82816890D01*
X56320155Y-82587000D01*
X55127000Y-82587000D01*
X55127000Y-82607000D01*
X54873000Y-82607000D01*
X54873000Y-82587000D01*
X53679845Y-82587000D01*
X53558524Y-82816890D01*
X53603175Y-82964099D01*
X53728359Y-83226920D01*
X53902412Y-83460269D01*
X53986466Y-83536034D01*
X53905820Y-83560498D01*
X53795506Y-83619463D01*
X53698815Y-83698815D01*
X53619463Y-83795506D01*
X53560498Y-83905820D01*
X53524188Y-84025518D01*
X53511928Y-84150000D01*
X44525440Y-84150000D01*
X44535000Y-84101939D01*
X44535000Y-83898061D01*
X44495226Y-83698102D01*
X44417205Y-83509744D01*
X44303937Y-83340226D01*
X44260000Y-83296289D01*
X44260000Y-82103110D01*
X53558524Y-82103110D01*
X53679845Y-82333000D01*
X54873000Y-82333000D01*
X54873000Y-81139186D01*
X55127000Y-81139186D01*
X55127000Y-82333000D01*
X56320155Y-82333000D01*
X56441476Y-82103110D01*
X56396825Y-81955901D01*
X56271641Y-81693080D01*
X56099896Y-81462824D01*
X95355098Y-81462824D01*
X95404666Y-81880451D01*
X95534757Y-82280383D01*
X95692786Y-82576038D01*
X96008347Y-82732048D01*
X97320395Y-81420000D01*
X97679605Y-81420000D01*
X98991653Y-82732048D01*
X99307214Y-82576038D01*
X99498020Y-82201255D01*
X99612044Y-81796449D01*
X99644902Y-81377176D01*
X99595334Y-80959549D01*
X99465243Y-80559617D01*
X99307214Y-80263962D01*
X98991653Y-80107952D01*
X97679605Y-81420000D01*
X97320395Y-81420000D01*
X96008347Y-80107952D01*
X95692786Y-80263962D01*
X95501980Y-80638745D01*
X95387956Y-81043551D01*
X95355098Y-81462824D01*
X56099896Y-81462824D01*
X56097588Y-81459731D01*
X55881355Y-81264822D01*
X55631252Y-81115843D01*
X55356891Y-81018519D01*
X55127000Y-81139186D01*
X54873000Y-81139186D01*
X54643109Y-81018519D01*
X54368748Y-81115843D01*
X54118645Y-81264822D01*
X53902412Y-81459731D01*
X53728359Y-81693080D01*
X53603175Y-81955901D01*
X53558524Y-82103110D01*
X44260000Y-82103110D01*
X44260000Y-79928347D01*
X96187952Y-79928347D01*
X97500000Y-81240395D01*
X98812048Y-79928347D01*
X98656038Y-79612786D01*
X98281255Y-79421980D01*
X97876449Y-79307956D01*
X97457176Y-79275098D01*
X97039549Y-79324666D01*
X96639617Y-79454757D01*
X96343962Y-79612786D01*
X96187952Y-79928347D01*
X44260000Y-79928347D01*
X44260000Y-77037323D01*
X44263676Y-77000000D01*
X44260000Y-76962677D01*
X44260000Y-76962667D01*
X44249003Y-76851014D01*
X44205546Y-76707753D01*
X44190435Y-76679483D01*
X44134974Y-76575723D01*
X44063799Y-76488997D01*
X44040001Y-76459999D01*
X44011003Y-76436201D01*
X37063804Y-69489003D01*
X37040001Y-69459999D01*
X36924276Y-69365026D01*
X36792247Y-69294454D01*
X36648986Y-69250997D01*
X36537333Y-69240000D01*
X36537322Y-69240000D01*
X36500000Y-69236324D01*
X36462678Y-69240000D01*
X31703711Y-69240000D01*
X31659774Y-69196063D01*
X31490256Y-69082795D01*
X31301898Y-69004774D01*
X31101939Y-68965000D01*
X30898061Y-68965000D01*
X30698102Y-69004774D01*
X30509744Y-69082795D01*
X30340226Y-69196063D01*
X30196063Y-69340226D01*
X30082795Y-69509744D01*
X30004774Y-69698102D01*
X29965000Y-69898061D01*
X22660000Y-69898061D01*
X22660000Y-64500000D01*
X22861928Y-64500000D01*
X22861928Y-67500000D01*
X22874188Y-67624482D01*
X22910498Y-67744180D01*
X22969463Y-67854494D01*
X23048815Y-67951185D01*
X23145506Y-68030537D01*
X23255820Y-68089502D01*
X23375518Y-68125812D01*
X23500000Y-68138072D01*
X26500000Y-68138072D01*
X26624482Y-68125812D01*
X26744180Y-68089502D01*
X26854494Y-68030537D01*
X26951185Y-67951185D01*
X27030537Y-67854494D01*
X27089502Y-67744180D01*
X27125812Y-67624482D01*
X27138072Y-67500000D01*
X27138072Y-65789721D01*
X37865000Y-65789721D01*
X37865000Y-66210279D01*
X37947047Y-66622756D01*
X38107988Y-67011302D01*
X38341637Y-67360983D01*
X38639017Y-67658363D01*
X38988698Y-67892012D01*
X39377244Y-68052953D01*
X39789721Y-68135000D01*
X40210279Y-68135000D01*
X40622756Y-68052953D01*
X41011302Y-67892012D01*
X41360983Y-67658363D01*
X41658363Y-67360983D01*
X41892012Y-67011302D01*
X42052953Y-66622756D01*
X42135000Y-66210279D01*
X42135000Y-65789721D01*
X42865000Y-65789721D01*
X42865000Y-66210279D01*
X42947047Y-66622756D01*
X43107988Y-67011302D01*
X43341637Y-67360983D01*
X43365001Y-67384347D01*
X43365001Y-68419671D01*
X43357089Y-68500000D01*
X43388658Y-68820516D01*
X43482148Y-69128714D01*
X43570738Y-69294454D01*
X43633970Y-69412752D01*
X43838287Y-69661714D01*
X43900682Y-69712920D01*
X49287083Y-75099323D01*
X49338286Y-75161714D01*
X49587248Y-75366031D01*
X49696217Y-75424276D01*
X49871285Y-75517852D01*
X50179483Y-75611343D01*
X50500000Y-75642911D01*
X50580322Y-75635000D01*
X98322762Y-75635000D01*
X100365000Y-77677240D01*
X100365001Y-83322760D01*
X99265740Y-84422022D01*
X99244180Y-84410498D01*
X99124482Y-84374188D01*
X99000000Y-84361928D01*
X96000000Y-84361928D01*
X95875518Y-84374188D01*
X95755820Y-84410498D01*
X95645506Y-84469463D01*
X95548815Y-84548815D01*
X95469463Y-84645506D01*
X95410498Y-84755820D01*
X95374188Y-84875518D01*
X95361928Y-85000000D01*
X95361928Y-88000000D01*
X95374188Y-88124482D01*
X95410498Y-88244180D01*
X95469463Y-88354494D01*
X95548815Y-88451185D01*
X95645506Y-88530537D01*
X95755820Y-88589502D01*
X95875518Y-88625812D01*
X96000000Y-88638072D01*
X99000000Y-88638072D01*
X99124482Y-88625812D01*
X99244180Y-88589502D01*
X99354494Y-88530537D01*
X99451185Y-88451185D01*
X99530537Y-88354494D01*
X99589502Y-88244180D01*
X99623924Y-88130706D01*
X99820516Y-88111343D01*
X100128715Y-88017852D01*
X100412752Y-87866031D01*
X100661714Y-87661714D01*
X100712925Y-87599313D01*
X103099319Y-85212920D01*
X103161714Y-85161714D01*
X103366031Y-84912752D01*
X103517852Y-84628715D01*
X103611343Y-84320516D01*
X103635000Y-84080322D01*
X103635000Y-84080320D01*
X103642911Y-84000000D01*
X103635000Y-83919681D01*
X103635000Y-77080322D01*
X103642911Y-77000000D01*
X103611343Y-76679483D01*
X103517852Y-76371285D01*
X103424194Y-76196063D01*
X103366031Y-76087248D01*
X103161714Y-75838286D01*
X103099325Y-75787085D01*
X100212924Y-72900686D01*
X100161714Y-72838286D01*
X99912752Y-72633969D01*
X99628715Y-72482148D01*
X99320516Y-72388657D01*
X99080322Y-72365000D01*
X99080319Y-72365000D01*
X99000000Y-72357089D01*
X98919681Y-72365000D01*
X51177240Y-72365000D01*
X46635000Y-67822762D01*
X46635000Y-67384346D01*
X46658363Y-67360983D01*
X46892012Y-67011302D01*
X47052953Y-66622756D01*
X47135000Y-66210279D01*
X47135000Y-65789721D01*
X47865000Y-65789721D01*
X47865000Y-66210279D01*
X47947047Y-66622756D01*
X48107988Y-67011302D01*
X48341637Y-67360983D01*
X48365001Y-67384347D01*
X48365001Y-68419671D01*
X48357089Y-68500000D01*
X48388658Y-68820516D01*
X48482148Y-69128714D01*
X48570738Y-69294454D01*
X48633970Y-69412752D01*
X48838287Y-69661714D01*
X48900682Y-69712920D01*
X50287079Y-71099318D01*
X50338286Y-71161714D01*
X50587248Y-71366031D01*
X50871285Y-71517852D01*
X51179484Y-71611343D01*
X51419678Y-71635000D01*
X51419680Y-71635000D01*
X51499999Y-71642911D01*
X51580319Y-71635000D01*
X94419681Y-71635000D01*
X94500000Y-71642911D01*
X94580319Y-71635000D01*
X94580322Y-71635000D01*
X94820516Y-71611343D01*
X95128715Y-71517852D01*
X95412752Y-71366031D01*
X95661714Y-71161714D01*
X95712924Y-71099314D01*
X98599325Y-68212915D01*
X98661714Y-68161714D01*
X98866031Y-67912752D01*
X99017852Y-67628715D01*
X99056897Y-67500000D01*
X99111343Y-67320517D01*
X99142911Y-67000000D01*
X99135000Y-66919678D01*
X99135000Y-45622621D01*
X99244180Y-45589502D01*
X99354494Y-45530537D01*
X99451185Y-45451185D01*
X99530537Y-45354494D01*
X99589502Y-45244180D01*
X99625812Y-45124482D01*
X99638072Y-45000000D01*
X99638072Y-42000000D01*
X99625812Y-41875518D01*
X99589502Y-41755820D01*
X99530537Y-41645506D01*
X99451185Y-41548815D01*
X99354494Y-41469463D01*
X99244180Y-41410498D01*
X99124482Y-41374188D01*
X99000000Y-41361928D01*
X96000000Y-41361928D01*
X95875518Y-41374188D01*
X95755820Y-41410498D01*
X95645506Y-41469463D01*
X95548815Y-41548815D01*
X95469463Y-41645506D01*
X95410498Y-41755820D01*
X95374188Y-41875518D01*
X95361928Y-42000000D01*
X95361928Y-45000000D01*
X95374188Y-45124482D01*
X95410498Y-45244180D01*
X95469463Y-45354494D01*
X95548815Y-45451185D01*
X95645506Y-45530537D01*
X95755820Y-45589502D01*
X95865001Y-45622622D01*
X95865000Y-66322760D01*
X93822762Y-68365000D01*
X52177239Y-68365000D01*
X51635000Y-67822762D01*
X51635000Y-67384346D01*
X51658363Y-67360983D01*
X51892012Y-67011302D01*
X52052953Y-66622756D01*
X52135000Y-66210279D01*
X52135000Y-65789721D01*
X52052953Y-65377244D01*
X51892012Y-64988698D01*
X51658363Y-64639017D01*
X51360983Y-64341637D01*
X51011302Y-64107988D01*
X50622756Y-63947047D01*
X50210279Y-63865000D01*
X49789721Y-63865000D01*
X49377244Y-63947047D01*
X48988698Y-64107988D01*
X48639017Y-64341637D01*
X48341637Y-64639017D01*
X48107988Y-64988698D01*
X47947047Y-65377244D01*
X47865000Y-65789721D01*
X47135000Y-65789721D01*
X47052953Y-65377244D01*
X46892012Y-64988698D01*
X46658363Y-64639017D01*
X46360983Y-64341637D01*
X46011302Y-64107988D01*
X45622756Y-63947047D01*
X45210279Y-63865000D01*
X44789721Y-63865000D01*
X44377244Y-63947047D01*
X43988698Y-64107988D01*
X43639017Y-64341637D01*
X43341637Y-64639017D01*
X43107988Y-64988698D01*
X42947047Y-65377244D01*
X42865000Y-65789721D01*
X42135000Y-65789721D01*
X42052953Y-65377244D01*
X41892012Y-64988698D01*
X41658363Y-64639017D01*
X41360983Y-64341637D01*
X41011302Y-64107988D01*
X40622756Y-63947047D01*
X40210279Y-63865000D01*
X39789721Y-63865000D01*
X39377244Y-63947047D01*
X38988698Y-64107988D01*
X38639017Y-64341637D01*
X38341637Y-64639017D01*
X38107988Y-64988698D01*
X37947047Y-65377244D01*
X37865000Y-65789721D01*
X27138072Y-65789721D01*
X27138072Y-64500000D01*
X27125812Y-64375518D01*
X27089502Y-64255820D01*
X27030537Y-64145506D01*
X26951185Y-64048815D01*
X26854494Y-63969463D01*
X26744180Y-63910498D01*
X26624482Y-63874188D01*
X26500000Y-63861928D01*
X23500000Y-63861928D01*
X23375518Y-63874188D01*
X23255820Y-63910498D01*
X23145506Y-63969463D01*
X23048815Y-64048815D01*
X22969463Y-64145506D01*
X22910498Y-64255820D01*
X22874188Y-64375518D01*
X22861928Y-64500000D01*
X22660000Y-64500000D01*
X22660000Y-62225701D01*
X55215000Y-62225701D01*
X55215000Y-62774299D01*
X55322026Y-63312354D01*
X55531965Y-63819192D01*
X55836750Y-64275334D01*
X56224666Y-64663250D01*
X56680808Y-64968035D01*
X57187646Y-65177974D01*
X57725701Y-65285000D01*
X58274299Y-65285000D01*
X58812354Y-65177974D01*
X59319192Y-64968035D01*
X59775334Y-64663250D01*
X60163250Y-64275334D01*
X60468035Y-63819192D01*
X60677974Y-63312354D01*
X60785000Y-62774299D01*
X60785000Y-62225701D01*
X60677974Y-61687646D01*
X60468035Y-61180808D01*
X60163250Y-60724666D01*
X59775334Y-60336750D01*
X59319192Y-60031965D01*
X58812354Y-59822026D01*
X58274299Y-59715000D01*
X57725701Y-59715000D01*
X57187646Y-59822026D01*
X56680808Y-60031965D01*
X56224666Y-60336750D01*
X55836750Y-60724666D01*
X55531965Y-61180808D01*
X55322026Y-61687646D01*
X55215000Y-62225701D01*
X22660000Y-62225701D01*
X22660000Y-59991653D01*
X23687952Y-59991653D01*
X23843962Y-60307214D01*
X24218745Y-60498020D01*
X24623551Y-60612044D01*
X25042824Y-60644902D01*
X25460451Y-60595334D01*
X25860383Y-60465243D01*
X26156038Y-60307214D01*
X26312048Y-59991653D01*
X25000000Y-58679605D01*
X23687952Y-59991653D01*
X22660000Y-59991653D01*
X22660000Y-58542824D01*
X22855098Y-58542824D01*
X22904666Y-58960451D01*
X23034757Y-59360383D01*
X23192786Y-59656038D01*
X23508347Y-59812048D01*
X24820395Y-58500000D01*
X25179605Y-58500000D01*
X26491653Y-59812048D01*
X26807214Y-59656038D01*
X26998020Y-59281255D01*
X27112044Y-58876449D01*
X27144902Y-58457176D01*
X27125027Y-58289721D01*
X37865000Y-58289721D01*
X37865000Y-58710279D01*
X37947047Y-59122756D01*
X38107988Y-59511302D01*
X38341637Y-59860983D01*
X38639017Y-60158363D01*
X38988698Y-60392012D01*
X39377244Y-60552953D01*
X39789721Y-60635000D01*
X40210279Y-60635000D01*
X40622756Y-60552953D01*
X41011302Y-60392012D01*
X41360983Y-60158363D01*
X41527693Y-59991653D01*
X43687952Y-59991653D01*
X43843962Y-60307214D01*
X44218745Y-60498020D01*
X44623551Y-60612044D01*
X45042824Y-60644902D01*
X45460451Y-60595334D01*
X45860383Y-60465243D01*
X46156038Y-60307214D01*
X46312048Y-59991653D01*
X45000000Y-58679605D01*
X43687952Y-59991653D01*
X41527693Y-59991653D01*
X41658363Y-59860983D01*
X41892012Y-59511302D01*
X42052953Y-59122756D01*
X42135000Y-58710279D01*
X42135000Y-58542824D01*
X42855098Y-58542824D01*
X42904666Y-58960451D01*
X43034757Y-59360383D01*
X43192786Y-59656038D01*
X43508347Y-59812048D01*
X44820395Y-58500000D01*
X45179605Y-58500000D01*
X46491653Y-59812048D01*
X46807214Y-59656038D01*
X46998020Y-59281255D01*
X47112044Y-58876449D01*
X47144902Y-58457176D01*
X47125027Y-58289721D01*
X47865000Y-58289721D01*
X47865000Y-58710279D01*
X47947047Y-59122756D01*
X48107988Y-59511302D01*
X48341637Y-59860983D01*
X48639017Y-60158363D01*
X48988698Y-60392012D01*
X49377244Y-60552953D01*
X49789721Y-60635000D01*
X50210279Y-60635000D01*
X50622756Y-60552953D01*
X51011302Y-60392012D01*
X51360983Y-60158363D01*
X51658363Y-59860983D01*
X51892012Y-59511302D01*
X52052953Y-59122756D01*
X52135000Y-58710279D01*
X52135000Y-58677238D01*
X55177239Y-55635000D01*
X85419681Y-55635000D01*
X85500000Y-55642911D01*
X85580319Y-55635000D01*
X85580322Y-55635000D01*
X85820516Y-55611343D01*
X86128715Y-55517852D01*
X86412752Y-55366031D01*
X86661714Y-55161714D01*
X86712925Y-55099313D01*
X93099320Y-48712919D01*
X93161714Y-48661714D01*
X93366031Y-48412752D01*
X93517852Y-48128715D01*
X93611343Y-47820516D01*
X93635000Y-47580322D01*
X93635000Y-47580320D01*
X93642911Y-47500001D01*
X93635000Y-47419681D01*
X93635000Y-41517238D01*
X95097239Y-40055000D01*
X96115654Y-40055000D01*
X96139017Y-40078363D01*
X96488698Y-40312012D01*
X96877244Y-40472953D01*
X97289721Y-40555000D01*
X97710279Y-40555000D01*
X98122756Y-40472953D01*
X98511302Y-40312012D01*
X98860983Y-40078363D01*
X99158363Y-39780983D01*
X99392012Y-39431302D01*
X99552953Y-39042756D01*
X99635000Y-38630279D01*
X99635000Y-38209721D01*
X99552953Y-37797244D01*
X99392012Y-37408698D01*
X99158363Y-37059017D01*
X98860983Y-36761637D01*
X98511302Y-36527988D01*
X98122756Y-36367047D01*
X97710279Y-36285000D01*
X97289721Y-36285000D01*
X96877244Y-36367047D01*
X96488698Y-36527988D01*
X96139017Y-36761637D01*
X96115654Y-36785000D01*
X94500322Y-36785000D01*
X94420000Y-36777089D01*
X94099483Y-36808657D01*
X93791285Y-36902148D01*
X93507248Y-37053969D01*
X93258286Y-37258286D01*
X93207080Y-37320681D01*
X90900682Y-39627080D01*
X90838287Y-39678286D01*
X90705387Y-39840226D01*
X90633970Y-39927248D01*
X90482148Y-40211286D01*
X90388658Y-40519484D01*
X90357089Y-40840000D01*
X90365001Y-40920329D01*
X90365000Y-46822761D01*
X84822762Y-52365000D01*
X54580319Y-52365000D01*
X54499999Y-52357089D01*
X54419680Y-52365000D01*
X54419678Y-52365000D01*
X54179484Y-52388657D01*
X53871285Y-52482148D01*
X53587248Y-52633969D01*
X53338286Y-52838286D01*
X53287080Y-52900681D01*
X49822762Y-56365000D01*
X49789721Y-56365000D01*
X49377244Y-56447047D01*
X48988698Y-56607988D01*
X48639017Y-56841637D01*
X48341637Y-57139017D01*
X48107988Y-57488698D01*
X47947047Y-57877244D01*
X47865000Y-58289721D01*
X47125027Y-58289721D01*
X47095334Y-58039549D01*
X46965243Y-57639617D01*
X46807214Y-57343962D01*
X46491653Y-57187952D01*
X45179605Y-58500000D01*
X44820395Y-58500000D01*
X43508347Y-57187952D01*
X43192786Y-57343962D01*
X43001980Y-57718745D01*
X42887956Y-58123551D01*
X42855098Y-58542824D01*
X42135000Y-58542824D01*
X42135000Y-58289721D01*
X42052953Y-57877244D01*
X41892012Y-57488698D01*
X41658363Y-57139017D01*
X41527693Y-57008347D01*
X43687952Y-57008347D01*
X45000000Y-58320395D01*
X46312048Y-57008347D01*
X46156038Y-56692786D01*
X45781255Y-56501980D01*
X45376449Y-56387956D01*
X44957176Y-56355098D01*
X44539549Y-56404666D01*
X44139617Y-56534757D01*
X43843962Y-56692786D01*
X43687952Y-57008347D01*
X41527693Y-57008347D01*
X41360983Y-56841637D01*
X41011302Y-56607988D01*
X40622756Y-56447047D01*
X40210279Y-56365000D01*
X39789721Y-56365000D01*
X39377244Y-56447047D01*
X38988698Y-56607988D01*
X38639017Y-56841637D01*
X38341637Y-57139017D01*
X38107988Y-57488698D01*
X37947047Y-57877244D01*
X37865000Y-58289721D01*
X27125027Y-58289721D01*
X27095334Y-58039549D01*
X26965243Y-57639617D01*
X26807214Y-57343962D01*
X26491653Y-57187952D01*
X25179605Y-58500000D01*
X24820395Y-58500000D01*
X23508347Y-57187952D01*
X23192786Y-57343962D01*
X23001980Y-57718745D01*
X22887956Y-58123551D01*
X22855098Y-58542824D01*
X22660000Y-58542824D01*
X22660000Y-57008347D01*
X23687952Y-57008347D01*
X25000000Y-58320395D01*
X26312048Y-57008347D01*
X26156038Y-56692786D01*
X25781255Y-56501980D01*
X25376449Y-56387956D01*
X24957176Y-56355098D01*
X24539549Y-56404666D01*
X24139617Y-56534757D01*
X23843962Y-56692786D01*
X23687952Y-57008347D01*
X22660000Y-57008347D01*
X22660000Y-34013740D01*
X24515000Y-34013740D01*
X24515000Y-34306260D01*
X24572068Y-34593158D01*
X24684010Y-34863411D01*
X24846525Y-35106632D01*
X25053368Y-35313475D01*
X25296589Y-35475990D01*
X25566842Y-35587932D01*
X25853740Y-35645000D01*
X26146260Y-35645000D01*
X26433158Y-35587932D01*
X26703411Y-35475990D01*
X26946632Y-35313475D01*
X27153475Y-35106632D01*
X27315990Y-34863411D01*
X27427932Y-34593158D01*
X27485000Y-34306260D01*
X27485000Y-34013740D01*
X27427932Y-33726842D01*
X27315990Y-33456589D01*
X27153475Y-33213368D01*
X26946632Y-33006525D01*
X26764466Y-32884805D01*
X26881355Y-32815178D01*
X27097588Y-32620269D01*
X27271641Y-32386920D01*
X27396825Y-32124099D01*
X27441476Y-31976890D01*
X27320155Y-31747000D01*
X26127000Y-31747000D01*
X26127000Y-31767000D01*
X25873000Y-31767000D01*
X25873000Y-31747000D01*
X24679845Y-31747000D01*
X24558524Y-31976890D01*
X24603175Y-32124099D01*
X24728359Y-32386920D01*
X24902412Y-32620269D01*
X25118645Y-32815178D01*
X25235534Y-32884805D01*
X25053368Y-33006525D01*
X24846525Y-33213368D01*
X24684010Y-33456589D01*
X24572068Y-33726842D01*
X24515000Y-34013740D01*
X22660000Y-34013740D01*
X22660000Y-29436890D01*
X24558524Y-29436890D01*
X24603175Y-29584099D01*
X24728359Y-29846920D01*
X24902412Y-30080269D01*
X25118645Y-30275178D01*
X25244255Y-30350000D01*
X25118645Y-30424822D01*
X24902412Y-30619731D01*
X24728359Y-30853080D01*
X24603175Y-31115901D01*
X24558524Y-31263110D01*
X24679845Y-31493000D01*
X25873000Y-31493000D01*
X25873000Y-29207000D01*
X26127000Y-29207000D01*
X26127000Y-31493000D01*
X27320155Y-31493000D01*
X27441476Y-31263110D01*
X27396825Y-31115901D01*
X27271641Y-30853080D01*
X27097588Y-30619731D01*
X26881355Y-30424822D01*
X26755745Y-30350000D01*
X26881355Y-30275178D01*
X27097588Y-30080269D01*
X27271641Y-29846920D01*
X27396825Y-29584099D01*
X27441476Y-29436890D01*
X27320155Y-29207000D01*
X26127000Y-29207000D01*
X25873000Y-29207000D01*
X24679845Y-29207000D01*
X24558524Y-29436890D01*
X22660000Y-29436890D01*
X22660000Y-23150000D01*
X24511928Y-23150000D01*
X24511928Y-24850000D01*
X24524188Y-24974482D01*
X24560498Y-25094180D01*
X24619463Y-25204494D01*
X24698815Y-25301185D01*
X24795506Y-25380537D01*
X24905820Y-25439502D01*
X24978380Y-25461513D01*
X24846525Y-25593368D01*
X24684010Y-25836589D01*
X24572068Y-26106842D01*
X24515000Y-26393740D01*
X24515000Y-26686260D01*
X24572068Y-26973158D01*
X24684010Y-27243411D01*
X24846525Y-27486632D01*
X25053368Y-27693475D01*
X25235534Y-27815195D01*
X25118645Y-27884822D01*
X24902412Y-28079731D01*
X24728359Y-28313080D01*
X24603175Y-28575901D01*
X24558524Y-28723110D01*
X24679845Y-28953000D01*
X25873000Y-28953000D01*
X25873000Y-28933000D01*
X26127000Y-28933000D01*
X26127000Y-28953000D01*
X27320155Y-28953000D01*
X27441476Y-28723110D01*
X27396825Y-28575901D01*
X27271641Y-28313080D01*
X27097588Y-28079731D01*
X26881355Y-27884822D01*
X26764466Y-27815195D01*
X26946632Y-27693475D01*
X27153475Y-27486632D01*
X27315990Y-27243411D01*
X27427932Y-26973158D01*
X27485000Y-26686260D01*
X27485000Y-26393740D01*
X27427932Y-26106842D01*
X27315990Y-25836589D01*
X27153475Y-25593368D01*
X27021620Y-25461513D01*
X27094180Y-25439502D01*
X27204494Y-25380537D01*
X27301185Y-25301185D01*
X27380537Y-25204494D01*
X27439502Y-25094180D01*
X27475812Y-24974482D01*
X27488072Y-24850000D01*
X27488072Y-23853740D01*
X30895000Y-23853740D01*
X30895000Y-24146260D01*
X30952068Y-24433158D01*
X31064010Y-24703411D01*
X31226525Y-24946632D01*
X31433368Y-25153475D01*
X31620000Y-25278179D01*
X31620001Y-41842657D01*
X31620000Y-41842667D01*
X31620000Y-42342678D01*
X31616324Y-42380000D01*
X31620000Y-42417322D01*
X31620000Y-42417332D01*
X31630997Y-42528985D01*
X31648671Y-42587248D01*
X31674454Y-42672246D01*
X31745026Y-42804276D01*
X31783383Y-42851013D01*
X31839999Y-42920001D01*
X31869002Y-42943803D01*
X32436205Y-43511008D01*
X32459999Y-43540001D01*
X32488992Y-43563795D01*
X32488996Y-43563799D01*
X32559685Y-43621811D01*
X32575724Y-43634974D01*
X32707753Y-43705546D01*
X32851014Y-43749003D01*
X32962667Y-43760000D01*
X32962676Y-43760000D01*
X32999999Y-43763676D01*
X33037322Y-43760000D01*
X33796289Y-43760000D01*
X33840226Y-43803937D01*
X34009744Y-43917205D01*
X34198102Y-43995226D01*
X34398061Y-44035000D01*
X34601939Y-44035000D01*
X34801898Y-43995226D01*
X34990256Y-43917205D01*
X35159774Y-43803937D01*
X35303937Y-43659774D01*
X35417205Y-43490256D01*
X35495226Y-43301898D01*
X35535000Y-43101939D01*
X35535000Y-42898061D01*
X35495226Y-42698102D01*
X35417205Y-42509744D01*
X35303937Y-42340226D01*
X35159774Y-42196063D01*
X34990256Y-42082795D01*
X34801898Y-42004774D01*
X34601939Y-41965000D01*
X34398061Y-41965000D01*
X34198102Y-42004774D01*
X34009744Y-42082795D01*
X33840226Y-42196063D01*
X33796289Y-42240000D01*
X33314802Y-42240000D01*
X33140000Y-42065198D01*
X33140000Y-41471159D01*
X33198102Y-41495226D01*
X33398061Y-41535000D01*
X33601939Y-41535000D01*
X33801898Y-41495226D01*
X33990256Y-41417205D01*
X34159774Y-41303937D01*
X34303937Y-41159774D01*
X34417205Y-40990256D01*
X34495226Y-40801898D01*
X34535000Y-40601939D01*
X34535000Y-40398061D01*
X34495226Y-40198102D01*
X34417205Y-40009744D01*
X34303937Y-39840226D01*
X34260000Y-39796289D01*
X34260000Y-31725701D01*
X132215000Y-31725701D01*
X132215000Y-32274299D01*
X132322026Y-32812354D01*
X132531965Y-33319192D01*
X132836750Y-33775334D01*
X133224666Y-34163250D01*
X133680808Y-34468035D01*
X134187646Y-34677974D01*
X134725701Y-34785000D01*
X135274299Y-34785000D01*
X135812354Y-34677974D01*
X136319192Y-34468035D01*
X136775334Y-34163250D01*
X137163250Y-33775334D01*
X137468035Y-33319192D01*
X137677974Y-32812354D01*
X137785000Y-32274299D01*
X137785000Y-31725701D01*
X137677974Y-31187646D01*
X137468035Y-30680808D01*
X137163250Y-30224666D01*
X136775334Y-29836750D01*
X136319192Y-29531965D01*
X135812354Y-29322026D01*
X135274299Y-29215000D01*
X134725701Y-29215000D01*
X134187646Y-29322026D01*
X133680808Y-29531965D01*
X133224666Y-29836750D01*
X132836750Y-30224666D01*
X132531965Y-30680808D01*
X132322026Y-31187646D01*
X132215000Y-31725701D01*
X34260000Y-31725701D01*
X34260000Y-27814801D01*
X34294929Y-27779872D01*
X60765000Y-27779872D01*
X60765000Y-28220128D01*
X60850890Y-28651925D01*
X61019369Y-29058669D01*
X61263962Y-29424729D01*
X61575271Y-29736038D01*
X61941331Y-29980631D01*
X62348075Y-30149110D01*
X62779872Y-30235000D01*
X63220128Y-30235000D01*
X63651925Y-30149110D01*
X64058669Y-29980631D01*
X64424729Y-29736038D01*
X64736038Y-29424729D01*
X64980631Y-29058669D01*
X65149110Y-28651925D01*
X65235000Y-28220128D01*
X65235000Y-27779872D01*
X65149110Y-27348075D01*
X64980631Y-26941331D01*
X64736038Y-26575271D01*
X64424729Y-26263962D01*
X64058669Y-26019369D01*
X63651925Y-25850890D01*
X63220128Y-25765000D01*
X62779872Y-25765000D01*
X62348075Y-25850890D01*
X61941331Y-26019369D01*
X61575271Y-26263962D01*
X61263962Y-26575271D01*
X61019369Y-26941331D01*
X60850890Y-27348075D01*
X60765000Y-27779872D01*
X34294929Y-27779872D01*
X35431003Y-26643799D01*
X35460001Y-26620001D01*
X35554974Y-26504276D01*
X35625546Y-26372247D01*
X35669003Y-26228986D01*
X35680000Y-26117333D01*
X35680000Y-26117324D01*
X35683676Y-26080001D01*
X35680000Y-26042678D01*
X35680000Y-25278178D01*
X35866632Y-25153475D01*
X36073475Y-24946632D01*
X36195195Y-24764466D01*
X36264822Y-24881355D01*
X36459731Y-25097588D01*
X36693080Y-25271641D01*
X36955901Y-25396825D01*
X37103110Y-25441476D01*
X37333000Y-25320155D01*
X37333000Y-24127000D01*
X37313000Y-24127000D01*
X37313000Y-23873000D01*
X37333000Y-23873000D01*
X37333000Y-23853000D01*
X37587000Y-23853000D01*
X37587000Y-23873000D01*
X37607000Y-23873000D01*
X37607000Y-24127000D01*
X37587000Y-24127000D01*
X37587000Y-25320155D01*
X37816890Y-25441476D01*
X37964099Y-25396825D01*
X38226920Y-25271641D01*
X38460269Y-25097588D01*
X38536034Y-25013534D01*
X38560498Y-25094180D01*
X38619463Y-25204494D01*
X38698815Y-25301185D01*
X38795506Y-25380537D01*
X38905820Y-25439502D01*
X39025518Y-25475812D01*
X39150000Y-25488072D01*
X40850000Y-25488072D01*
X40974482Y-25475812D01*
X41094180Y-25439502D01*
X41204494Y-25380537D01*
X41301185Y-25301185D01*
X41380537Y-25204494D01*
X41439502Y-25094180D01*
X41475812Y-24974482D01*
X41488072Y-24850000D01*
X41488072Y-23150000D01*
X41475812Y-23025518D01*
X41439502Y-22905820D01*
X41380537Y-22795506D01*
X41351398Y-22760000D01*
X44648602Y-22760000D01*
X44619463Y-22795506D01*
X44560498Y-22905820D01*
X44524188Y-23025518D01*
X44511928Y-23150000D01*
X44511928Y-24850000D01*
X44524188Y-24974482D01*
X44560498Y-25094180D01*
X44619463Y-25204494D01*
X44698815Y-25301185D01*
X44795506Y-25380537D01*
X44905820Y-25439502D01*
X45025518Y-25475812D01*
X45150000Y-25488072D01*
X46850000Y-25488072D01*
X46974482Y-25475812D01*
X47094180Y-25439502D01*
X47204494Y-25380537D01*
X47301185Y-25301185D01*
X47380537Y-25204494D01*
X47439502Y-25094180D01*
X47461513Y-25021620D01*
X47593368Y-25153475D01*
X47836589Y-25315990D01*
X48106842Y-25427932D01*
X48393740Y-25485000D01*
X48686260Y-25485000D01*
X48973158Y-25427932D01*
X49243411Y-25315990D01*
X49486632Y-25153475D01*
X49693475Y-24946632D01*
X49810000Y-24772240D01*
X49926525Y-24946632D01*
X50133368Y-25153475D01*
X50376589Y-25315990D01*
X50646842Y-25427932D01*
X50933740Y-25485000D01*
X51226260Y-25485000D01*
X51513158Y-25427932D01*
X51783411Y-25315990D01*
X52026632Y-25153475D01*
X52233475Y-24946632D01*
X52350000Y-24772240D01*
X52466525Y-24946632D01*
X52673368Y-25153475D01*
X52916589Y-25315990D01*
X53186842Y-25427932D01*
X53473740Y-25485000D01*
X53766260Y-25485000D01*
X54053158Y-25427932D01*
X54323411Y-25315990D01*
X54566632Y-25153475D01*
X54773475Y-24946632D01*
X54895195Y-24764466D01*
X54964822Y-24881355D01*
X55159731Y-25097588D01*
X55393080Y-25271641D01*
X55655901Y-25396825D01*
X55803110Y-25441476D01*
X56033000Y-25320155D01*
X56033000Y-24127000D01*
X56287000Y-24127000D01*
X56287000Y-25320155D01*
X56516890Y-25441476D01*
X56664099Y-25396825D01*
X56926920Y-25271641D01*
X57160269Y-25097588D01*
X57355178Y-24881355D01*
X57504157Y-24631252D01*
X57601481Y-24356891D01*
X57480814Y-24127000D01*
X56287000Y-24127000D01*
X56033000Y-24127000D01*
X56013000Y-24127000D01*
X56013000Y-23873000D01*
X56033000Y-23873000D01*
X56033000Y-22679845D01*
X56287000Y-22679845D01*
X56287000Y-23873000D01*
X57480814Y-23873000D01*
X57601481Y-23643109D01*
X57504157Y-23368748D01*
X57355178Y-23118645D01*
X57160269Y-22902412D01*
X56926920Y-22728359D01*
X56664099Y-22603175D01*
X56516890Y-22558524D01*
X56287000Y-22679845D01*
X56033000Y-22679845D01*
X55803110Y-22558524D01*
X55655901Y-22603175D01*
X55393080Y-22728359D01*
X55159731Y-22902412D01*
X54964822Y-23118645D01*
X54895195Y-23235534D01*
X54773475Y-23053368D01*
X54566632Y-22846525D01*
X54323411Y-22684010D01*
X54053158Y-22572068D01*
X53766260Y-22515000D01*
X53473740Y-22515000D01*
X53186842Y-22572068D01*
X52916589Y-22684010D01*
X52673368Y-22846525D01*
X52466525Y-23053368D01*
X52350000Y-23227760D01*
X52233475Y-23053368D01*
X52026632Y-22846525D01*
X51783411Y-22684010D01*
X51513158Y-22572068D01*
X51226260Y-22515000D01*
X50933740Y-22515000D01*
X50646842Y-22572068D01*
X50376589Y-22684010D01*
X50133368Y-22846525D01*
X49926525Y-23053368D01*
X49810000Y-23227760D01*
X49693475Y-23053368D01*
X49486632Y-22846525D01*
X49300000Y-22721822D01*
X49300000Y-22577322D01*
X49303676Y-22539999D01*
X49300000Y-22502676D01*
X49300000Y-22502667D01*
X49289003Y-22391014D01*
X49245546Y-22247753D01*
X49174974Y-22115724D01*
X49080001Y-21999999D01*
X49051002Y-21976200D01*
X48563803Y-21489002D01*
X48540001Y-21459999D01*
X48424276Y-21365026D01*
X48292247Y-21294454D01*
X48148986Y-21250997D01*
X48037333Y-21240000D01*
X48037322Y-21240000D01*
X48000000Y-21236324D01*
X47962678Y-21240000D01*
X33037322Y-21240000D01*
X32999999Y-21236324D01*
X32962676Y-21240000D01*
X32962667Y-21240000D01*
X32851014Y-21250997D01*
X32707753Y-21294454D01*
X32575724Y-21365026D01*
X32575722Y-21365027D01*
X32575723Y-21365027D01*
X32488996Y-21436201D01*
X32488992Y-21436205D01*
X32459999Y-21459999D01*
X32436205Y-21488992D01*
X31868997Y-22056202D01*
X31840000Y-22079999D01*
X31816202Y-22108997D01*
X31816201Y-22108998D01*
X31745026Y-22195724D01*
X31674454Y-22327754D01*
X31645186Y-22424240D01*
X31630998Y-22471014D01*
X31621369Y-22568782D01*
X31616324Y-22620000D01*
X31620001Y-22657332D01*
X31620001Y-22721821D01*
X31433368Y-22846525D01*
X31226525Y-23053368D01*
X31064010Y-23296589D01*
X30952068Y-23566842D01*
X30895000Y-23853740D01*
X27488072Y-23853740D01*
X27488072Y-23150000D01*
X27475812Y-23025518D01*
X27439502Y-22905820D01*
X27380537Y-22795506D01*
X27301185Y-22698815D01*
X27204494Y-22619463D01*
X27094180Y-22560498D01*
X26974482Y-22524188D01*
X26850000Y-22511928D01*
X25150000Y-22511928D01*
X25025518Y-22524188D01*
X24905820Y-22560498D01*
X24795506Y-22619463D01*
X24698815Y-22698815D01*
X24619463Y-22795506D01*
X24560498Y-22905820D01*
X24524188Y-23025518D01*
X24511928Y-23150000D01*
X22660000Y-23150000D01*
X22660000Y-22032279D01*
X22688625Y-21740341D01*
X22764035Y-21490571D01*
X22886522Y-21260208D01*
X23051422Y-21058020D01*
X23252450Y-20891714D01*
X23481954Y-20767622D01*
X23731195Y-20690469D01*
X24021088Y-20660000D01*
X157967721Y-20660000D01*
X158259659Y-20688625D01*
G37*
G04 #@! TD.AperFunction*
M02*
