%FSLAX45Y45*%
G04 Gerber Fmt 4.5, Leading zero omitted, Abs format (unit mm)*
G04 Created by KiCad (PCBNEW (5.1.8)-1) date 2021-05-16 02:32:17*
%MOMM*%
%LPD*%
G01*
G04 APERTURE LIST*
%TA.AperFunction,Profile*%
%ADD10C,0.050000*%
%TD*%
%ADD11C,0.200000*%
%ADD12C,0.300000*%
G04 APERTURE END LIST*
D10*
X16000000Y-10300000D02*
G75*
G02*
X15800000Y-10500000I-200000J0D01*
G01*
X15800000Y-2000000D02*
G75*
G02*
X16000000Y-2200000I0J-200000D01*
G01*
X2200000Y-10300000D02*
X2200000Y-2200000D01*
X16000000Y-2200000D02*
X16000000Y-10300000D01*
X2400000Y-10500000D02*
X15800000Y-10500000D01*
X15800000Y-2000000D02*
X2400000Y-2000000D01*
X2400000Y-10500000D02*
G75*
G02*
X2200000Y-10300000I0J200000D01*
G01*
X2200000Y-2200000D02*
G75*
G02*
X2400000Y-2000000I200000J0D01*
G01*
D11*
X6140000Y-2640000D02*
X6460000Y-2960000D01*
X6460000Y-2640000D02*
X6140000Y-2960000D01*
X15390000Y-9640000D02*
X15710000Y-9960000D01*
X15710000Y-9640000D02*
X15390000Y-9960000D01*
X13715000Y-9300000D02*
G75*
G03*
X13715000Y-9300000I-215000J0D01*
G01*
X13715000Y-3200000D02*
G75*
G03*
X13715000Y-3200000I-215000J0D01*
G01*
X6015000Y-6250000D02*
G75*
G03*
X6015000Y-6250000I-215000J0D01*
G01*
D12*
X2483928Y-10968214D02*
X2483928Y-10668214D01*
X2555357Y-10668214D01*
X2598214Y-10682500D01*
X2626786Y-10711072D01*
X2641071Y-10739643D01*
X2655357Y-10796786D01*
X2655357Y-10839643D01*
X2641071Y-10896786D01*
X2626786Y-10925357D01*
X2598214Y-10953929D01*
X2555357Y-10968214D01*
X2483928Y-10968214D01*
X2783928Y-10968214D02*
X2783928Y-10768214D01*
X2783928Y-10825357D02*
X2798214Y-10796786D01*
X2812500Y-10782500D01*
X2841071Y-10768214D01*
X2869643Y-10768214D01*
X2969643Y-10968214D02*
X2969643Y-10768214D01*
X2969643Y-10668214D02*
X2955357Y-10682500D01*
X2969643Y-10696786D01*
X2983928Y-10682500D01*
X2969643Y-10668214D01*
X2969643Y-10696786D01*
X3155357Y-10968214D02*
X3126786Y-10953929D01*
X3112500Y-10925357D01*
X3112500Y-10668214D01*
X3312500Y-10968214D02*
X3283928Y-10953929D01*
X3269643Y-10925357D01*
X3269643Y-10668214D01*
X3655357Y-10968214D02*
X3655357Y-10668214D01*
X3755357Y-10882500D01*
X3855357Y-10668214D01*
X3855357Y-10968214D01*
X4126786Y-10968214D02*
X4126786Y-10811072D01*
X4112500Y-10782500D01*
X4083928Y-10768214D01*
X4026786Y-10768214D01*
X3998214Y-10782500D01*
X4126786Y-10953929D02*
X4098214Y-10968214D01*
X4026786Y-10968214D01*
X3998214Y-10953929D01*
X3983928Y-10925357D01*
X3983928Y-10896786D01*
X3998214Y-10868214D01*
X4026786Y-10853929D01*
X4098214Y-10853929D01*
X4126786Y-10839643D01*
X4269643Y-10768214D02*
X4269643Y-11068214D01*
X4269643Y-10782500D02*
X4298214Y-10768214D01*
X4355357Y-10768214D01*
X4383928Y-10782500D01*
X4398214Y-10796786D01*
X4412500Y-10825357D01*
X4412500Y-10911072D01*
X4398214Y-10939643D01*
X4383928Y-10953929D01*
X4355357Y-10968214D01*
X4298214Y-10968214D01*
X4269643Y-10953929D01*
X4541071Y-10939643D02*
X4555357Y-10953929D01*
X4541071Y-10968214D01*
X4526786Y-10953929D01*
X4541071Y-10939643D01*
X4541071Y-10968214D01*
X4541071Y-10782500D02*
X4555357Y-10796786D01*
X4541071Y-10811072D01*
X4526786Y-10796786D01*
X4541071Y-10782500D01*
X4541071Y-10811072D01*
X1877500Y-11302500D02*
X2197500Y-11622500D01*
X2197500Y-11302500D02*
X1877500Y-11622500D01*
X2455357Y-11298214D02*
X2641071Y-11298214D01*
X2541071Y-11412500D01*
X2583928Y-11412500D01*
X2612500Y-11426786D01*
X2626786Y-11441071D01*
X2641071Y-11469643D01*
X2641071Y-11541071D01*
X2626786Y-11569643D01*
X2612500Y-11583929D01*
X2583928Y-11598214D01*
X2498214Y-11598214D01*
X2469643Y-11583929D01*
X2455357Y-11569643D01*
X2769643Y-11569643D02*
X2783928Y-11583929D01*
X2769643Y-11598214D01*
X2755357Y-11583929D01*
X2769643Y-11569643D01*
X2769643Y-11598214D01*
X2898214Y-11326786D02*
X2912500Y-11312500D01*
X2941071Y-11298214D01*
X3012500Y-11298214D01*
X3041071Y-11312500D01*
X3055357Y-11326786D01*
X3069643Y-11355357D01*
X3069643Y-11383929D01*
X3055357Y-11426786D01*
X2883928Y-11598214D01*
X3069643Y-11598214D01*
X3255357Y-11298214D02*
X3283928Y-11298214D01*
X3312500Y-11312500D01*
X3326786Y-11326786D01*
X3341071Y-11355357D01*
X3355357Y-11412500D01*
X3355357Y-11483929D01*
X3341071Y-11541071D01*
X3326786Y-11569643D01*
X3312500Y-11583929D01*
X3283928Y-11598214D01*
X3255357Y-11598214D01*
X3226786Y-11583929D01*
X3212500Y-11569643D01*
X3198214Y-11541071D01*
X3183928Y-11483929D01*
X3183928Y-11412500D01*
X3198214Y-11355357D01*
X3212500Y-11326786D01*
X3226786Y-11312500D01*
X3255357Y-11298214D01*
X3483928Y-11598214D02*
X3483928Y-11398214D01*
X3483928Y-11426786D02*
X3498214Y-11412500D01*
X3526786Y-11398214D01*
X3569643Y-11398214D01*
X3598214Y-11412500D01*
X3612500Y-11441071D01*
X3612500Y-11598214D01*
X3612500Y-11441071D02*
X3626786Y-11412500D01*
X3655357Y-11398214D01*
X3698214Y-11398214D01*
X3726786Y-11412500D01*
X3741071Y-11441071D01*
X3741071Y-11598214D01*
X3883928Y-11598214D02*
X3883928Y-11398214D01*
X3883928Y-11426786D02*
X3898214Y-11412500D01*
X3926786Y-11398214D01*
X3969643Y-11398214D01*
X3998214Y-11412500D01*
X4012500Y-11441071D01*
X4012500Y-11598214D01*
X4012500Y-11441071D02*
X4026786Y-11412500D01*
X4055357Y-11398214D01*
X4098214Y-11398214D01*
X4126786Y-11412500D01*
X4141071Y-11441071D01*
X4141071Y-11598214D01*
X4726786Y-11283929D02*
X4469643Y-11669643D01*
X5112500Y-11298214D02*
X5141071Y-11298214D01*
X5169643Y-11312500D01*
X5183928Y-11326786D01*
X5198214Y-11355357D01*
X5212500Y-11412500D01*
X5212500Y-11483929D01*
X5198214Y-11541071D01*
X5183928Y-11569643D01*
X5169643Y-11583929D01*
X5141071Y-11598214D01*
X5112500Y-11598214D01*
X5083928Y-11583929D01*
X5069643Y-11569643D01*
X5055357Y-11541071D01*
X5041071Y-11483929D01*
X5041071Y-11412500D01*
X5055357Y-11355357D01*
X5069643Y-11326786D01*
X5083928Y-11312500D01*
X5112500Y-11298214D01*
X5341071Y-11569643D02*
X5355357Y-11583929D01*
X5341071Y-11598214D01*
X5326786Y-11583929D01*
X5341071Y-11569643D01*
X5341071Y-11598214D01*
X5641071Y-11598214D02*
X5469643Y-11598214D01*
X5555357Y-11598214D02*
X5555357Y-11298214D01*
X5526786Y-11341071D01*
X5498214Y-11369643D01*
X5469643Y-11383929D01*
X5755357Y-11326786D02*
X5769643Y-11312500D01*
X5798214Y-11298214D01*
X5869643Y-11298214D01*
X5898214Y-11312500D01*
X5912500Y-11326786D01*
X5926786Y-11355357D01*
X5926786Y-11383929D01*
X5912500Y-11426786D01*
X5741071Y-11598214D01*
X5926786Y-11598214D01*
X6183928Y-11298214D02*
X6126786Y-11298214D01*
X6098214Y-11312500D01*
X6083928Y-11326786D01*
X6055357Y-11369643D01*
X6041071Y-11426786D01*
X6041071Y-11541071D01*
X6055357Y-11569643D01*
X6069643Y-11583929D01*
X6098214Y-11598214D01*
X6155357Y-11598214D01*
X6183928Y-11583929D01*
X6198214Y-11569643D01*
X6212500Y-11541071D01*
X6212500Y-11469643D01*
X6198214Y-11441071D01*
X6183928Y-11426786D01*
X6155357Y-11412500D01*
X6098214Y-11412500D01*
X6069643Y-11426786D01*
X6055357Y-11441071D01*
X6041071Y-11469643D01*
X6326786Y-11298214D02*
X6326786Y-11355357D01*
X6441071Y-11298214D02*
X6441071Y-11355357D01*
X6883928Y-11712500D02*
X6869643Y-11698214D01*
X6841071Y-11655357D01*
X6826786Y-11626786D01*
X6812500Y-11583929D01*
X6798214Y-11512500D01*
X6798214Y-11455357D01*
X6812500Y-11383929D01*
X6826786Y-11341071D01*
X6841071Y-11312500D01*
X6869643Y-11269643D01*
X6883928Y-11255357D01*
X6983928Y-11326786D02*
X6998214Y-11312500D01*
X7026786Y-11298214D01*
X7098214Y-11298214D01*
X7126786Y-11312500D01*
X7141071Y-11326786D01*
X7155357Y-11355357D01*
X7155357Y-11383929D01*
X7141071Y-11426786D01*
X6969643Y-11598214D01*
X7155357Y-11598214D01*
X7512500Y-11598214D02*
X7512500Y-11298214D01*
X7641071Y-11598214D02*
X7641071Y-11441071D01*
X7626786Y-11412500D01*
X7598214Y-11398214D01*
X7555357Y-11398214D01*
X7526786Y-11412500D01*
X7512500Y-11426786D01*
X7826786Y-11598214D02*
X7798214Y-11583929D01*
X7783928Y-11569643D01*
X7769643Y-11541071D01*
X7769643Y-11455357D01*
X7783928Y-11426786D01*
X7798214Y-11412500D01*
X7826786Y-11398214D01*
X7869643Y-11398214D01*
X7898214Y-11412500D01*
X7912500Y-11426786D01*
X7926786Y-11455357D01*
X7926786Y-11541071D01*
X7912500Y-11569643D01*
X7898214Y-11583929D01*
X7869643Y-11598214D01*
X7826786Y-11598214D01*
X8098214Y-11598214D02*
X8069643Y-11583929D01*
X8055357Y-11555357D01*
X8055357Y-11298214D01*
X8326786Y-11583929D02*
X8298214Y-11598214D01*
X8241071Y-11598214D01*
X8212500Y-11583929D01*
X8198214Y-11555357D01*
X8198214Y-11441071D01*
X8212500Y-11412500D01*
X8241071Y-11398214D01*
X8298214Y-11398214D01*
X8326786Y-11412500D01*
X8341071Y-11441071D01*
X8341071Y-11469643D01*
X8198214Y-11498214D01*
X8455357Y-11583929D02*
X8483928Y-11598214D01*
X8541071Y-11598214D01*
X8569643Y-11583929D01*
X8583928Y-11555357D01*
X8583928Y-11541071D01*
X8569643Y-11512500D01*
X8541071Y-11498214D01*
X8498214Y-11498214D01*
X8469643Y-11483929D01*
X8455357Y-11455357D01*
X8455357Y-11441071D01*
X8469643Y-11412500D01*
X8498214Y-11398214D01*
X8541071Y-11398214D01*
X8569643Y-11412500D01*
X8683928Y-11712500D02*
X8698214Y-11698214D01*
X8726786Y-11655357D01*
X8741071Y-11626786D01*
X8755357Y-11583929D01*
X8769643Y-11512500D01*
X8769643Y-11455357D01*
X8755357Y-11383929D01*
X8741071Y-11341071D01*
X8726786Y-11312500D01*
X8698214Y-11269643D01*
X8683928Y-11255357D01*
X9226786Y-11712500D02*
X9212500Y-11698214D01*
X9183928Y-11655357D01*
X9169643Y-11626786D01*
X9155357Y-11583929D01*
X9141071Y-11512500D01*
X9141071Y-11455357D01*
X9155357Y-11383929D01*
X9169643Y-11341071D01*
X9183928Y-11312500D01*
X9212500Y-11269643D01*
X9226786Y-11255357D01*
X9341071Y-11398214D02*
X9341071Y-11598214D01*
X9341071Y-11426786D02*
X9355357Y-11412500D01*
X9383928Y-11398214D01*
X9426786Y-11398214D01*
X9455357Y-11412500D01*
X9469643Y-11441071D01*
X9469643Y-11598214D01*
X9655357Y-11598214D02*
X9626786Y-11583929D01*
X9612500Y-11569643D01*
X9598214Y-11541071D01*
X9598214Y-11455357D01*
X9612500Y-11426786D01*
X9626786Y-11412500D01*
X9655357Y-11398214D01*
X9698214Y-11398214D01*
X9726786Y-11412500D01*
X9741071Y-11426786D01*
X9755357Y-11455357D01*
X9755357Y-11541071D01*
X9741071Y-11569643D01*
X9726786Y-11583929D01*
X9698214Y-11598214D01*
X9655357Y-11598214D01*
X9841071Y-11398214D02*
X9955357Y-11398214D01*
X9883928Y-11298214D02*
X9883928Y-11555357D01*
X9898214Y-11583929D01*
X9926786Y-11598214D01*
X9955357Y-11598214D01*
X10283928Y-11398214D02*
X10283928Y-11698214D01*
X10283928Y-11412500D02*
X10312500Y-11398214D01*
X10369643Y-11398214D01*
X10398214Y-11412500D01*
X10412500Y-11426786D01*
X10426786Y-11455357D01*
X10426786Y-11541071D01*
X10412500Y-11569643D01*
X10398214Y-11583929D01*
X10369643Y-11598214D01*
X10312500Y-11598214D01*
X10283928Y-11583929D01*
X10598214Y-11598214D02*
X10569643Y-11583929D01*
X10555357Y-11555357D01*
X10555357Y-11298214D01*
X10841071Y-11598214D02*
X10841071Y-11441071D01*
X10826786Y-11412500D01*
X10798214Y-11398214D01*
X10741071Y-11398214D01*
X10712500Y-11412500D01*
X10841071Y-11583929D02*
X10812500Y-11598214D01*
X10741071Y-11598214D01*
X10712500Y-11583929D01*
X10698214Y-11555357D01*
X10698214Y-11526786D01*
X10712500Y-11498214D01*
X10741071Y-11483929D01*
X10812500Y-11483929D01*
X10841071Y-11469643D01*
X10941071Y-11398214D02*
X11055357Y-11398214D01*
X10983928Y-11298214D02*
X10983928Y-11555357D01*
X10998214Y-11583929D01*
X11026786Y-11598214D01*
X11055357Y-11598214D01*
X11269643Y-11583929D02*
X11241071Y-11598214D01*
X11183928Y-11598214D01*
X11155357Y-11583929D01*
X11141071Y-11555357D01*
X11141071Y-11441071D01*
X11155357Y-11412500D01*
X11183928Y-11398214D01*
X11241071Y-11398214D01*
X11269643Y-11412500D01*
X11283928Y-11441071D01*
X11283928Y-11469643D01*
X11141071Y-11498214D01*
X11541071Y-11598214D02*
X11541071Y-11298214D01*
X11541071Y-11583929D02*
X11512500Y-11598214D01*
X11455357Y-11598214D01*
X11426786Y-11583929D01*
X11412500Y-11569643D01*
X11398214Y-11541071D01*
X11398214Y-11455357D01*
X11412500Y-11426786D01*
X11426786Y-11412500D01*
X11455357Y-11398214D01*
X11512500Y-11398214D01*
X11541071Y-11412500D01*
X11655357Y-11712500D02*
X11669643Y-11698214D01*
X11698214Y-11655357D01*
X11712500Y-11626786D01*
X11726786Y-11583929D01*
X11741071Y-11512500D01*
X11741071Y-11455357D01*
X11726786Y-11383929D01*
X11712500Y-11341071D01*
X11698214Y-11312500D01*
X11669643Y-11269643D01*
X11655357Y-11255357D01*
X2197500Y-11912500D02*
G75*
G03*
X2197500Y-11912500I-215000J0D01*
G01*
X2612500Y-11848214D02*
X2612500Y-12048214D01*
X2541071Y-11733929D02*
X2469643Y-11948214D01*
X2655357Y-11948214D01*
X2769643Y-12019643D02*
X2783928Y-12033929D01*
X2769643Y-12048214D01*
X2755357Y-12033929D01*
X2769643Y-12019643D01*
X2769643Y-12048214D01*
X2883928Y-11748214D02*
X3069643Y-11748214D01*
X2969643Y-11862500D01*
X3012500Y-11862500D01*
X3041071Y-11876786D01*
X3055357Y-11891071D01*
X3069643Y-11919643D01*
X3069643Y-11991071D01*
X3055357Y-12019643D01*
X3041071Y-12033929D01*
X3012500Y-12048214D01*
X2926786Y-12048214D01*
X2898214Y-12033929D01*
X2883928Y-12019643D01*
X3255357Y-11748214D02*
X3283928Y-11748214D01*
X3312500Y-11762500D01*
X3326786Y-11776786D01*
X3341071Y-11805357D01*
X3355357Y-11862500D01*
X3355357Y-11933929D01*
X3341071Y-11991071D01*
X3326786Y-12019643D01*
X3312500Y-12033929D01*
X3283928Y-12048214D01*
X3255357Y-12048214D01*
X3226786Y-12033929D01*
X3212500Y-12019643D01*
X3198214Y-11991071D01*
X3183928Y-11933929D01*
X3183928Y-11862500D01*
X3198214Y-11805357D01*
X3212500Y-11776786D01*
X3226786Y-11762500D01*
X3255357Y-11748214D01*
X3483928Y-12048214D02*
X3483928Y-11848214D01*
X3483928Y-11876786D02*
X3498214Y-11862500D01*
X3526786Y-11848214D01*
X3569643Y-11848214D01*
X3598214Y-11862500D01*
X3612500Y-11891071D01*
X3612500Y-12048214D01*
X3612500Y-11891071D02*
X3626786Y-11862500D01*
X3655357Y-11848214D01*
X3698214Y-11848214D01*
X3726786Y-11862500D01*
X3741071Y-11891071D01*
X3741071Y-12048214D01*
X3883928Y-12048214D02*
X3883928Y-11848214D01*
X3883928Y-11876786D02*
X3898214Y-11862500D01*
X3926786Y-11848214D01*
X3969643Y-11848214D01*
X3998214Y-11862500D01*
X4012500Y-11891071D01*
X4012500Y-12048214D01*
X4012500Y-11891071D02*
X4026786Y-11862500D01*
X4055357Y-11848214D01*
X4098214Y-11848214D01*
X4126786Y-11862500D01*
X4141071Y-11891071D01*
X4141071Y-12048214D01*
X4726786Y-11733929D02*
X4469643Y-12119643D01*
X5112500Y-11748214D02*
X5141071Y-11748214D01*
X5169643Y-11762500D01*
X5183928Y-11776786D01*
X5198214Y-11805357D01*
X5212500Y-11862500D01*
X5212500Y-11933929D01*
X5198214Y-11991071D01*
X5183928Y-12019643D01*
X5169643Y-12033929D01*
X5141071Y-12048214D01*
X5112500Y-12048214D01*
X5083928Y-12033929D01*
X5069643Y-12019643D01*
X5055357Y-11991071D01*
X5041071Y-11933929D01*
X5041071Y-11862500D01*
X5055357Y-11805357D01*
X5069643Y-11776786D01*
X5083928Y-11762500D01*
X5112500Y-11748214D01*
X5341071Y-12019643D02*
X5355357Y-12033929D01*
X5341071Y-12048214D01*
X5326786Y-12033929D01*
X5341071Y-12019643D01*
X5341071Y-12048214D01*
X5641071Y-12048214D02*
X5469643Y-12048214D01*
X5555357Y-12048214D02*
X5555357Y-11748214D01*
X5526786Y-11791071D01*
X5498214Y-11819643D01*
X5469643Y-11833929D01*
X5898214Y-11748214D02*
X5841071Y-11748214D01*
X5812500Y-11762500D01*
X5798214Y-11776786D01*
X5769643Y-11819643D01*
X5755357Y-11876786D01*
X5755357Y-11991071D01*
X5769643Y-12019643D01*
X5783928Y-12033929D01*
X5812500Y-12048214D01*
X5869643Y-12048214D01*
X5898214Y-12033929D01*
X5912500Y-12019643D01*
X5926786Y-11991071D01*
X5926786Y-11919643D01*
X5912500Y-11891071D01*
X5898214Y-11876786D01*
X5869643Y-11862500D01*
X5812500Y-11862500D01*
X5783928Y-11876786D01*
X5769643Y-11891071D01*
X5755357Y-11919643D01*
X6069643Y-12048214D02*
X6126786Y-12048214D01*
X6155357Y-12033929D01*
X6169643Y-12019643D01*
X6198214Y-11976786D01*
X6212500Y-11919643D01*
X6212500Y-11805357D01*
X6198214Y-11776786D01*
X6183928Y-11762500D01*
X6155357Y-11748214D01*
X6098214Y-11748214D01*
X6069643Y-11762500D01*
X6055357Y-11776786D01*
X6041071Y-11805357D01*
X6041071Y-11876786D01*
X6055357Y-11905357D01*
X6069643Y-11919643D01*
X6098214Y-11933929D01*
X6155357Y-11933929D01*
X6183928Y-11919643D01*
X6198214Y-11905357D01*
X6212500Y-11876786D01*
X6326786Y-11748214D02*
X6326786Y-11805357D01*
X6441071Y-11748214D02*
X6441071Y-11805357D01*
X6883928Y-12162500D02*
X6869643Y-12148214D01*
X6841071Y-12105357D01*
X6826786Y-12076786D01*
X6812500Y-12033929D01*
X6798214Y-11962500D01*
X6798214Y-11905357D01*
X6812500Y-11833929D01*
X6826786Y-11791071D01*
X6841071Y-11762500D01*
X6869643Y-11719643D01*
X6883928Y-11705357D01*
X6969643Y-11748214D02*
X7155357Y-11748214D01*
X7055357Y-11862500D01*
X7098214Y-11862500D01*
X7126786Y-11876786D01*
X7141071Y-11891071D01*
X7155357Y-11919643D01*
X7155357Y-11991071D01*
X7141071Y-12019643D01*
X7126786Y-12033929D01*
X7098214Y-12048214D01*
X7012500Y-12048214D01*
X6983928Y-12033929D01*
X6969643Y-12019643D01*
X7512500Y-12048214D02*
X7512500Y-11748214D01*
X7641071Y-12048214D02*
X7641071Y-11891071D01*
X7626786Y-11862500D01*
X7598214Y-11848214D01*
X7555357Y-11848214D01*
X7526786Y-11862500D01*
X7512500Y-11876786D01*
X7826786Y-12048214D02*
X7798214Y-12033929D01*
X7783928Y-12019643D01*
X7769643Y-11991071D01*
X7769643Y-11905357D01*
X7783928Y-11876786D01*
X7798214Y-11862500D01*
X7826786Y-11848214D01*
X7869643Y-11848214D01*
X7898214Y-11862500D01*
X7912500Y-11876786D01*
X7926786Y-11905357D01*
X7926786Y-11991071D01*
X7912500Y-12019643D01*
X7898214Y-12033929D01*
X7869643Y-12048214D01*
X7826786Y-12048214D01*
X8098214Y-12048214D02*
X8069643Y-12033929D01*
X8055357Y-12005357D01*
X8055357Y-11748214D01*
X8326786Y-12033929D02*
X8298214Y-12048214D01*
X8241071Y-12048214D01*
X8212500Y-12033929D01*
X8198214Y-12005357D01*
X8198214Y-11891071D01*
X8212500Y-11862500D01*
X8241071Y-11848214D01*
X8298214Y-11848214D01*
X8326786Y-11862500D01*
X8341071Y-11891071D01*
X8341071Y-11919643D01*
X8198214Y-11948214D01*
X8455357Y-12033929D02*
X8483928Y-12048214D01*
X8541071Y-12048214D01*
X8569643Y-12033929D01*
X8583928Y-12005357D01*
X8583928Y-11991071D01*
X8569643Y-11962500D01*
X8541071Y-11948214D01*
X8498214Y-11948214D01*
X8469643Y-11933929D01*
X8455357Y-11905357D01*
X8455357Y-11891071D01*
X8469643Y-11862500D01*
X8498214Y-11848214D01*
X8541071Y-11848214D01*
X8569643Y-11862500D01*
X8683928Y-12162500D02*
X8698214Y-12148214D01*
X8726786Y-12105357D01*
X8741071Y-12076786D01*
X8755357Y-12033929D01*
X8769643Y-11962500D01*
X8769643Y-11905357D01*
X8755357Y-11833929D01*
X8741071Y-11791071D01*
X8726786Y-11762500D01*
X8698214Y-11719643D01*
X8683928Y-11705357D01*
X9226786Y-12162500D02*
X9212500Y-12148214D01*
X9183928Y-12105357D01*
X9169643Y-12076786D01*
X9155357Y-12033929D01*
X9141071Y-11962500D01*
X9141071Y-11905357D01*
X9155357Y-11833929D01*
X9169643Y-11791071D01*
X9183928Y-11762500D01*
X9212500Y-11719643D01*
X9226786Y-11705357D01*
X9341071Y-11848214D02*
X9341071Y-12048214D01*
X9341071Y-11876786D02*
X9355357Y-11862500D01*
X9383928Y-11848214D01*
X9426786Y-11848214D01*
X9455357Y-11862500D01*
X9469643Y-11891071D01*
X9469643Y-12048214D01*
X9655357Y-12048214D02*
X9626786Y-12033929D01*
X9612500Y-12019643D01*
X9598214Y-11991071D01*
X9598214Y-11905357D01*
X9612500Y-11876786D01*
X9626786Y-11862500D01*
X9655357Y-11848214D01*
X9698214Y-11848214D01*
X9726786Y-11862500D01*
X9741071Y-11876786D01*
X9755357Y-11905357D01*
X9755357Y-11991071D01*
X9741071Y-12019643D01*
X9726786Y-12033929D01*
X9698214Y-12048214D01*
X9655357Y-12048214D01*
X9841071Y-11848214D02*
X9955357Y-11848214D01*
X9883928Y-11748214D02*
X9883928Y-12005357D01*
X9898214Y-12033929D01*
X9926786Y-12048214D01*
X9955357Y-12048214D01*
X10283928Y-11848214D02*
X10283928Y-12148214D01*
X10283928Y-11862500D02*
X10312500Y-11848214D01*
X10369643Y-11848214D01*
X10398214Y-11862500D01*
X10412500Y-11876786D01*
X10426786Y-11905357D01*
X10426786Y-11991071D01*
X10412500Y-12019643D01*
X10398214Y-12033929D01*
X10369643Y-12048214D01*
X10312500Y-12048214D01*
X10283928Y-12033929D01*
X10598214Y-12048214D02*
X10569643Y-12033929D01*
X10555357Y-12005357D01*
X10555357Y-11748214D01*
X10841071Y-12048214D02*
X10841071Y-11891071D01*
X10826786Y-11862500D01*
X10798214Y-11848214D01*
X10741071Y-11848214D01*
X10712500Y-11862500D01*
X10841071Y-12033929D02*
X10812500Y-12048214D01*
X10741071Y-12048214D01*
X10712500Y-12033929D01*
X10698214Y-12005357D01*
X10698214Y-11976786D01*
X10712500Y-11948214D01*
X10741071Y-11933929D01*
X10812500Y-11933929D01*
X10841071Y-11919643D01*
X10941071Y-11848214D02*
X11055357Y-11848214D01*
X10983928Y-11748214D02*
X10983928Y-12005357D01*
X10998214Y-12033929D01*
X11026786Y-12048214D01*
X11055357Y-12048214D01*
X11269643Y-12033929D02*
X11241071Y-12048214D01*
X11183928Y-12048214D01*
X11155357Y-12033929D01*
X11141071Y-12005357D01*
X11141071Y-11891071D01*
X11155357Y-11862500D01*
X11183928Y-11848214D01*
X11241071Y-11848214D01*
X11269643Y-11862500D01*
X11283928Y-11891071D01*
X11283928Y-11919643D01*
X11141071Y-11948214D01*
X11541071Y-12048214D02*
X11541071Y-11748214D01*
X11541071Y-12033929D02*
X11512500Y-12048214D01*
X11455357Y-12048214D01*
X11426786Y-12033929D01*
X11412500Y-12019643D01*
X11398214Y-11991071D01*
X11398214Y-11905357D01*
X11412500Y-11876786D01*
X11426786Y-11862500D01*
X11455357Y-11848214D01*
X11512500Y-11848214D01*
X11541071Y-11862500D01*
X11655357Y-12162500D02*
X11669643Y-12148214D01*
X11698214Y-12105357D01*
X11712500Y-12076786D01*
X11726786Y-12033929D01*
X11741071Y-11962500D01*
X11741071Y-11905357D01*
X11726786Y-11833929D01*
X11712500Y-11791071D01*
X11698214Y-11762500D01*
X11669643Y-11719643D01*
X11655357Y-11705357D01*
M02*
