G04 #@! TF.GenerationSoftware,KiCad,Pcbnew,(5.1.8)-1*
G04 #@! TF.CreationDate,2021-05-16T02:31:53+02:00*
G04 #@! TF.ProjectId,gtimer,6774696d-6572-42e6-9b69-6361645f7063,rev?*
G04 #@! TF.SameCoordinates,Original*
G04 #@! TF.FileFunction,Legend,Bot*
G04 #@! TF.FilePolarity,Positive*
%FSLAX46Y46*%
G04 Gerber Fmt 4.6, Leading zero omitted, Abs format (unit mm)*
G04 Created by KiCad (PCBNEW (5.1.8)-1) date 2021-05-16 02:31:53*
%MOMM*%
%LPD*%
G01*
G04 APERTURE LIST*
%ADD10R,1.700000X1.700000*%
%ADD11O,1.700000X1.700000*%
%ADD12C,3.200000*%
%ADD13C,4.300000*%
%ADD14R,3.000000X3.000000*%
%ADD15C,3.000000*%
G04 APERTURE END LIST*
%LPC*%
D10*
X26000000Y-91000000D03*
D11*
X26000000Y-93540000D03*
X26000000Y-96080000D03*
X26000000Y-98620000D03*
X26000000Y-101160000D03*
D10*
X26000000Y-24000000D03*
D11*
X26000000Y-26540000D03*
X26000000Y-29080000D03*
X26000000Y-31620000D03*
X26000000Y-34160000D03*
D12*
X63000000Y-28000000D03*
X155500000Y-98000000D03*
D13*
X135000000Y-93000000D03*
X135000000Y-32000000D03*
X58000000Y-62500000D03*
D10*
X46000000Y-24000000D03*
D11*
X48540000Y-24000000D03*
X51080000Y-24000000D03*
X53620000Y-24000000D03*
X56160000Y-24000000D03*
D14*
X97500000Y-43500000D03*
D15*
X97500000Y-38420000D03*
D14*
X97500000Y-86500000D03*
D15*
X97500000Y-81420000D03*
D14*
X25000000Y-66000000D03*
D15*
X25000000Y-58500000D03*
X45000000Y-66000000D03*
X50000000Y-66000000D03*
X40000000Y-66000000D03*
X45000000Y-58500000D03*
X50000000Y-58500000D03*
X40000000Y-58500000D03*
D10*
X55000000Y-85000000D03*
D11*
X55000000Y-82460000D03*
D10*
X54000000Y-99000000D03*
D11*
X54000000Y-101540000D03*
X51460000Y-99000000D03*
X51460000Y-101540000D03*
X48920000Y-99000000D03*
X48920000Y-101540000D03*
D10*
X35500000Y-101000000D03*
D11*
X38040000Y-101000000D03*
X40580000Y-101000000D03*
D10*
X40000000Y-24000000D03*
D11*
X37460000Y-24000000D03*
X34920000Y-24000000D03*
X32380000Y-24000000D03*
M02*
