G04 #@! TF.GenerationSoftware,KiCad,Pcbnew,(5.1.8)-1*
G04 #@! TF.CreationDate,2021-05-16T02:31:53+02:00*
G04 #@! TF.ProjectId,gtimer,6774696d-6572-42e6-9b69-6361645f7063,rev?*
G04 #@! TF.SameCoordinates,Original*
G04 #@! TF.FileFunction,Soldermask,Top*
G04 #@! TF.FilePolarity,Negative*
%FSLAX46Y46*%
G04 Gerber Fmt 4.6, Leading zero omitted, Abs format (unit mm)*
G04 Created by KiCad (PCBNEW (5.1.8)-1) date 2021-05-16 02:31:53*
%MOMM*%
%LPD*%
G01*
G04 APERTURE LIST*
%ADD10R,1.700000X1.700000*%
%ADD11O,1.700000X1.700000*%
%ADD12C,3.200000*%
%ADD13C,4.300000*%
%ADD14R,3.000000X3.000000*%
%ADD15C,3.000000*%
%ADD16R,3.800000X2.200000*%
%ADD17R,1.500000X2.200000*%
%ADD18R,0.600000X1.200000*%
%ADD19R,1.200000X0.600000*%
%ADD20R,1.300000X1.500000*%
%ADD21R,1.500000X1.300000*%
%ADD22R,2.700000X3.750000*%
%ADD23R,1.500000X1.250000*%
G04 APERTURE END LIST*
D10*
X26000000Y-91000000D03*
D11*
X26000000Y-93540000D03*
X26000000Y-96080000D03*
X26000000Y-98620000D03*
X26000000Y-101160000D03*
D10*
X26000000Y-24000000D03*
D11*
X26000000Y-26540000D03*
X26000000Y-29080000D03*
X26000000Y-31620000D03*
X26000000Y-34160000D03*
G36*
G01*
X25350000Y-53770000D02*
X24750000Y-53770000D01*
G75*
G02*
X24680000Y-53700000I0J70000D01*
G01*
X24680000Y-52400000D01*
G75*
G02*
X24750000Y-52330000I70000J0D01*
G01*
X25350000Y-52330000D01*
G75*
G02*
X25420000Y-52400000I0J-70000D01*
G01*
X25420000Y-53700000D01*
G75*
G02*
X25350000Y-53770000I-70000J0D01*
G01*
G37*
G36*
G01*
X27250000Y-53770000D02*
X26650000Y-53770000D01*
G75*
G02*
X26580000Y-53700000I0J70000D01*
G01*
X26580000Y-52400000D01*
G75*
G02*
X26650000Y-52330000I70000J0D01*
G01*
X27250000Y-52330000D01*
G75*
G02*
X27320000Y-52400000I0J-70000D01*
G01*
X27320000Y-53700000D01*
G75*
G02*
X27250000Y-53770000I-70000J0D01*
G01*
G37*
G36*
G01*
X26300000Y-51670000D02*
X25700000Y-51670000D01*
G75*
G02*
X25630000Y-51600000I0J70000D01*
G01*
X25630000Y-50300000D01*
G75*
G02*
X25700000Y-50230000I70000J0D01*
G01*
X26300000Y-50230000D01*
G75*
G02*
X26370000Y-50300000I0J-70000D01*
G01*
X26370000Y-51600000D01*
G75*
G02*
X26300000Y-51670000I-70000J0D01*
G01*
G37*
D12*
X63000000Y-28000000D03*
X155500000Y-98000000D03*
D13*
X135000000Y-93000000D03*
X135000000Y-32000000D03*
X58000000Y-62500000D03*
D10*
X46000000Y-24000000D03*
D11*
X48540000Y-24000000D03*
X51080000Y-24000000D03*
X53620000Y-24000000D03*
X56160000Y-24000000D03*
D14*
X97500000Y-43500000D03*
D15*
X97500000Y-38420000D03*
D14*
X97500000Y-86500000D03*
D15*
X97500000Y-81420000D03*
D16*
X75000000Y-80850000D03*
D17*
X72700000Y-87150000D03*
X75000000Y-87150000D03*
X77300000Y-87150000D03*
D18*
X39200000Y-87750000D03*
X40000000Y-87750000D03*
X40800000Y-87750000D03*
X41600000Y-87750000D03*
X42400000Y-87750000D03*
X43200000Y-87750000D03*
X44000000Y-87750000D03*
X44800000Y-87750000D03*
D19*
X46250000Y-86300000D03*
X46250000Y-85500000D03*
X46250000Y-84700000D03*
X46250000Y-83900000D03*
X46250000Y-83100000D03*
X46250000Y-82300000D03*
X46250000Y-81500000D03*
X46250000Y-80700000D03*
D18*
X44800000Y-79250000D03*
X44000000Y-79250000D03*
X43200000Y-79250000D03*
X42400000Y-79250000D03*
X41600000Y-79250000D03*
X40800000Y-79250000D03*
X40000000Y-79250000D03*
X39200000Y-79250000D03*
D19*
X37750000Y-80700000D03*
X37750000Y-81500000D03*
X37750000Y-82300000D03*
X37750000Y-83100000D03*
X37750000Y-83900000D03*
X37750000Y-84700000D03*
X37750000Y-85500000D03*
X37750000Y-86300000D03*
D14*
X25000000Y-66000000D03*
D15*
X25000000Y-58500000D03*
X45000000Y-66000000D03*
X50000000Y-66000000D03*
X40000000Y-66000000D03*
X45000000Y-58500000D03*
X50000000Y-58500000D03*
X40000000Y-58500000D03*
D20*
X48500000Y-36850000D03*
X48500000Y-34150000D03*
X51000000Y-36850000D03*
X51000000Y-34150000D03*
X31000000Y-74850000D03*
X31000000Y-72150000D03*
D21*
X30150000Y-80000000D03*
X32850000Y-80000000D03*
G36*
G01*
X26650000Y-71230000D02*
X27250000Y-71230000D01*
G75*
G02*
X27320000Y-71300000I0J-70000D01*
G01*
X27320000Y-72600000D01*
G75*
G02*
X27250000Y-72670000I-70000J0D01*
G01*
X26650000Y-72670000D01*
G75*
G02*
X26580000Y-72600000I0J70000D01*
G01*
X26580000Y-71300000D01*
G75*
G02*
X26650000Y-71230000I70000J0D01*
G01*
G37*
G36*
G01*
X24750000Y-71230000D02*
X25350000Y-71230000D01*
G75*
G02*
X25420000Y-71300000I0J-70000D01*
G01*
X25420000Y-72600000D01*
G75*
G02*
X25350000Y-72670000I-70000J0D01*
G01*
X24750000Y-72670000D01*
G75*
G02*
X24680000Y-72600000I0J70000D01*
G01*
X24680000Y-71300000D01*
G75*
G02*
X24750000Y-71230000I70000J0D01*
G01*
G37*
G36*
G01*
X25700000Y-73330000D02*
X26300000Y-73330000D01*
G75*
G02*
X26370000Y-73400000I0J-70000D01*
G01*
X26370000Y-74700000D01*
G75*
G02*
X26300000Y-74770000I-70000J0D01*
G01*
X25700000Y-74770000D01*
G75*
G02*
X25630000Y-74700000I0J70000D01*
G01*
X25630000Y-73400000D01*
G75*
G02*
X25700000Y-73330000I70000J0D01*
G01*
G37*
D10*
X55000000Y-85000000D03*
D11*
X55000000Y-82460000D03*
D10*
X54000000Y-99000000D03*
D11*
X54000000Y-101540000D03*
X51460000Y-99000000D03*
X51460000Y-101540000D03*
X48920000Y-99000000D03*
X48920000Y-101540000D03*
D10*
X35500000Y-101000000D03*
D11*
X38040000Y-101000000D03*
X40580000Y-101000000D03*
D10*
X40000000Y-24000000D03*
D11*
X37460000Y-24000000D03*
X34920000Y-24000000D03*
X32380000Y-24000000D03*
D22*
X63000000Y-87775000D03*
X63000000Y-80225000D03*
D23*
X32750000Y-84000000D03*
X30250000Y-84000000D03*
D22*
X87000000Y-87775000D03*
X87000000Y-80225000D03*
D23*
X40750000Y-91500000D03*
X43250000Y-91500000D03*
X40750000Y-74000000D03*
X43250000Y-74000000D03*
M02*
